<svg width="848" height="1136" viewBox="0 0 848 1136" fill="none" xmlns="http://www.w3.org/2000/svg">
<rect width="176" height="80" rx="6" fill="#1E1E1E"/>
<path d="M66.3222 46V34.3636H68.7825V39.1648H73.7768V34.3636H76.2313V46H73.7768V41.1932H68.7825V46H66.3222ZM81.9815 46.1705C81.0989 46.1705 80.3356 45.983 79.6917 45.608C79.0515 45.2292 78.5572 44.7027 78.2087 44.0284C77.8603 43.3504 77.686 42.5644 77.686 41.6705C77.686 40.7689 77.8603 39.9811 78.2087 39.3068C78.5572 38.6288 79.0515 38.1023 79.6917 37.7273C80.3356 37.3485 81.0989 37.1591 81.9815 37.1591C82.864 37.1591 83.6254 37.3485 84.2656 37.7273C84.9095 38.1023 85.4057 38.6288 85.7542 39.3068C86.1027 39.9811 86.2769 40.7689 86.2769 41.6705C86.2769 42.5644 86.1027 43.3504 85.7542 44.0284C85.4057 44.7027 84.9095 45.2292 84.2656 45.608C83.6254 45.983 82.864 46.1705 81.9815 46.1705ZM81.9928 44.2955C82.3943 44.2955 82.7296 44.1818 82.9985 43.9545C83.2675 43.7235 83.4701 43.4091 83.6065 43.0114C83.7466 42.6136 83.8167 42.161 83.8167 41.6534C83.8167 41.1458 83.7466 40.6932 83.6065 40.2955C83.4701 39.8977 83.2675 39.5833 82.9985 39.3523C82.7296 39.1212 82.3943 39.0057 81.9928 39.0057C81.5875 39.0057 81.2466 39.1212 80.9701 39.3523C80.6974 39.5833 80.4909 39.8977 80.3508 40.2955C80.2144 40.6932 80.1462 41.1458 80.1462 41.6534C80.1462 42.161 80.2144 42.6136 80.3508 43.0114C80.4909 43.4091 80.6974 43.7235 80.9701 43.9545C81.2466 44.1818 81.5875 44.2955 81.9928 44.2955ZM87.6748 46V37.2727H89.9816V38.8125H90.0839C90.2657 38.3011 90.5687 37.8977 90.993 37.6023C91.4172 37.3068 91.9248 37.1591 92.5157 37.1591C93.1142 37.1591 93.6237 37.3087 94.0441 37.608C94.4646 37.9034 94.7449 38.3049 94.885 38.8125H94.9759C95.154 38.3125 95.4759 37.9129 95.9418 37.6136C96.4115 37.3106 96.9665 37.1591 97.6066 37.1591C98.421 37.1591 99.082 37.4186 99.5896 37.9375C100.101 38.4527 100.357 39.1837 100.357 40.1307V46H97.9418V40.608C97.9418 40.1231 97.813 39.7595 97.5555 39.517C97.2979 39.2746 96.9759 39.1534 96.5896 39.1534C96.1502 39.1534 95.8074 39.2936 95.5612 39.5739C95.3149 39.8504 95.1918 40.2159 95.1918 40.6705V46H92.8452V40.5568C92.8452 40.1288 92.7221 39.7879 92.4759 39.5341C92.2335 39.2803 91.9134 39.1534 91.5157 39.1534C91.2468 39.1534 91.0043 39.2216 90.7884 39.358C90.5763 39.4905 90.4077 39.678 90.2827 39.9205C90.1577 40.1591 90.0952 40.4394 90.0952 40.7614V46H87.6748ZM106.07 46.1705C105.172 46.1705 104.399 45.9886 103.752 45.625C103.108 45.2576 102.611 44.7386 102.263 44.0682C101.915 43.3939 101.74 42.5966 101.74 41.6761C101.74 40.7784 101.915 39.9905 102.263 39.3125C102.611 38.6345 103.102 38.1061 103.735 37.7273C104.371 37.3485 105.117 37.1591 105.973 37.1591C106.549 37.1591 107.085 37.2519 107.581 37.4375C108.081 37.6193 108.517 37.8939 108.888 38.2614C109.263 38.6288 109.555 39.0909 109.763 39.6477C109.971 40.2008 110.075 40.8485 110.075 41.5909V42.2557H102.706V40.7557H107.797C107.797 40.4072 107.721 40.0985 107.57 39.8295C107.418 39.5606 107.208 39.3504 106.939 39.1989C106.674 39.0436 106.365 38.9659 106.013 38.9659C105.646 38.9659 105.32 39.0511 105.036 39.2216C104.755 39.3883 104.536 39.6136 104.377 39.8977C104.218 40.178 104.136 40.4905 104.132 40.8352V42.2614C104.132 42.6932 104.212 43.0663 104.371 43.3807C104.534 43.6951 104.763 43.9375 105.058 44.108C105.354 44.2784 105.704 44.3636 106.11 44.3636C106.379 44.3636 106.625 44.3258 106.848 44.25C107.072 44.1742 107.263 44.0606 107.422 43.9091C107.581 43.7576 107.702 43.572 107.786 43.3523L110.024 43.5C109.911 44.0379 109.678 44.5076 109.325 44.9091C108.977 45.3068 108.526 45.6174 107.973 45.8409C107.424 46.0606 106.79 46.1705 106.07 46.1705Z" fill="white"/>
<rect x="224" width="176" height="80" rx="6" fill="#F24822"/>
<path d="M270.717 46V34.3636H275.308C276.191 34.3636 276.943 34.5322 277.564 34.8693C278.185 35.2027 278.659 35.6667 278.984 36.2614C279.314 36.8523 279.479 37.5341 279.479 38.3068C279.479 39.0795 279.312 39.7614 278.979 40.3523C278.645 40.9432 278.163 41.4034 277.53 41.733C276.901 42.0625 276.14 42.2273 275.246 42.2273H272.32V40.2557H274.848C275.322 40.2557 275.712 40.1742 276.019 40.0114C276.329 39.8447 276.56 39.6155 276.712 39.3239C276.867 39.0284 276.945 38.6894 276.945 38.3068C276.945 37.9205 276.867 37.5833 276.712 37.2955C276.56 37.0038 276.329 36.7784 276.019 36.6193C275.708 36.4564 275.314 36.375 274.837 36.375H273.178V46H270.717ZM280.855 46V37.2727H283.202V38.7955H283.293C283.452 38.2538 283.719 37.8447 284.094 37.5682C284.469 37.2879 284.901 37.1477 285.389 37.1477C285.511 37.1477 285.641 37.1553 285.781 37.1705C285.922 37.1856 286.045 37.2064 286.151 37.233V39.3807C286.037 39.3466 285.88 39.3163 285.679 39.2898C285.478 39.2633 285.295 39.25 285.128 39.25C284.772 39.25 284.454 39.3277 284.174 39.483C283.897 39.6345 283.677 39.8466 283.514 40.1193C283.355 40.392 283.276 40.7064 283.276 41.0625V46H280.855ZM290.763 46.1705C289.881 46.1705 289.117 45.983 288.473 45.608C287.833 45.2292 287.339 44.7027 286.99 44.0284C286.642 43.3504 286.468 42.5644 286.468 41.6705C286.468 40.7689 286.642 39.9811 286.99 39.3068C287.339 38.6288 287.833 38.1023 288.473 37.7273C289.117 37.3485 289.881 37.1591 290.763 37.1591C291.646 37.1591 292.407 37.3485 293.047 37.7273C293.691 38.1023 294.187 38.6288 294.536 39.3068C294.884 39.9811 295.059 40.7689 295.059 41.6705C295.059 42.5644 294.884 43.3504 294.536 44.0284C294.187 44.7027 293.691 45.2292 293.047 45.608C292.407 45.983 291.646 46.1705 290.763 46.1705ZM290.775 44.2955C291.176 44.2955 291.511 44.1818 291.78 43.9545C292.049 43.7235 292.252 43.4091 292.388 43.0114C292.528 42.6136 292.598 42.161 292.598 41.6534C292.598 41.1458 292.528 40.6932 292.388 40.2955C292.252 39.8977 292.049 39.5833 291.78 39.3523C291.511 39.1212 291.176 39.0057 290.775 39.0057C290.369 39.0057 290.028 39.1212 289.752 39.3523C289.479 39.5833 289.273 39.8977 289.132 40.2955C288.996 40.6932 288.928 41.1458 288.928 41.6534C288.928 42.161 288.996 42.6136 289.132 43.0114C289.273 43.4091 289.479 43.7235 289.752 43.9545C290.028 44.1818 290.369 44.2955 290.775 44.2955ZM299.672 46.142C299.01 46.142 298.409 45.9716 297.871 45.6307C297.337 45.286 296.913 44.7803 296.599 44.1136C296.288 43.4432 296.133 42.6212 296.133 41.6477C296.133 40.6477 296.294 39.8163 296.616 39.1534C296.938 38.4867 297.366 37.9886 297.9 37.6591C298.438 37.3258 299.027 37.1591 299.667 37.1591C300.155 37.1591 300.563 37.2424 300.888 37.4091C301.218 37.572 301.483 37.7765 301.684 38.0227C301.888 38.2652 302.044 38.5038 302.15 38.7386H302.224V34.3636H304.638V46H302.252V44.6023H302.15C302.036 44.8447 301.875 45.0852 301.667 45.3239C301.462 45.5587 301.195 45.7538 300.866 45.9091C300.54 46.0644 300.142 46.142 299.672 46.142ZM300.439 44.2159C300.83 44.2159 301.159 44.1098 301.428 43.8977C301.701 43.6818 301.909 43.3807 302.053 42.9943C302.201 42.608 302.275 42.1553 302.275 41.6364C302.275 41.1174 302.203 40.6667 302.059 40.2841C301.915 39.9015 301.706 39.6061 301.434 39.3977C301.161 39.1894 300.83 39.0852 300.439 39.0852C300.042 39.0852 299.706 39.1932 299.434 39.4091C299.161 39.625 298.955 39.9242 298.814 40.3068C298.674 40.6894 298.604 41.1326 298.604 41.6364C298.604 42.1439 298.674 42.5928 298.814 42.983C298.958 43.3693 299.165 43.6723 299.434 43.892C299.706 44.108 300.042 44.2159 300.439 44.2159ZM312.049 42.2841V37.2727H314.469V46H312.146V44.4148H312.055C311.858 44.9261 311.53 45.3371 311.072 45.6477C310.617 45.9583 310.062 46.1136 309.407 46.1136C308.824 46.1136 308.31 45.9811 307.867 45.7159C307.424 45.4508 307.077 45.0739 306.827 44.5852C306.581 44.0966 306.456 43.5114 306.452 42.8295V37.2727H308.873V42.3977C308.877 42.9129 309.015 43.3201 309.288 43.6193C309.56 43.9186 309.926 44.0682 310.384 44.0682C310.676 44.0682 310.949 44.0019 311.202 43.8693C311.456 43.733 311.661 43.5322 311.816 43.267C311.975 43.0019 312.053 42.6742 312.049 42.2841ZM320.173 46.1705C319.279 46.1705 318.51 45.9811 317.866 45.6023C317.226 45.2197 316.733 44.6894 316.389 44.0114C316.048 43.3333 315.877 42.553 315.877 41.6705C315.877 40.7765 316.05 39.9924 316.394 39.3182C316.743 38.6402 317.237 38.1117 317.877 37.733C318.517 37.3504 319.279 37.1591 320.161 37.1591C320.923 37.1591 321.589 37.2973 322.161 37.5739C322.733 37.8504 323.186 38.2386 323.519 38.7386C323.853 39.2386 324.036 39.8258 324.07 40.5H321.786C321.722 40.0644 321.551 39.714 321.275 39.4489C321.002 39.1799 320.644 39.0455 320.201 39.0455C319.826 39.0455 319.498 39.1477 319.218 39.3523C318.942 39.553 318.726 39.8466 318.57 40.233C318.415 40.6193 318.337 41.0871 318.337 41.6364C318.337 42.1932 318.413 42.6667 318.565 43.0568C318.72 43.447 318.938 43.7443 319.218 43.9489C319.498 44.1534 319.826 44.2557 320.201 44.2557C320.478 44.2557 320.726 44.1989 320.945 44.0852C321.169 43.9716 321.353 43.8068 321.497 43.5909C321.644 43.3712 321.741 43.108 321.786 42.8011H324.07C324.033 43.4678 323.851 44.0549 323.525 44.5625C323.203 45.0663 322.758 45.4602 322.19 45.7443C321.622 46.0284 320.949 46.1705 320.173 46.1705ZM330.086 37.2727V39.0909H324.83V37.2727H330.086ZM326.024 35.1818H328.444V43.3182C328.444 43.5417 328.478 43.7159 328.546 43.8409C328.615 43.9621 328.709 44.0473 328.83 44.0966C328.955 44.1458 329.099 44.1705 329.262 44.1705C329.376 44.1705 329.49 44.161 329.603 44.142C329.717 44.1193 329.804 44.1023 329.865 44.0909L330.245 45.892C330.124 45.9299 329.954 45.9735 329.734 46.0227C329.514 46.0758 329.247 46.108 328.933 46.1193C328.349 46.142 327.838 46.0644 327.399 45.8864C326.963 45.7083 326.624 45.4318 326.382 45.0568C326.139 44.6818 326.02 44.2083 326.024 43.6364V35.1818ZM331.487 46V37.2727H333.907V46H331.487ZM332.703 36.1477C332.343 36.1477 332.034 36.0284 331.777 35.7898C331.523 35.5473 331.396 35.2576 331.396 34.9205C331.396 34.5871 331.523 34.3011 331.777 34.0625C332.034 33.8201 332.343 33.6989 332.703 33.6989C333.063 33.6989 333.369 33.8201 333.623 34.0625C333.881 34.3011 334.01 34.5871 334.01 34.9205C334.01 35.2576 333.881 35.5473 333.623 35.7898C333.369 36.0284 333.063 36.1477 332.703 36.1477ZM339.613 46.1705C338.731 46.1705 337.968 45.983 337.324 45.608C336.683 45.2292 336.189 44.7027 335.841 44.0284C335.492 43.3504 335.318 42.5644 335.318 41.6705C335.318 40.7689 335.492 39.9811 335.841 39.3068C336.189 38.6288 336.683 38.1023 337.324 37.7273C337.968 37.3485 338.731 37.1591 339.613 37.1591C340.496 37.1591 341.257 37.3485 341.897 37.7273C342.541 38.1023 343.038 38.6288 343.386 39.3068C343.735 39.9811 343.909 40.7689 343.909 41.6705C343.909 42.5644 343.735 43.3504 343.386 44.0284C343.038 44.7027 342.541 45.2292 341.897 45.608C341.257 45.983 340.496 46.1705 339.613 46.1705ZM339.625 44.2955C340.026 44.2955 340.362 44.1818 340.63 43.9545C340.899 43.7235 341.102 43.4091 341.238 43.0114C341.379 42.6136 341.449 42.161 341.449 41.6534C341.449 41.1458 341.379 40.6932 341.238 40.2955C341.102 39.8977 340.899 39.5833 340.63 39.3523C340.362 39.1212 340.026 39.0057 339.625 39.0057C339.219 39.0057 338.879 39.1212 338.602 39.3523C338.329 39.5833 338.123 39.8977 337.983 40.2955C337.846 40.6932 337.778 41.1458 337.778 41.6534C337.778 42.161 337.846 42.6136 337.983 43.0114C338.123 43.4091 338.329 43.7235 338.602 43.9545C338.879 44.1818 339.219 44.2955 339.625 44.2955ZM347.727 40.9545V46H345.307V37.2727H347.614V38.8125H347.716C347.909 38.3049 348.233 37.9034 348.687 37.608C349.142 37.3087 349.693 37.1591 350.341 37.1591C350.947 37.1591 351.475 37.2917 351.926 37.5568C352.377 37.822 352.727 38.2008 352.977 38.6932C353.227 39.1818 353.352 39.7652 353.352 40.4432V46H350.932V40.875C350.936 40.3409 350.799 39.9242 350.523 39.625C350.246 39.322 349.865 39.1705 349.381 39.1705C349.055 39.1705 348.767 39.2405 348.517 39.3807C348.271 39.5208 348.078 39.7254 347.937 39.9943C347.801 40.2595 347.731 40.5795 347.727 40.9545Z" fill="white"/>
<rect x="224" y="768" width="176" height="80" rx="6" fill="#0D99FF"/>
<path d="M291.978 806.438H289.49C289.444 806.116 289.351 805.83 289.211 805.58C289.071 805.326 288.891 805.11 288.671 804.932C288.452 804.754 288.198 804.617 287.91 804.523C287.626 804.428 287.317 804.381 286.984 804.381C286.382 804.381 285.857 804.53 285.41 804.83C284.963 805.125 284.617 805.557 284.37 806.125C284.124 806.689 284.001 807.375 284.001 808.182C284.001 809.011 284.124 809.708 284.37 810.273C284.62 810.837 284.969 811.263 285.416 811.551C285.863 811.839 286.38 811.983 286.967 811.983C287.296 811.983 287.601 811.939 287.882 811.852C288.166 811.765 288.418 811.638 288.637 811.472C288.857 811.301 289.039 811.095 289.183 810.852C289.331 810.61 289.433 810.333 289.49 810.023L291.978 810.034C291.914 810.568 291.753 811.083 291.495 811.58C291.242 812.072 290.899 812.513 290.467 812.903C290.039 813.29 289.528 813.597 288.933 813.824C288.342 814.047 287.673 814.159 286.927 814.159C285.889 814.159 284.961 813.924 284.143 813.455C283.329 812.985 282.685 812.305 282.211 811.415C281.742 810.525 281.507 809.447 281.507 808.182C281.507 806.913 281.745 805.833 282.223 804.943C282.7 804.053 283.348 803.375 284.166 802.909C284.984 802.439 285.904 802.205 286.927 802.205C287.601 802.205 288.226 802.299 288.802 802.489C289.382 802.678 289.895 802.955 290.342 803.318C290.789 803.678 291.153 804.119 291.433 804.642C291.717 805.165 291.899 805.763 291.978 806.438ZM297.464 814.17C296.582 814.17 295.818 813.983 295.174 813.608C294.534 813.229 294.04 812.703 293.691 812.028C293.343 811.35 293.169 810.564 293.169 809.67C293.169 808.769 293.343 807.981 293.691 807.307C294.04 806.629 294.534 806.102 295.174 805.727C295.818 805.348 296.582 805.159 297.464 805.159C298.347 805.159 299.108 805.348 299.748 805.727C300.392 806.102 300.888 806.629 301.237 807.307C301.585 807.981 301.76 808.769 301.76 809.67C301.76 810.564 301.585 811.35 301.237 812.028C300.888 812.703 300.392 813.229 299.748 813.608C299.108 813.983 298.347 814.17 297.464 814.17ZM297.476 812.295C297.877 812.295 298.212 812.182 298.481 811.955C298.75 811.723 298.953 811.409 299.089 811.011C299.229 810.614 299.299 810.161 299.299 809.653C299.299 809.146 299.229 808.693 299.089 808.295C298.953 807.898 298.75 807.583 298.481 807.352C298.212 807.121 297.877 807.006 297.476 807.006C297.07 807.006 296.729 807.121 296.453 807.352C296.18 807.583 295.974 807.898 295.834 808.295C295.697 808.693 295.629 809.146 295.629 809.653C295.629 810.161 295.697 810.614 295.834 811.011C295.974 811.409 296.18 811.723 296.453 811.955C296.729 812.182 297.07 812.295 297.476 812.295ZM305.578 808.955V814H303.158V805.273H305.464V806.812H305.567C305.76 806.305 306.084 805.903 306.538 805.608C306.993 805.309 307.544 805.159 308.192 805.159C308.798 805.159 309.326 805.292 309.777 805.557C310.228 805.822 310.578 806.201 310.828 806.693C311.078 807.182 311.203 807.765 311.203 808.443V814H308.783V808.875C308.786 808.341 308.65 807.924 308.373 807.625C308.097 807.322 307.716 807.17 307.231 807.17C306.906 807.17 306.618 807.241 306.368 807.381C306.122 807.521 305.928 807.725 305.788 807.994C305.652 808.259 305.582 808.58 305.578 808.955ZM317.577 805.273V807.091H312.321V805.273H317.577ZM313.514 803.182H315.935V811.318C315.935 811.542 315.969 811.716 316.037 811.841C316.105 811.962 316.2 812.047 316.321 812.097C316.446 812.146 316.59 812.17 316.753 812.17C316.866 812.17 316.98 812.161 317.094 812.142C317.207 812.119 317.295 812.102 317.355 812.091L317.736 813.892C317.615 813.93 317.444 813.973 317.224 814.023C317.005 814.076 316.738 814.108 316.423 814.119C315.84 814.142 315.329 814.064 314.889 813.886C314.454 813.708 314.115 813.432 313.872 813.057C313.63 812.682 313.51 812.208 313.514 811.636V803.182ZM322.861 814.17C321.963 814.17 321.19 813.989 320.543 813.625C319.899 813.258 319.403 812.739 319.054 812.068C318.706 811.394 318.531 810.597 318.531 809.676C318.531 808.778 318.706 807.991 319.054 807.312C319.403 806.634 319.893 806.106 320.526 805.727C321.162 805.348 321.908 805.159 322.764 805.159C323.34 805.159 323.876 805.252 324.372 805.438C324.872 805.619 325.308 805.894 325.679 806.261C326.054 806.629 326.346 807.091 326.554 807.648C326.762 808.201 326.867 808.848 326.867 809.591V810.256H319.497V808.756H324.588C324.588 808.407 324.512 808.098 324.361 807.83C324.209 807.561 323.999 807.35 323.73 807.199C323.465 807.044 323.156 806.966 322.804 806.966C322.437 806.966 322.111 807.051 321.827 807.222C321.547 807.388 321.327 807.614 321.168 807.898C321.009 808.178 320.927 808.491 320.923 808.835V810.261C320.923 810.693 321.003 811.066 321.162 811.381C321.325 811.695 321.554 811.938 321.85 812.108C322.145 812.278 322.495 812.364 322.901 812.364C323.17 812.364 323.416 812.326 323.639 812.25C323.863 812.174 324.054 812.061 324.213 811.909C324.372 811.758 324.494 811.572 324.577 811.352L326.815 811.5C326.702 812.038 326.469 812.508 326.117 812.909C325.768 813.307 325.317 813.617 324.764 813.841C324.215 814.061 323.581 814.17 322.861 814.17ZM330.691 808.955V814H328.27V805.273H330.577V806.812H330.679C330.872 806.305 331.196 805.903 331.651 805.608C332.105 805.309 332.657 805.159 333.304 805.159C333.91 805.159 334.439 805.292 334.889 805.557C335.34 805.822 335.691 806.201 335.941 806.693C336.191 807.182 336.316 807.765 336.316 808.443V814H333.895V808.875C333.899 808.341 333.763 807.924 333.486 807.625C333.21 807.322 332.829 807.17 332.344 807.17C332.018 807.17 331.73 807.241 331.48 807.381C331.234 807.521 331.041 807.725 330.901 807.994C330.764 808.259 330.694 808.58 330.691 808.955ZM342.689 805.273V807.091H337.434V805.273H342.689ZM338.627 803.182H341.047V811.318C341.047 811.542 341.081 811.716 341.15 811.841C341.218 811.962 341.312 812.047 341.434 812.097C341.559 812.146 341.703 812.17 341.865 812.17C341.979 812.17 342.093 812.161 342.206 812.142C342.32 812.119 342.407 812.102 342.468 812.091L342.848 813.892C342.727 813.93 342.557 813.973 342.337 814.023C342.117 814.076 341.85 814.108 341.536 814.119C340.953 814.142 340.441 814.064 340.002 813.886C339.566 813.708 339.227 813.432 338.985 813.057C338.742 812.682 338.623 812.208 338.627 811.636V803.182Z" fill="white"/>
<rect x="448" y="768" width="176" height="80" rx="6" fill="#F24822"/>
<path d="M506.875 814H505.012L509.199 802.364H511.228L515.415 814H513.551L510.262 804.477H510.171L506.875 814ZM507.188 809.443H513.233V810.92H507.188V809.443ZM518.482 808.818V814H516.783V805.273H518.414V806.693H518.522C518.723 806.231 519.037 805.86 519.465 805.58C519.897 805.299 520.44 805.159 521.096 805.159C521.69 805.159 522.211 805.284 522.658 805.534C523.105 805.78 523.452 806.148 523.698 806.636C523.944 807.125 524.067 807.729 524.067 808.449V814H522.368V808.653C522.368 808.021 522.204 807.527 521.874 807.17C521.544 806.811 521.092 806.631 520.516 806.631C520.122 806.631 519.772 806.716 519.465 806.886C519.162 807.057 518.921 807.307 518.743 807.636C518.569 807.962 518.482 808.356 518.482 808.818ZM529.846 814.176C529.001 814.176 528.274 813.985 527.664 813.602C527.058 813.216 526.592 812.684 526.266 812.006C525.94 811.328 525.778 810.551 525.778 809.676C525.778 808.79 525.944 808.008 526.278 807.33C526.611 806.648 527.081 806.116 527.687 805.733C528.293 805.35 529.007 805.159 529.829 805.159C530.492 805.159 531.082 805.282 531.601 805.528C532.12 805.771 532.539 806.112 532.857 806.551C533.179 806.991 533.37 807.504 533.431 808.091H531.778C531.687 807.682 531.478 807.33 531.153 807.034C530.831 806.739 530.399 806.591 529.857 806.591C529.384 806.591 528.969 806.716 528.613 806.966C528.261 807.212 527.986 807.564 527.789 808.023C527.592 808.477 527.493 809.015 527.493 809.636C527.493 810.273 527.59 810.822 527.783 811.284C527.976 811.746 528.249 812.104 528.601 812.358C528.957 812.612 529.376 812.739 529.857 812.739C530.179 812.739 530.471 812.68 530.732 812.562C530.997 812.441 531.219 812.269 531.397 812.045C531.579 811.822 531.706 811.553 531.778 811.239H533.431C533.37 811.803 533.187 812.307 532.88 812.75C532.573 813.193 532.162 813.542 531.647 813.795C531.136 814.049 530.535 814.176 529.846 814.176ZM536.771 808.818V814H535.072V802.364H536.748V806.693H536.856C537.06 806.223 537.373 805.85 537.793 805.574C538.214 805.297 538.763 805.159 539.441 805.159C540.04 805.159 540.562 805.282 541.009 805.528C541.46 805.775 541.808 806.142 542.055 806.631C542.305 807.116 542.43 807.722 542.43 808.449V814H540.731V808.653C540.731 808.013 540.566 807.517 540.237 807.165C539.907 806.809 539.449 806.631 538.862 806.631C538.46 806.631 538.1 806.716 537.782 806.886C537.468 807.057 537.219 807.307 537.038 807.636C536.86 807.962 536.771 808.356 536.771 808.818ZM548.197 814.176C547.379 814.176 546.665 813.989 546.055 813.614C545.445 813.239 544.971 812.714 544.634 812.04C544.297 811.366 544.129 810.578 544.129 809.676C544.129 808.771 544.297 807.979 544.634 807.301C544.971 806.623 545.445 806.097 546.055 805.722C546.665 805.347 547.379 805.159 548.197 805.159C549.015 805.159 549.729 805.347 550.339 805.722C550.949 806.097 551.422 806.623 551.759 807.301C552.096 807.979 552.265 808.771 552.265 809.676C552.265 810.578 552.096 811.366 551.759 812.04C551.422 812.714 550.949 813.239 550.339 813.614C549.729 813.989 549.015 814.176 548.197 814.176ZM548.203 812.75C548.733 812.75 549.172 812.61 549.521 812.33C549.869 812.049 550.127 811.676 550.293 811.21C550.464 810.744 550.549 810.231 550.549 809.67C550.549 809.114 550.464 808.602 550.293 808.136C550.127 807.667 549.869 807.29 549.521 807.006C549.172 806.722 548.733 806.58 548.203 806.58C547.668 806.58 547.225 806.722 546.873 807.006C546.525 807.29 546.265 807.667 546.095 808.136C545.928 808.602 545.845 809.114 545.845 809.67C545.845 810.231 545.928 810.744 546.095 811.21C546.265 811.676 546.525 812.049 546.873 812.33C547.225 812.61 547.668 812.75 548.203 812.75ZM553.985 814V805.273H555.627V806.659H555.718C555.877 806.189 556.158 805.82 556.559 805.551C556.965 805.278 557.423 805.142 557.934 805.142C558.04 805.142 558.165 805.146 558.309 805.153C558.457 805.161 558.572 805.17 558.656 805.182V806.807C558.588 806.788 558.466 806.767 558.292 806.744C558.118 806.718 557.944 806.705 557.769 806.705C557.368 806.705 557.01 806.79 556.696 806.96C556.385 807.127 556.139 807.36 555.957 807.659C555.775 807.955 555.684 808.292 555.684 808.67V814H553.985ZM566.49 807.403L564.95 807.676C564.886 807.479 564.783 807.292 564.643 807.114C564.507 806.936 564.321 806.79 564.086 806.676C563.851 806.562 563.558 806.506 563.206 806.506C562.725 806.506 562.323 806.614 562.001 806.83C561.679 807.042 561.518 807.316 561.518 807.653C561.518 807.945 561.626 808.18 561.842 808.358C562.058 808.536 562.406 808.682 562.887 808.795L564.274 809.114C565.077 809.299 565.675 809.585 566.069 809.972C566.463 810.358 566.66 810.86 566.66 811.477C566.66 812 566.509 812.466 566.206 812.875C565.906 813.28 565.488 813.598 564.95 813.83C564.416 814.061 563.797 814.176 563.092 814.176C562.115 814.176 561.317 813.968 560.7 813.551C560.083 813.131 559.704 812.534 559.564 811.761L561.206 811.511C561.308 811.939 561.518 812.263 561.836 812.483C562.155 812.699 562.569 812.807 563.081 812.807C563.637 812.807 564.083 812.691 564.416 812.46C564.749 812.225 564.916 811.939 564.916 811.602C564.916 811.33 564.814 811.1 564.609 810.915C564.408 810.729 564.1 810.589 563.683 810.494L562.206 810.17C561.391 809.985 560.789 809.689 560.399 809.284C560.012 808.879 559.819 808.366 559.819 807.744C559.819 807.229 559.963 806.778 560.251 806.392C560.539 806.006 560.937 805.705 561.444 805.489C561.952 805.269 562.533 805.159 563.189 805.159C564.132 805.159 564.874 805.364 565.416 805.773C565.958 806.178 566.316 806.722 566.49 807.403Z" fill="white"/>
<rect x="448" y="864" width="176" height="80" rx="6" fill="#F24822"/>
<path d="M476.817 910H474.954L479.141 898.364H481.17L485.357 910H483.493L480.204 900.477H480.113L476.817 910ZM477.13 905.443H483.175V906.92H477.13V905.443ZM488.424 904.818V910H486.725V901.273H488.356V902.693H488.464C488.665 902.231 488.979 901.86 489.407 901.58C489.839 901.299 490.382 901.159 491.038 901.159C491.632 901.159 492.153 901.284 492.6 901.534C493.047 901.78 493.394 902.148 493.64 902.636C493.886 903.125 494.009 903.729 494.009 904.449V910H492.31V904.653C492.31 904.021 492.146 903.527 491.816 903.17C491.487 902.811 491.034 902.631 490.458 902.631C490.064 902.631 489.714 902.716 489.407 902.886C489.104 903.057 488.863 903.307 488.685 903.636C488.511 903.962 488.424 904.356 488.424 904.818ZM497.811 904.818V910H496.112V901.273H497.742V902.693H497.85C498.051 902.231 498.365 901.86 498.793 901.58C499.225 901.299 499.769 901.159 500.424 901.159C501.019 901.159 501.54 901.284 501.987 901.534C502.434 901.78 502.78 902.148 503.026 902.636C503.273 903.125 503.396 903.729 503.396 904.449V910H501.697V904.653C501.697 904.021 501.532 903.527 501.203 903.17C500.873 902.811 500.42 902.631 499.845 902.631C499.451 902.631 499.1 902.716 498.793 902.886C498.49 903.057 498.25 903.307 498.072 903.636C497.898 903.962 497.811 904.356 497.811 904.818ZM509.174 910.176C508.356 910.176 507.642 909.989 507.032 909.614C506.422 909.239 505.949 908.714 505.612 908.04C505.275 907.366 505.106 906.578 505.106 905.676C505.106 904.771 505.275 903.979 505.612 903.301C505.949 902.623 506.422 902.097 507.032 901.722C507.642 901.347 508.356 901.159 509.174 901.159C509.992 901.159 510.707 901.347 511.316 901.722C511.926 902.097 512.4 902.623 512.737 903.301C513.074 903.979 513.242 904.771 513.242 905.676C513.242 906.578 513.074 907.366 512.737 908.04C512.4 908.714 511.926 909.239 511.316 909.614C510.707 909.989 509.992 910.176 509.174 910.176ZM509.18 908.75C509.71 908.75 510.15 908.61 510.498 908.33C510.847 908.049 511.104 907.676 511.271 907.21C511.441 906.744 511.527 906.231 511.527 905.67C511.527 905.114 511.441 904.602 511.271 904.136C511.104 903.667 510.847 903.29 510.498 903.006C510.15 902.722 509.71 902.58 509.18 902.58C508.646 902.58 508.203 902.722 507.85 903.006C507.502 903.29 507.242 903.667 507.072 904.136C506.905 904.602 506.822 905.114 506.822 905.67C506.822 906.231 506.905 906.744 507.072 907.21C507.242 907.676 507.502 908.049 507.85 908.33C508.203 908.61 508.646 908.75 509.18 908.75ZM520.491 906.381V901.273H522.196V910H520.525V908.489H520.434C520.234 908.955 519.912 909.343 519.468 909.653C519.029 909.96 518.482 910.114 517.826 910.114C517.266 910.114 516.77 909.991 516.338 909.744C515.91 909.494 515.573 909.125 515.326 908.636C515.084 908.148 514.963 907.544 514.963 906.824V901.273H516.662V906.619C516.662 907.214 516.826 907.687 517.156 908.04C517.486 908.392 517.914 908.568 518.44 908.568C518.758 908.568 519.075 908.489 519.389 908.33C519.707 908.17 519.97 907.93 520.179 907.608C520.391 907.286 520.495 906.877 520.491 906.381ZM526.001 904.818V910H524.302V901.273H525.933V902.693H526.041C526.242 902.231 526.556 901.86 526.984 901.58C527.416 901.299 527.96 901.159 528.615 901.159C529.21 901.159 529.73 901.284 530.177 901.534C530.624 901.78 530.971 902.148 531.217 902.636C531.463 903.125 531.587 903.729 531.587 904.449V910H529.888V904.653C529.888 904.021 529.723 903.527 529.393 903.17C529.064 902.811 528.611 902.631 528.035 902.631C527.641 902.631 527.291 902.716 526.984 902.886C526.681 903.057 526.441 903.307 526.263 903.636C526.088 903.962 526.001 904.356 526.001 904.818ZM537.365 910.176C536.52 910.176 535.793 909.985 535.183 909.602C534.577 909.216 534.111 908.684 533.786 908.006C533.46 907.328 533.297 906.551 533.297 905.676C533.297 904.79 533.464 904.008 533.797 903.33C534.13 902.648 534.6 902.116 535.206 901.733C535.812 901.35 536.526 901.159 537.348 901.159C538.011 901.159 538.602 901.282 539.121 901.528C539.64 901.771 540.058 902.112 540.376 902.551C540.698 902.991 540.89 903.504 540.95 904.091H539.297C539.206 903.682 538.998 903.33 538.672 903.034C538.35 902.739 537.918 902.591 537.376 902.591C536.903 902.591 536.488 902.716 536.132 902.966C535.78 903.212 535.505 903.564 535.308 904.023C535.111 904.477 535.013 905.015 535.013 905.636C535.013 906.273 535.109 906.822 535.303 907.284C535.496 907.746 535.768 908.104 536.121 908.358C536.477 908.612 536.895 908.739 537.376 908.739C537.698 908.739 537.99 908.68 538.251 908.562C538.517 908.441 538.738 908.269 538.916 908.045C539.098 907.822 539.225 907.553 539.297 907.239H540.95C540.89 907.803 540.706 908.307 540.399 908.75C540.092 909.193 539.681 909.542 539.166 909.795C538.655 910.049 538.054 910.176 537.365 910.176ZM546.352 910.176C545.493 910.176 544.752 909.992 544.131 909.625C543.513 909.254 543.036 908.733 542.699 908.062C542.366 907.388 542.199 906.598 542.199 905.693C542.199 904.799 542.366 904.011 542.699 903.33C543.036 902.648 543.506 902.116 544.108 901.733C544.714 901.35 545.422 901.159 546.233 901.159C546.726 901.159 547.203 901.241 547.665 901.403C548.127 901.566 548.542 901.822 548.909 902.17C549.277 902.519 549.566 902.972 549.779 903.528C549.991 904.081 550.097 904.754 550.097 905.545V906.148H543.159V904.875H548.432C548.432 904.428 548.341 904.032 548.159 903.688C547.977 903.339 547.722 903.064 547.392 902.864C547.066 902.663 546.684 902.562 546.244 902.562C545.767 902.562 545.351 902.68 544.994 902.915C544.642 903.146 544.369 903.449 544.176 903.824C543.987 904.195 543.892 904.598 543.892 905.034V906.028C543.892 906.612 543.994 907.108 544.199 907.517C544.407 907.926 544.697 908.239 545.068 908.455C545.44 908.667 545.873 908.773 546.369 908.773C546.691 908.773 546.985 908.727 547.25 908.636C547.515 908.542 547.744 908.402 547.938 908.216C548.131 908.03 548.279 907.801 548.381 907.528L549.989 907.818C549.86 908.292 549.629 908.706 549.296 909.062C548.966 909.415 548.551 909.689 548.051 909.886C547.555 910.08 546.989 910.176 546.352 910.176ZM551.806 910V901.273H553.436V902.693H553.544C553.726 902.212 554.023 901.837 554.436 901.568C554.849 901.295 555.344 901.159 555.919 901.159C556.503 901.159 556.991 901.295 557.385 901.568C557.783 901.841 558.077 902.216 558.266 902.693H558.357C558.565 902.227 558.897 901.856 559.351 901.58C559.806 901.299 560.347 901.159 560.976 901.159C561.768 901.159 562.414 901.407 562.914 901.903C563.417 902.4 563.669 903.148 563.669 904.148V910H561.97V904.307C561.97 903.716 561.809 903.288 561.487 903.023C561.166 902.758 560.781 902.625 560.334 902.625C559.781 902.625 559.351 902.795 559.044 903.136C558.737 903.473 558.584 903.907 558.584 904.438V910H556.891V904.199C556.891 903.725 556.743 903.345 556.448 903.057C556.152 902.769 555.768 902.625 555.294 902.625C554.972 902.625 554.675 902.71 554.402 902.881C554.133 903.047 553.916 903.28 553.749 903.58C553.586 903.879 553.505 904.225 553.505 904.619V910H551.806ZM569.532 910.176C568.672 910.176 567.931 909.992 567.31 909.625C566.693 909.254 566.215 908.733 565.878 908.062C565.545 907.388 565.378 906.598 565.378 905.693C565.378 904.799 565.545 904.011 565.878 903.33C566.215 902.648 566.685 902.116 567.287 901.733C567.893 901.35 568.602 901.159 569.412 901.159C569.905 901.159 570.382 901.241 570.844 901.403C571.306 901.566 571.721 901.822 572.088 902.17C572.456 902.519 572.746 902.972 572.958 903.528C573.17 904.081 573.276 904.754 573.276 905.545V906.148H566.338V904.875H571.611C571.611 904.428 571.52 904.032 571.338 903.688C571.157 903.339 570.901 903.064 570.571 902.864C570.246 902.663 569.863 902.562 569.424 902.562C568.946 902.562 568.53 902.68 568.174 902.915C567.821 903.146 567.549 903.449 567.356 903.824C567.166 904.195 567.071 904.598 567.071 905.034V906.028C567.071 906.612 567.174 907.108 567.378 907.517C567.587 907.926 567.876 908.239 568.248 908.455C568.619 908.667 569.052 908.773 569.549 908.773C569.871 908.773 570.164 908.727 570.429 908.636C570.695 908.542 570.924 908.402 571.117 908.216C571.31 908.03 571.458 907.801 571.56 907.528L573.168 907.818C573.039 908.292 572.808 908.706 572.475 909.062C572.145 909.415 571.731 909.689 571.231 909.886C570.734 910.08 570.168 910.176 569.532 910.176ZM576.684 904.818V910H574.985V901.273H576.616V902.693H576.724C576.924 902.231 577.239 901.86 577.667 901.58C578.099 901.299 578.642 901.159 579.297 901.159C579.892 901.159 580.413 901.284 580.86 901.534C581.307 901.78 581.653 902.148 581.9 902.636C582.146 903.125 582.269 903.729 582.269 904.449V910H580.57V904.653C580.57 904.021 580.405 903.527 580.076 903.17C579.746 902.811 579.294 902.631 578.718 902.631C578.324 902.631 577.974 902.716 577.667 902.886C577.364 903.057 577.123 903.307 576.945 903.636C576.771 903.962 576.684 904.356 576.684 904.818ZM588.445 901.273V902.636H583.678V901.273H588.445ZM584.957 899.182H586.656V907.438C586.656 907.767 586.705 908.015 586.803 908.182C586.902 908.345 587.029 908.456 587.184 908.517C587.343 908.574 587.515 908.602 587.701 908.602C587.837 908.602 587.957 908.593 588.059 908.574C588.161 908.555 588.241 908.54 588.298 908.528L588.604 909.932C588.506 909.97 588.366 910.008 588.184 910.045C588.002 910.087 587.775 910.11 587.502 910.114C587.055 910.121 586.638 910.042 586.252 909.875C585.866 909.708 585.553 909.451 585.315 909.102C585.076 908.754 584.957 908.316 584.957 907.79V899.182ZM596.548 903.403L595.008 903.676C594.944 903.479 594.841 903.292 594.701 903.114C594.565 902.936 594.379 902.79 594.144 902.676C593.909 902.562 593.616 902.506 593.264 902.506C592.783 902.506 592.381 902.614 592.059 902.83C591.737 903.042 591.576 903.316 591.576 903.653C591.576 903.945 591.684 904.18 591.9 904.358C592.116 904.536 592.464 904.682 592.945 904.795L594.332 905.114C595.135 905.299 595.733 905.585 596.127 905.972C596.521 906.358 596.718 906.86 596.718 907.477C596.718 908 596.567 908.466 596.264 908.875C595.964 909.28 595.546 909.598 595.008 909.83C594.474 910.061 593.855 910.176 593.15 910.176C592.173 910.176 591.375 909.968 590.758 909.551C590.14 909.131 589.762 908.534 589.622 907.761L591.264 907.511C591.366 907.939 591.576 908.263 591.894 908.483C592.212 908.699 592.627 908.807 593.139 908.807C593.695 908.807 594.14 908.691 594.474 908.46C594.807 908.225 594.974 907.939 594.974 907.602C594.974 907.33 594.872 907.1 594.667 906.915C594.466 906.729 594.158 906.589 593.741 906.494L592.264 906.17C591.449 905.985 590.847 905.689 590.457 905.284C590.07 904.879 589.877 904.366 589.877 903.744C589.877 903.229 590.021 902.778 590.309 902.392C590.597 902.006 590.995 901.705 591.502 901.489C592.01 901.269 592.591 901.159 593.247 901.159C594.19 901.159 594.932 901.364 595.474 901.773C596.015 902.178 596.373 902.722 596.548 903.403Z" fill="white"/>
<rect x="448" y="1056" width="176" height="80" rx="6" fill="#14AE5C"/>
<path d="M505.718 1093.42C505.657 1092.88 505.407 1092.47 504.968 1092.17C504.528 1091.87 503.975 1091.72 503.308 1091.72C502.831 1091.72 502.418 1091.8 502.07 1091.95C501.721 1092.1 501.451 1092.3 501.257 1092.56C501.068 1092.82 500.973 1093.11 500.973 1093.44C500.973 1093.72 501.038 1093.96 501.166 1094.16C501.299 1094.36 501.471 1094.53 501.683 1094.66C501.899 1094.8 502.13 1094.91 502.377 1095C502.623 1095.09 502.86 1095.16 503.087 1095.22L504.223 1095.51C504.594 1095.6 504.975 1095.73 505.365 1095.88C505.755 1096.04 506.117 1096.24 506.451 1096.49C506.784 1096.75 507.053 1097.06 507.257 1097.44C507.466 1097.81 507.57 1098.26 507.57 1098.78C507.57 1099.44 507.399 1100.03 507.058 1100.54C506.721 1101.05 506.231 1101.45 505.587 1101.75C504.947 1102.05 504.172 1102.19 503.263 1102.19C502.392 1102.19 501.638 1102.05 501.002 1101.78C500.365 1101.5 499.867 1101.11 499.507 1100.6C499.147 1100.09 498.949 1099.48 498.911 1098.78H500.672C500.706 1099.2 500.843 1099.55 501.081 1099.84C501.324 1100.11 501.632 1100.32 502.007 1100.45C502.386 1100.59 502.801 1100.65 503.252 1100.65C503.748 1100.65 504.189 1100.58 504.576 1100.42C504.966 1100.26 505.272 1100.04 505.496 1099.76C505.719 1099.48 505.831 1099.15 505.831 1098.77C505.831 1098.42 505.733 1098.14 505.536 1097.92C505.343 1097.7 505.079 1097.52 504.746 1097.38C504.416 1097.23 504.043 1097.1 503.627 1096.99L502.252 1096.62C501.32 1096.37 500.581 1095.99 500.036 1095.5C499.494 1095.01 499.223 1094.36 499.223 1093.55C499.223 1092.87 499.405 1092.29 499.769 1091.79C500.132 1091.29 500.625 1090.9 501.246 1090.62C501.867 1090.34 502.568 1090.2 503.348 1090.2C504.136 1090.2 504.831 1090.34 505.433 1090.62C506.04 1090.9 506.517 1091.28 506.865 1091.76C507.214 1092.24 507.396 1092.8 507.411 1093.42H505.718ZM513.117 1102.18C512.257 1102.18 511.516 1101.99 510.895 1101.62C510.278 1101.25 509.801 1100.73 509.463 1100.06C509.13 1099.39 508.963 1098.6 508.963 1097.69C508.963 1096.8 509.13 1096.01 509.463 1095.33C509.801 1094.65 510.27 1094.12 510.873 1093.73C511.479 1093.35 512.187 1093.16 512.998 1093.16C513.49 1093.16 513.967 1093.24 514.429 1093.4C514.891 1093.57 515.306 1093.82 515.674 1094.17C516.041 1094.52 516.331 1094.97 516.543 1095.53C516.755 1096.08 516.861 1096.75 516.861 1097.55V1098.15H509.924V1096.88H515.196C515.196 1096.43 515.105 1096.03 514.924 1095.69C514.742 1095.34 514.486 1095.06 514.157 1094.86C513.831 1094.66 513.448 1094.56 513.009 1094.56C512.532 1094.56 512.115 1094.68 511.759 1094.91C511.407 1095.15 511.134 1095.45 510.941 1095.82C510.751 1096.2 510.657 1096.6 510.657 1097.03V1098.03C510.657 1098.61 510.759 1099.11 510.963 1099.52C511.172 1099.93 511.462 1100.24 511.833 1100.45C512.204 1100.67 512.638 1100.77 513.134 1100.77C513.456 1100.77 513.749 1100.73 514.015 1100.64C514.28 1100.54 514.509 1100.4 514.702 1100.22C514.895 1100.03 515.043 1099.8 515.145 1099.53L516.753 1099.82C516.624 1100.29 516.393 1100.71 516.06 1101.06C515.73 1101.41 515.316 1101.69 514.816 1101.89C514.32 1102.08 513.753 1102.18 513.117 1102.18ZM522.229 1105.45C521.536 1105.45 520.939 1105.36 520.439 1105.18C519.943 1105 519.538 1104.76 519.224 1104.46C518.909 1104.16 518.674 1103.83 518.519 1103.48L519.979 1102.88C520.081 1103.04 520.218 1103.22 520.388 1103.4C520.563 1103.59 520.797 1103.75 521.093 1103.89C521.392 1104.02 521.777 1104.09 522.246 1104.09C522.89 1104.09 523.422 1103.93 523.843 1103.61C524.263 1103.3 524.474 1102.81 524.474 1102.12V1100.41H524.366C524.263 1100.59 524.116 1100.8 523.922 1101.03C523.733 1101.26 523.472 1101.45 523.138 1101.62C522.805 1101.79 522.371 1101.87 521.837 1101.87C521.148 1101.87 520.527 1101.71 519.974 1101.39C519.424 1101.06 518.989 1100.58 518.667 1099.95C518.349 1099.31 518.189 1098.53 518.189 1097.6C518.189 1096.67 518.347 1095.88 518.661 1095.22C518.979 1094.55 519.415 1094.05 519.968 1093.69C520.521 1093.34 521.148 1093.16 521.849 1093.16C522.39 1093.16 522.828 1093.25 523.161 1093.43C523.494 1093.61 523.754 1093.82 523.939 1094.06C524.129 1094.3 524.275 1094.51 524.377 1094.69H524.502V1093.27H526.167V1102.19C526.167 1102.94 525.992 1103.56 525.644 1104.04C525.295 1104.52 524.824 1104.88 524.229 1105.11C523.638 1105.34 522.972 1105.45 522.229 1105.45ZM522.212 1100.46C522.701 1100.46 523.114 1100.35 523.451 1100.12C523.792 1099.89 524.049 1099.56 524.224 1099.13C524.402 1098.7 524.491 1098.18 524.491 1097.58C524.491 1096.99 524.403 1096.48 524.229 1096.03C524.055 1095.58 523.799 1095.23 523.462 1094.98C523.125 1094.73 522.708 1094.6 522.212 1094.6C521.701 1094.6 521.275 1094.73 520.934 1095C520.593 1095.26 520.335 1095.62 520.161 1096.07C519.991 1096.52 519.905 1097.02 519.905 1097.58C519.905 1098.15 519.992 1098.65 520.167 1099.09C520.341 1099.52 520.599 1099.85 520.939 1100.1C521.284 1100.34 521.708 1100.46 522.212 1100.46ZM528.269 1102V1093.27H529.9V1094.69H530.008C530.19 1094.21 530.487 1093.84 530.9 1093.57C531.313 1093.3 531.807 1093.16 532.383 1093.16C532.966 1093.16 533.455 1093.3 533.849 1093.57C534.246 1093.84 534.54 1094.22 534.729 1094.69H534.82C535.029 1094.23 535.36 1093.86 535.815 1093.58C536.269 1093.3 536.811 1093.16 537.44 1093.16C538.231 1093.16 538.877 1093.41 539.377 1093.9C539.881 1094.4 540.133 1095.15 540.133 1096.15V1102H538.434V1096.31C538.434 1095.72 538.273 1095.29 537.951 1095.02C537.629 1094.76 537.244 1094.62 536.798 1094.62C536.244 1094.62 535.815 1094.8 535.508 1095.14C535.201 1095.47 535.048 1095.91 535.048 1096.44V1102H533.354V1096.2C533.354 1095.73 533.207 1095.34 532.911 1095.06C532.616 1094.77 532.231 1094.62 531.758 1094.62C531.436 1094.62 531.138 1094.71 530.866 1094.88C530.597 1095.05 530.379 1095.28 530.212 1095.58C530.049 1095.88 529.968 1096.23 529.968 1096.62V1102H528.269ZM545.995 1102.18C545.135 1102.18 544.395 1101.99 543.774 1101.62C543.156 1101.25 542.679 1100.73 542.342 1100.06C542.008 1099.39 541.842 1098.6 541.842 1097.69C541.842 1096.8 542.008 1096.01 542.342 1095.33C542.679 1094.65 543.149 1094.12 543.751 1093.73C544.357 1093.35 545.065 1093.16 545.876 1093.16C546.368 1093.16 546.845 1093.24 547.308 1093.4C547.77 1093.57 548.184 1093.82 548.552 1094.17C548.919 1094.52 549.209 1094.97 549.421 1095.53C549.633 1096.08 549.739 1096.75 549.739 1097.55V1098.15H542.802V1096.88H548.075C548.075 1096.43 547.984 1096.03 547.802 1095.69C547.62 1095.34 547.364 1095.06 547.035 1094.86C546.709 1094.66 546.327 1094.56 545.887 1094.56C545.41 1094.56 544.993 1094.68 544.637 1094.91C544.285 1095.15 544.012 1095.45 543.819 1095.82C543.63 1096.2 543.535 1096.6 543.535 1097.03V1098.03C543.535 1098.61 543.637 1099.11 543.842 1099.52C544.05 1099.93 544.34 1100.24 544.711 1100.45C545.082 1100.67 545.516 1100.77 546.012 1100.77C546.334 1100.77 546.628 1100.73 546.893 1100.64C547.158 1100.54 547.387 1100.4 547.58 1100.22C547.774 1100.03 547.921 1099.8 548.024 1099.53L549.631 1099.82C549.503 1100.29 549.272 1100.71 548.938 1101.06C548.609 1101.41 548.194 1101.69 547.694 1101.89C547.198 1102.08 546.631 1102.18 545.995 1102.18ZM553.147 1096.82V1102H551.448V1093.27H553.079V1094.69H553.187C553.388 1094.23 553.702 1093.86 554.13 1093.58C554.562 1093.3 555.106 1093.16 555.761 1093.16C556.356 1093.16 556.876 1093.28 557.323 1093.53C557.77 1093.78 558.117 1094.15 558.363 1094.64C558.609 1095.12 558.732 1095.73 558.732 1096.45V1102H557.034V1096.65C557.034 1096.02 556.869 1095.53 556.539 1095.17C556.21 1094.81 555.757 1094.63 555.181 1094.63C554.787 1094.63 554.437 1094.72 554.13 1094.89C553.827 1095.06 553.587 1095.31 553.409 1095.64C553.234 1095.96 553.147 1096.36 553.147 1096.82ZM564.909 1093.27V1094.64H560.142V1093.27H564.909ZM561.42 1091.18H563.119V1099.44C563.119 1099.77 563.168 1100.02 563.267 1100.18C563.365 1100.34 563.492 1100.46 563.647 1100.52C563.806 1100.57 563.979 1100.6 564.164 1100.6C564.301 1100.6 564.42 1100.59 564.522 1100.57C564.625 1100.55 564.704 1100.54 564.761 1100.53L565.068 1101.93C564.969 1101.97 564.829 1102.01 564.647 1102.05C564.466 1102.09 564.238 1102.11 563.966 1102.11C563.519 1102.12 563.102 1102.04 562.716 1101.88C562.329 1101.71 562.017 1101.45 561.778 1101.1C561.539 1100.75 561.42 1100.32 561.42 1099.79V1091.18ZM573.011 1095.4L571.471 1095.68C571.407 1095.48 571.305 1095.29 571.165 1095.11C571.028 1094.94 570.843 1094.79 570.608 1094.68C570.373 1094.56 570.079 1094.51 569.727 1094.51C569.246 1094.51 568.844 1094.61 568.522 1094.83C568.201 1095.04 568.04 1095.32 568.04 1095.65C568.04 1095.95 568.147 1096.18 568.363 1096.36C568.579 1096.54 568.928 1096.68 569.409 1096.8L570.795 1097.11C571.598 1097.3 572.197 1097.59 572.591 1097.97C572.985 1098.36 573.182 1098.86 573.182 1099.48C573.182 1100 573.03 1100.47 572.727 1100.88C572.428 1101.28 572.009 1101.6 571.471 1101.83C570.937 1102.06 570.318 1102.18 569.613 1102.18C568.636 1102.18 567.839 1101.97 567.221 1101.55C566.604 1101.13 566.225 1100.53 566.085 1099.76L567.727 1099.51C567.829 1099.94 568.04 1100.26 568.358 1100.48C568.676 1100.7 569.091 1100.81 569.602 1100.81C570.159 1100.81 570.604 1100.69 570.937 1100.46C571.271 1100.23 571.437 1099.94 571.437 1099.6C571.437 1099.33 571.335 1099.1 571.13 1098.91C570.93 1098.73 570.621 1098.59 570.204 1098.49L568.727 1098.17C567.913 1097.98 567.31 1097.69 566.92 1097.28C566.534 1096.88 566.341 1096.37 566.341 1095.74C566.341 1095.23 566.485 1094.78 566.772 1094.39C567.06 1094.01 567.458 1093.7 567.966 1093.49C568.473 1093.27 569.055 1093.16 569.71 1093.16C570.653 1093.16 571.396 1093.36 571.937 1093.77C572.479 1094.18 572.837 1094.72 573.011 1095.4Z" fill="white"/>
<rect x="448" y="960" width="176" height="80" rx="6" fill="#F24822"/>
<path d="M518.635 997.42C518.575 996.883 518.325 996.466 517.885 996.17C517.446 995.871 516.893 995.722 516.226 995.722C515.749 995.722 515.336 995.797 514.988 995.949C514.639 996.097 514.368 996.301 514.175 996.562C513.986 996.82 513.891 997.114 513.891 997.443C513.891 997.72 513.955 997.958 514.084 998.159C514.217 998.36 514.389 998.528 514.601 998.665C514.817 998.797 515.048 998.909 515.294 999C515.541 999.087 515.777 999.159 516.005 999.216L517.141 999.511C517.512 999.602 517.893 999.725 518.283 999.881C518.673 1000.04 519.035 1000.24 519.368 1000.49C519.702 1000.75 519.971 1001.06 520.175 1001.44C520.383 1001.81 520.488 1002.26 520.488 1002.78C520.488 1003.44 520.317 1004.03 519.976 1004.54C519.639 1005.05 519.149 1005.45 518.505 1005.75C517.864 1006.05 517.09 1006.19 516.181 1006.19C515.31 1006.19 514.556 1006.05 513.919 1005.78C513.283 1005.5 512.785 1005.11 512.425 1004.6C512.065 1004.09 511.866 1003.48 511.828 1002.78H513.59C513.624 1003.2 513.76 1003.55 513.999 1003.84C514.241 1004.11 514.55 1004.32 514.925 1004.45C515.304 1004.59 515.719 1004.65 516.169 1004.65C516.666 1004.65 517.107 1004.58 517.493 1004.42C517.883 1004.26 518.19 1004.04 518.414 1003.76C518.637 1003.48 518.749 1003.15 518.749 1002.77C518.749 1002.42 518.65 1002.14 518.453 1001.92C518.26 1001.7 517.997 1001.52 517.664 1001.38C517.334 1001.23 516.961 1001.1 516.544 1000.99L515.169 1000.62C514.238 1000.37 513.499 999.992 512.953 999.5C512.412 999.008 512.141 998.356 512.141 997.545C512.141 996.875 512.323 996.29 512.686 995.79C513.05 995.29 513.543 994.902 514.164 994.625C514.785 994.345 515.486 994.205 516.266 994.205C517.054 994.205 517.749 994.343 518.351 994.619C518.957 994.896 519.435 995.277 519.783 995.761C520.132 996.242 520.313 996.795 520.328 997.42H518.635ZM522.273 1009.27V997.273H523.932V998.688H524.074C524.173 998.506 524.315 998.295 524.501 998.057C524.686 997.818 524.944 997.61 525.273 997.432C525.603 997.25 526.038 997.159 526.58 997.159C527.285 997.159 527.913 997.337 528.466 997.693C529.019 998.049 529.453 998.562 529.768 999.233C530.086 999.903 530.245 1000.71 530.245 1001.65C530.245 1002.6 530.088 1003.41 529.773 1004.08C529.459 1004.75 529.027 1005.27 528.478 1005.63C527.929 1005.99 527.302 1006.17 526.597 1006.17C526.067 1006.17 525.633 1006.08 525.296 1005.9C524.963 1005.73 524.701 1005.52 524.512 1005.28C524.322 1005.04 524.177 1004.83 524.074 1004.64H523.972V1009.27H522.273ZM523.938 1001.64C523.938 1002.25 524.027 1002.79 524.205 1003.25C524.383 1003.71 524.641 1004.07 524.978 1004.34C525.315 1004.59 525.728 1004.72 526.216 1004.72C526.724 1004.72 527.148 1004.59 527.489 1004.32C527.83 1004.05 528.088 1003.68 528.262 1003.21C528.44 1002.74 528.529 1002.22 528.529 1001.64C528.529 1001.06 528.442 1000.54 528.268 1000.09C528.097 999.627 527.84 999.265 527.495 999C527.154 998.735 526.728 998.602 526.216 998.602C525.724 998.602 525.307 998.729 524.966 998.983C524.629 999.237 524.374 999.591 524.199 1000.05C524.025 1000.5 523.938 1001.03 523.938 1001.64ZM535.648 1006.18C534.83 1006.18 534.116 1005.99 533.506 1005.61C532.896 1005.24 532.423 1004.71 532.086 1004.04C531.749 1003.37 531.58 1002.58 531.58 1001.68C531.58 1000.77 531.749 999.979 532.086 999.301C532.423 998.623 532.896 998.097 533.506 997.722C534.116 997.347 534.83 997.159 535.648 997.159C536.467 997.159 537.181 997.347 537.79 997.722C538.4 998.097 538.874 998.623 539.211 999.301C539.548 999.979 539.717 1000.77 539.717 1001.68C539.717 1002.58 539.548 1003.37 539.211 1004.04C538.874 1004.71 538.4 1005.24 537.79 1005.61C537.181 1005.99 536.467 1006.18 535.648 1006.18ZM535.654 1004.75C536.184 1004.75 536.624 1004.61 536.972 1004.33C537.321 1004.05 537.578 1003.68 537.745 1003.21C537.915 1002.74 538.001 1002.23 538.001 1001.67C538.001 1001.11 537.915 1000.6 537.745 1000.14C537.578 999.667 537.321 999.29 536.972 999.006C536.624 998.722 536.184 998.58 535.654 998.58C535.12 998.58 534.677 998.722 534.325 999.006C533.976 999.29 533.717 999.667 533.546 1000.14C533.379 1000.6 533.296 1001.11 533.296 1001.67C533.296 1002.23 533.379 1002.74 533.546 1003.21C533.717 1003.68 533.976 1004.05 534.325 1004.33C534.677 1004.61 535.12 1004.75 535.654 1004.75ZM541.437 1006V997.273H543.079V998.659H543.17C543.329 998.189 543.609 997.82 544.011 997.551C544.416 997.278 544.874 997.142 545.386 997.142C545.492 997.142 545.617 997.146 545.761 997.153C545.908 997.161 546.024 997.17 546.107 997.182V998.807C546.039 998.788 545.918 998.767 545.744 998.744C545.569 998.718 545.395 998.705 545.221 998.705C544.819 998.705 544.461 998.79 544.147 998.96C543.836 999.127 543.59 999.36 543.408 999.659C543.227 999.955 543.136 1000.29 543.136 1000.67V1006H541.437ZM551.991 997.273V998.636H547.224V997.273H551.991ZM548.502 995.182H550.201V1003.44C550.201 1003.77 550.25 1004.02 550.349 1004.18C550.447 1004.34 550.574 1004.46 550.73 1004.52C550.889 1004.57 551.061 1004.6 551.247 1004.6C551.383 1004.6 551.502 1004.59 551.605 1004.57C551.707 1004.55 551.786 1004.54 551.843 1004.53L552.15 1005.93C552.052 1005.97 551.911 1006.01 551.73 1006.05C551.548 1006.09 551.321 1006.11 551.048 1006.11C550.601 1006.12 550.184 1006.04 549.798 1005.88C549.411 1005.71 549.099 1005.45 548.86 1005.1C548.622 1004.75 548.502 1004.32 548.502 1003.79V995.182ZM560.093 999.403L558.554 999.676C558.489 999.479 558.387 999.292 558.247 999.114C558.11 998.936 557.925 998.79 557.69 998.676C557.455 998.562 557.162 998.506 556.809 998.506C556.328 998.506 555.927 998.614 555.605 998.83C555.283 999.042 555.122 999.316 555.122 999.653C555.122 999.945 555.23 1000.18 555.446 1000.36C555.662 1000.54 556.01 1000.68 556.491 1000.8L557.877 1001.11C558.68 1001.3 559.279 1001.59 559.673 1001.97C560.067 1002.36 560.264 1002.86 560.264 1003.48C560.264 1004 560.112 1004.47 559.809 1004.88C559.51 1005.28 559.091 1005.6 558.554 1005.83C558.02 1006.06 557.4 1006.18 556.696 1006.18C555.718 1006.18 554.921 1005.97 554.304 1005.55C553.686 1005.13 553.307 1004.53 553.167 1003.76L554.809 1003.51C554.912 1003.94 555.122 1004.26 555.44 1004.48C555.758 1004.7 556.173 1004.81 556.684 1004.81C557.241 1004.81 557.686 1004.69 558.02 1004.46C558.353 1004.23 558.52 1003.94 558.52 1003.6C558.52 1003.33 558.417 1003.1 558.213 1002.91C558.012 1002.73 557.703 1002.59 557.287 1002.49L555.809 1002.17C554.995 1001.98 554.393 1001.69 554.002 1001.28C553.616 1000.88 553.423 1000.37 553.423 999.744C553.423 999.229 553.567 998.778 553.855 998.392C554.143 998.006 554.54 997.705 555.048 997.489C555.555 997.269 556.137 997.159 556.792 997.159C557.735 997.159 558.478 997.364 559.02 997.773C559.561 998.178 559.919 998.722 560.093 999.403Z" fill="white"/>
<rect x="448" width="176" height="80" rx="6" fill="#F24822"/>
<path d="M499.565 46V34.3636H502.025V39.1648H507.019V34.3636H509.474V46H507.019V41.1932H502.025V46H499.565ZM513.77 46.1648C513.213 46.1648 512.717 46.0682 512.281 45.875C511.845 45.678 511.501 45.3883 511.247 45.0057C510.997 44.6193 510.872 44.1383 510.872 43.5625C510.872 43.0777 510.961 42.6705 511.139 42.3409C511.317 42.0114 511.559 41.7462 511.866 41.5455C512.173 41.3447 512.521 41.1932 512.912 41.0909C513.306 40.9886 513.718 40.9167 514.15 40.875C514.658 40.822 515.067 40.7727 515.378 40.7273C515.688 40.678 515.913 40.6061 516.054 40.5114C516.194 40.4167 516.264 40.2765 516.264 40.0909V40.0568C516.264 39.697 516.15 39.4186 515.923 39.2216C515.699 39.0246 515.381 38.9261 514.968 38.9261C514.533 38.9261 514.186 39.0227 513.929 39.2159C513.671 39.4053 513.501 39.6439 513.417 39.9318L511.179 39.75C511.292 39.2197 511.516 38.7614 511.849 38.375C512.182 37.9848 512.612 37.6856 513.139 37.4773C513.669 37.2652 514.283 37.1591 514.98 37.1591C515.465 37.1591 515.929 37.2159 516.372 37.3295C516.819 37.4432 517.215 37.6193 517.559 37.858C517.908 38.0966 518.182 38.4034 518.383 38.7784C518.584 39.1496 518.684 39.5947 518.684 40.1136V46H516.389V44.7898H516.321C516.181 45.0625 515.993 45.303 515.758 45.5114C515.523 45.7159 515.241 45.8769 514.912 45.9943C514.582 46.108 514.201 46.1648 513.77 46.1648ZM514.463 44.4943C514.819 44.4943 515.133 44.4242 515.406 44.2841C515.679 44.1402 515.893 43.947 516.048 43.7045C516.203 43.4621 516.281 43.1875 516.281 42.8807V41.9545C516.205 42.0038 516.101 42.0492 515.968 42.0909C515.84 42.1288 515.694 42.1648 515.531 42.1989C515.368 42.2292 515.205 42.2576 515.042 42.2841C514.879 42.3068 514.732 42.3277 514.599 42.3466C514.315 42.3883 514.067 42.4545 513.855 42.5455C513.643 42.6364 513.478 42.7595 513.36 42.9148C513.243 43.0663 513.184 43.2557 513.184 43.483C513.184 43.8125 513.304 44.0644 513.542 44.2386C513.785 44.4091 514.092 44.4943 514.463 44.4943ZM520.386 46V37.2727H522.733V38.7955H522.824C522.983 38.2538 523.25 37.8447 523.625 37.5682C524 37.2879 524.432 37.1477 524.92 37.1477C525.041 37.1477 525.172 37.1553 525.312 37.1705C525.452 37.1856 525.576 37.2064 525.682 37.233V39.3807C525.568 39.3466 525.411 39.3163 525.21 39.2898C525.009 39.2633 524.826 39.25 524.659 39.25C524.303 39.25 523.985 39.3277 523.704 39.483C523.428 39.6345 523.208 39.8466 523.045 40.1193C522.886 40.392 522.807 40.7064 522.807 41.0625V46H520.386ZM529.567 46.142C528.904 46.142 528.303 45.9716 527.766 45.6307C527.231 45.286 526.807 44.7803 526.493 44.1136C526.182 43.4432 526.027 42.6212 526.027 41.6477C526.027 40.6477 526.188 39.8163 526.51 39.1534C526.832 38.4867 527.26 37.9886 527.794 37.6591C528.332 37.3258 528.921 37.1591 529.561 37.1591C530.05 37.1591 530.457 37.2424 530.783 37.4091C531.112 37.572 531.377 37.7765 531.578 38.0227C531.783 38.2652 531.938 38.5038 532.044 38.7386H532.118V34.3636H534.533V46H532.146V44.6023H532.044C531.93 44.8447 531.769 45.0852 531.561 45.3239C531.356 45.5587 531.089 45.7538 530.76 45.9091C530.434 46.0644 530.036 46.142 529.567 46.142ZM530.334 44.2159C530.724 44.2159 531.053 44.1098 531.322 43.8977C531.595 43.6818 531.803 43.3807 531.947 42.9943C532.095 42.608 532.169 42.1553 532.169 41.6364C532.169 41.1174 532.097 40.6667 531.953 40.2841C531.809 39.9015 531.601 39.6061 531.328 39.3977C531.055 39.1894 530.724 39.0852 530.334 39.0852C529.936 39.0852 529.601 39.1932 529.328 39.4091C529.055 39.625 528.849 39.9242 528.709 40.3068C528.569 40.6894 528.499 41.1326 528.499 41.6364C528.499 42.1439 528.569 42.5928 528.709 42.983C528.853 43.3693 529.059 43.6723 529.328 43.892C529.601 44.108 529.936 44.2159 530.334 44.2159ZM538.068 46L535.693 37.2727H538.142L539.494 43.1364H539.574L540.983 37.2727H543.386L544.818 43.1023H544.892L546.222 37.2727H548.665L546.296 46H543.733L542.233 40.5114H542.125L540.625 46H538.068ZM552.269 46.1648C551.712 46.1648 551.216 46.0682 550.78 45.875C550.344 45.678 550 45.3883 549.746 45.0057C549.496 44.6193 549.371 44.1383 549.371 43.5625C549.371 43.0777 549.46 42.6705 549.638 42.3409C549.816 42.0114 550.058 41.7462 550.365 41.5455C550.672 41.3447 551.021 41.1932 551.411 41.0909C551.805 40.9886 552.218 40.9167 552.649 40.875C553.157 40.822 553.566 40.7727 553.877 40.7273C554.187 40.678 554.413 40.6061 554.553 40.5114C554.693 40.4167 554.763 40.2765 554.763 40.0909V40.0568C554.763 39.697 554.649 39.4186 554.422 39.2216C554.199 39.0246 553.88 38.9261 553.468 38.9261C553.032 38.9261 552.685 39.0227 552.428 39.2159C552.17 39.4053 552 39.6439 551.916 39.9318L549.678 39.75C549.791 39.2197 550.015 38.7614 550.348 38.375C550.682 37.9848 551.111 37.6856 551.638 37.4773C552.168 37.2652 552.782 37.1591 553.479 37.1591C553.964 37.1591 554.428 37.2159 554.871 37.3295C555.318 37.4432 555.714 37.6193 556.058 37.858C556.407 38.0966 556.682 38.4034 556.882 38.7784C557.083 39.1496 557.183 39.5947 557.183 40.1136V46H554.888V44.7898H554.82C554.68 45.0625 554.492 45.303 554.257 45.5114C554.022 45.7159 553.74 45.8769 553.411 45.9943C553.081 46.108 552.7 46.1648 552.269 46.1648ZM552.962 44.4943C553.318 44.4943 553.632 44.4242 553.905 44.2841C554.178 44.1402 554.392 43.947 554.547 43.7045C554.702 43.4621 554.78 43.1875 554.78 42.8807V41.9545C554.704 42.0038 554.6 42.0492 554.468 42.0909C554.339 42.1288 554.193 42.1648 554.03 42.1989C553.867 42.2292 553.704 42.2576 553.541 42.2841C553.379 42.3068 553.231 42.3277 553.098 42.3466C552.814 42.3883 552.566 42.4545 552.354 42.5455C552.142 42.6364 551.977 42.7595 551.86 42.9148C551.742 43.0663 551.683 43.2557 551.683 43.483C551.683 43.8125 551.803 44.0644 552.041 44.2386C552.284 44.4091 552.591 44.4943 552.962 44.4943ZM558.885 46V37.2727H561.232V38.7955H561.323C561.482 38.2538 561.749 37.8447 562.124 37.5682C562.499 37.2879 562.931 37.1477 563.419 37.1477C563.541 37.1477 563.671 37.1553 563.811 37.1705C563.952 37.1856 564.075 37.2064 564.181 37.233V39.3807C564.067 39.3466 563.91 39.3163 563.709 39.2898C563.508 39.2633 563.325 39.25 563.158 39.25C562.802 39.25 562.484 39.3277 562.203 39.483C561.927 39.6345 561.707 39.8466 561.544 40.1193C561.385 40.392 561.306 40.7064 561.306 41.0625V46H558.885ZM568.827 46.1705C567.929 46.1705 567.157 45.9886 566.509 45.625C565.865 45.2576 565.369 44.7386 565.02 44.0682C564.672 43.3939 564.498 42.5966 564.498 41.6761C564.498 40.7784 564.672 39.9905 565.02 39.3125C565.369 38.6345 565.859 38.1061 566.492 37.7273C567.128 37.3485 567.875 37.1591 568.731 37.1591C569.306 37.1591 569.842 37.2519 570.339 37.4375C570.839 37.6193 571.274 37.8939 571.645 38.2614C572.02 38.6288 572.312 39.0909 572.52 39.6477C572.729 40.2008 572.833 40.8485 572.833 41.5909V42.2557H565.464V40.7557H570.554C570.554 40.4072 570.479 40.0985 570.327 39.8295C570.176 39.5606 569.965 39.3504 569.697 39.1989C569.431 39.0436 569.123 38.9659 568.77 38.9659C568.403 38.9659 568.077 39.0511 567.793 39.2216C567.513 39.3883 567.293 39.6136 567.134 39.8977C566.975 40.178 566.893 40.4905 566.89 40.8352V42.2614C566.89 42.6932 566.969 43.0663 567.128 43.3807C567.291 43.6951 567.52 43.9375 567.816 44.108C568.111 44.2784 568.462 44.3636 568.867 44.3636C569.136 44.3636 569.382 44.3258 569.606 44.25C569.829 44.1742 570.02 44.0606 570.179 43.9091C570.339 43.7576 570.46 43.572 570.543 43.3523L572.782 43.5C572.668 44.0379 572.435 44.5076 572.083 44.9091C571.734 45.3068 571.284 45.6174 570.731 45.8409C570.181 46.0606 569.547 46.1705 568.827 46.1705Z" fill="white"/>
<rect x="448" y="560" width="176" height="80" rx="6" fill="#FFCD29"/>
<path d="M515.824 606V594.364H520.415C521.294 594.364 522.044 594.521 522.665 594.835C523.29 595.146 523.766 595.587 524.091 596.159C524.421 596.727 524.586 597.396 524.586 598.165C524.586 598.937 524.419 599.602 524.086 600.159C523.752 600.712 523.269 601.136 522.637 601.432C522.008 601.727 521.247 601.875 520.353 601.875H517.279V599.898H519.955C520.425 599.898 520.815 599.833 521.125 599.705C521.436 599.576 521.667 599.383 521.819 599.125C521.974 598.867 522.052 598.547 522.052 598.165C522.052 597.778 521.974 597.453 521.819 597.188C521.667 596.922 521.434 596.722 521.12 596.585C520.809 596.445 520.417 596.375 519.944 596.375H518.285V606H515.824ZM522.108 600.705L525 606H522.285L519.455 600.705H522.108ZM529.905 606.17C529.023 606.17 528.26 605.983 527.616 605.608C526.975 605.229 526.481 604.703 526.133 604.028C525.784 603.35 525.61 602.564 525.61 601.67C525.61 600.769 525.784 599.981 526.133 599.307C526.481 598.629 526.975 598.102 527.616 597.727C528.26 597.348 529.023 597.159 529.905 597.159C530.788 597.159 531.549 597.348 532.189 597.727C532.833 598.102 533.33 598.629 533.678 599.307C534.027 599.981 534.201 600.769 534.201 601.67C534.201 602.564 534.027 603.35 533.678 604.028C533.33 604.703 532.833 605.229 532.189 605.608C531.549 605.983 530.788 606.17 529.905 606.17ZM529.917 604.295C530.318 604.295 530.654 604.182 530.922 603.955C531.191 603.723 531.394 603.409 531.53 603.011C531.671 602.614 531.741 602.161 531.741 601.653C531.741 601.146 531.671 600.693 531.53 600.295C531.394 599.898 531.191 599.583 530.922 599.352C530.654 599.121 530.318 599.006 529.917 599.006C529.511 599.006 529.171 599.121 528.894 599.352C528.621 599.583 528.415 599.898 528.275 600.295C528.138 600.693 528.07 601.146 528.07 601.653C528.07 602.161 528.138 602.614 528.275 603.011C528.415 603.409 528.621 603.723 528.894 603.955C529.171 604.182 529.511 604.295 529.917 604.295ZM538.019 594.364V606H535.599V594.364H538.019ZM543.759 606.17C542.862 606.17 542.089 605.989 541.441 605.625C540.797 605.258 540.301 604.739 539.953 604.068C539.604 603.394 539.43 602.597 539.43 601.676C539.43 600.778 539.604 599.991 539.953 599.312C540.301 598.634 540.792 598.106 541.424 597.727C542.061 597.348 542.807 597.159 543.663 597.159C544.239 597.159 544.775 597.252 545.271 597.438C545.771 597.619 546.206 597.894 546.578 598.261C546.953 598.629 547.244 599.091 547.453 599.648C547.661 600.201 547.765 600.848 547.765 601.591V602.256H540.396V600.756H545.487C545.487 600.407 545.411 600.098 545.259 599.83C545.108 599.561 544.898 599.35 544.629 599.199C544.364 599.044 544.055 598.966 543.703 598.966C543.335 598.966 543.009 599.051 542.725 599.222C542.445 599.388 542.225 599.614 542.066 599.898C541.907 600.178 541.826 600.491 541.822 600.835V602.261C541.822 602.693 541.901 603.066 542.061 603.381C542.223 603.695 542.453 603.938 542.748 604.108C543.043 604.278 543.394 604.364 543.799 604.364C544.068 604.364 544.314 604.326 544.538 604.25C544.761 604.174 544.953 604.061 545.112 603.909C545.271 603.758 545.392 603.572 545.475 603.352L547.714 603.5C547.6 604.038 547.367 604.508 547.015 604.909C546.667 605.307 546.216 605.617 545.663 605.841C545.114 606.061 544.479 606.17 543.759 606.17ZM556.43 599.761L554.214 599.898C554.176 599.708 554.095 599.538 553.97 599.386C553.845 599.231 553.68 599.108 553.475 599.017C553.275 598.922 553.034 598.875 552.754 598.875C552.379 598.875 552.063 598.955 551.805 599.114C551.547 599.269 551.419 599.477 551.419 599.739C551.419 599.947 551.502 600.123 551.669 600.267C551.835 600.411 552.121 600.527 552.527 600.614L554.106 600.932C554.955 601.106 555.587 601.386 556.004 601.773C556.42 602.159 556.629 602.667 556.629 603.295C556.629 603.867 556.46 604.369 556.123 604.801C555.79 605.233 555.331 605.57 554.748 605.812C554.169 606.051 553.5 606.17 552.742 606.17C551.587 606.17 550.667 605.93 549.981 605.449C549.299 604.964 548.9 604.305 548.782 603.472L551.163 603.347C551.235 603.699 551.409 603.968 551.686 604.153C551.962 604.335 552.316 604.426 552.748 604.426C553.172 604.426 553.513 604.345 553.771 604.182C554.032 604.015 554.165 603.801 554.169 603.54C554.165 603.32 554.072 603.14 553.89 603C553.708 602.856 553.428 602.746 553.049 602.67L551.538 602.369C550.686 602.199 550.051 601.903 549.635 601.483C549.222 601.062 549.015 600.527 549.015 599.875C549.015 599.314 549.167 598.831 549.47 598.426C549.777 598.021 550.206 597.708 550.76 597.489C551.316 597.269 551.968 597.159 552.714 597.159C553.816 597.159 554.684 597.392 555.316 597.858C555.953 598.324 556.324 598.958 556.43 599.761Z" fill="black" fill-opacity="0.8"/>
<rect x="448" y="656" width="176" height="80" rx="6" fill="#14AE5C"/>
<path d="M517.566 694.125C517.486 693.848 517.374 693.604 517.23 693.392C517.087 693.176 516.91 692.994 516.702 692.847C516.498 692.695 516.263 692.58 515.998 692.5C515.736 692.42 515.446 692.381 515.128 692.381C514.534 692.381 514.011 692.528 513.56 692.824C513.113 693.119 512.765 693.549 512.515 694.114C512.265 694.674 512.14 695.36 512.14 696.17C512.14 696.981 512.263 697.67 512.509 698.239C512.755 698.807 513.104 699.241 513.554 699.54C514.005 699.835 514.537 699.983 515.151 699.983C515.708 699.983 516.183 699.884 516.577 699.688C516.975 699.487 517.278 699.205 517.486 698.841C517.698 698.477 517.804 698.047 517.804 697.551L518.304 697.625H515.304V695.773H520.174V697.239C520.174 698.261 519.958 699.14 519.526 699.875C519.094 700.606 518.499 701.17 517.742 701.568C516.984 701.962 516.117 702.159 515.14 702.159C514.049 702.159 513.09 701.919 512.265 701.438C511.439 700.953 510.795 700.265 510.333 699.375C509.874 698.481 509.645 697.42 509.645 696.193C509.645 695.25 509.782 694.409 510.054 693.67C510.331 692.928 510.717 692.299 511.213 691.784C511.71 691.269 512.287 690.877 512.946 690.608C513.605 690.339 514.32 690.205 515.088 690.205C515.748 690.205 516.361 690.301 516.929 690.494C517.498 690.684 518.001 690.953 518.441 691.301C518.884 691.65 519.246 692.064 519.526 692.545C519.806 693.023 519.986 693.549 520.066 694.125H517.566ZM527.397 698.284V693.273H529.817V702H527.493V700.415H527.402C527.206 700.926 526.878 701.337 526.42 701.648C525.965 701.958 525.41 702.114 524.755 702.114C524.171 702.114 523.658 701.981 523.215 701.716C522.772 701.451 522.425 701.074 522.175 700.585C521.929 700.097 521.804 699.511 521.8 698.83V693.273H524.221V698.398C524.224 698.913 524.363 699.32 524.635 699.619C524.908 699.919 525.274 700.068 525.732 700.068C526.024 700.068 526.296 700.002 526.55 699.869C526.804 699.733 527.009 699.532 527.164 699.267C527.323 699.002 527.401 698.674 527.397 698.284ZM531.577 702V693.273H533.998V702H531.577ZM532.793 692.148C532.433 692.148 532.125 692.028 531.867 691.79C531.613 691.547 531.486 691.258 531.486 690.92C531.486 690.587 531.613 690.301 531.867 690.062C532.125 689.82 532.433 689.699 532.793 689.699C533.153 689.699 533.46 689.82 533.714 690.062C533.971 690.301 534.1 690.587 534.1 690.92C534.1 691.258 533.971 691.547 533.714 691.79C533.46 692.028 533.153 692.148 532.793 692.148ZM538.977 702.142C538.314 702.142 537.713 701.972 537.175 701.631C536.641 701.286 536.217 700.78 535.903 700.114C535.592 699.443 535.437 698.621 535.437 697.648C535.437 696.648 535.598 695.816 535.92 695.153C536.242 694.487 536.67 693.989 537.204 693.659C537.742 693.326 538.331 693.159 538.971 693.159C539.46 693.159 539.867 693.242 540.193 693.409C540.522 693.572 540.787 693.777 540.988 694.023C541.193 694.265 541.348 694.504 541.454 694.739H541.528V690.364H543.943V702H541.556V700.602H541.454C541.34 700.845 541.179 701.085 540.971 701.324C540.766 701.559 540.499 701.754 540.17 701.909C539.844 702.064 539.446 702.142 538.977 702.142ZM539.744 700.216C540.134 700.216 540.463 700.11 540.732 699.898C541.005 699.682 541.213 699.381 541.357 698.994C541.505 698.608 541.579 698.155 541.579 697.636C541.579 697.117 541.507 696.667 541.363 696.284C541.219 695.902 541.011 695.606 540.738 695.398C540.465 695.189 540.134 695.085 539.744 695.085C539.346 695.085 539.011 695.193 538.738 695.409C538.465 695.625 538.259 695.924 538.119 696.307C537.979 696.689 537.908 697.133 537.908 697.636C537.908 698.144 537.979 698.593 538.119 698.983C538.263 699.369 538.469 699.672 538.738 699.892C539.011 700.108 539.346 700.216 539.744 700.216ZM549.734 702.17C548.836 702.17 548.063 701.989 547.416 701.625C546.772 701.258 546.276 700.739 545.927 700.068C545.579 699.394 545.404 698.597 545.404 697.676C545.404 696.778 545.579 695.991 545.927 695.312C546.276 694.634 546.766 694.106 547.399 693.727C548.035 693.348 548.781 693.159 549.637 693.159C550.213 693.159 550.749 693.252 551.245 693.438C551.745 693.619 552.181 693.894 552.552 694.261C552.927 694.629 553.219 695.091 553.427 695.648C553.635 696.201 553.74 696.848 553.74 697.591V698.256H546.37V696.756H551.461C551.461 696.407 551.385 696.098 551.234 695.83C551.082 695.561 550.872 695.35 550.603 695.199C550.338 695.044 550.029 694.966 549.677 694.966C549.31 694.966 548.984 695.051 548.7 695.222C548.419 695.388 548.2 695.614 548.041 695.898C547.882 696.178 547.8 696.491 547.796 696.835V698.261C547.796 698.693 547.876 699.066 548.035 699.381C548.198 699.695 548.427 699.938 548.723 700.108C549.018 700.278 549.368 700.364 549.774 700.364C550.043 700.364 550.289 700.326 550.512 700.25C550.736 700.174 550.927 700.061 551.086 699.909C551.245 699.758 551.366 699.572 551.45 699.352L553.688 699.5C553.575 700.038 553.342 700.508 552.99 700.909C552.641 701.307 552.19 701.617 551.637 701.841C551.088 702.061 550.454 702.17 549.734 702.17ZM562.404 695.761L560.189 695.898C560.151 695.708 560.069 695.538 559.944 695.386C559.819 695.231 559.654 695.108 559.45 695.017C559.249 694.922 559.009 694.875 558.728 694.875C558.353 694.875 558.037 694.955 557.779 695.114C557.522 695.269 557.393 695.477 557.393 695.739C557.393 695.947 557.476 696.123 557.643 696.267C557.81 696.411 558.096 696.527 558.501 696.614L560.081 696.932C560.929 697.106 561.562 697.386 561.978 697.773C562.395 698.159 562.603 698.667 562.603 699.295C562.603 699.867 562.435 700.369 562.098 700.801C561.764 701.233 561.306 701.57 560.723 701.812C560.143 702.051 559.475 702.17 558.717 702.17C557.562 702.17 556.641 701.93 555.956 701.449C555.274 700.964 554.874 700.305 554.757 699.472L557.137 699.347C557.209 699.699 557.384 699.968 557.66 700.153C557.937 700.335 558.291 700.426 558.723 700.426C559.147 700.426 559.488 700.345 559.745 700.182C560.007 700.015 560.139 699.801 560.143 699.54C560.139 699.32 560.047 699.14 559.865 699C559.683 698.856 559.403 698.746 559.024 698.67L557.512 698.369C556.66 698.199 556.026 697.903 555.609 697.483C555.196 697.062 554.99 696.527 554.99 695.875C554.99 695.314 555.141 694.831 555.444 694.426C555.751 694.021 556.181 693.708 556.734 693.489C557.291 693.269 557.942 693.159 558.689 693.159C559.791 693.159 560.658 693.392 561.291 693.858C561.927 694.324 562.298 694.958 562.404 695.761Z" fill="white"/>
<rect x="672" width="176" height="80" rx="6" fill="#FFA629"/>
<path d="M740.53 34.3636L743.769 43.8409H743.9L747.138 34.3636H749.036L744.848 46H742.82L738.633 34.3636H740.53ZM750.404 46V37.2727H752.103V46H750.404ZM751.262 35.9261C750.966 35.9261 750.713 35.8277 750.501 35.6307C750.292 35.4299 750.188 35.1913 750.188 34.9148C750.188 34.6345 750.292 34.3958 750.501 34.1989C750.713 33.9981 750.966 33.8977 751.262 33.8977C751.557 33.8977 751.809 33.9981 752.018 34.1989C752.23 34.3958 752.336 34.6345 752.336 34.9148C752.336 35.1913 752.23 35.4299 752.018 35.6307C751.809 35.8277 751.557 35.9261 751.262 35.9261ZM757.479 46.1705C756.775 46.1705 756.146 45.9905 755.593 45.6307C755.044 45.267 754.612 44.75 754.298 44.0795C753.987 43.4053 753.832 42.5966 753.832 41.6534C753.832 40.7102 753.989 39.9034 754.303 39.233C754.621 38.5625 755.057 38.0492 755.61 37.6932C756.163 37.3371 756.79 37.1591 757.491 37.1591C758.032 37.1591 758.468 37.25 758.798 37.4318C759.131 37.6098 759.388 37.8182 759.57 38.0568C759.756 38.2955 759.9 38.5057 760.002 38.6875H760.104V34.3636H761.803V46H760.144V44.642H760.002C759.9 44.8277 759.752 45.0398 759.559 45.2784C759.37 45.517 759.108 45.7254 758.775 45.9034C758.442 46.0814 758.01 46.1705 757.479 46.1705ZM757.854 44.7216C758.343 44.7216 758.756 44.5928 759.093 44.3352C759.434 44.0739 759.692 43.7121 759.866 43.25C760.044 42.7879 760.133 42.25 760.133 41.6364C760.133 41.0303 760.046 40.5 759.871 40.0455C759.697 39.5909 759.442 39.2367 759.104 38.983C758.767 38.7292 758.351 38.6023 757.854 38.6023C757.343 38.6023 756.917 38.7348 756.576 39C756.235 39.2652 755.978 39.6269 755.803 40.0852C755.633 40.5436 755.548 41.0606 755.548 41.6364C755.548 42.2197 755.635 42.7443 755.809 43.2102C755.983 43.6761 756.241 44.0455 756.582 44.3182C756.926 44.5871 757.351 44.7216 757.854 44.7216ZM767.813 46.1761C766.953 46.1761 766.213 45.9924 765.592 45.625C764.974 45.2538 764.497 44.733 764.16 44.0625C763.827 43.3883 763.66 42.5985 763.66 41.6932C763.66 40.7992 763.827 40.0114 764.16 39.3295C764.497 38.6477 764.967 38.1155 765.569 37.733C766.175 37.3504 766.883 37.1591 767.694 37.1591C768.186 37.1591 768.664 37.2405 769.126 37.4034C769.588 37.5663 770.003 37.822 770.37 38.1705C770.738 38.5189 771.027 38.9716 771.239 39.5284C771.452 40.0814 771.558 40.7538 771.558 41.5455V42.1477H764.62V40.875H769.893C769.893 40.428 769.802 40.0322 769.62 39.6875C769.438 39.339 769.183 39.0644 768.853 38.8636C768.527 38.6629 768.145 38.5625 767.705 38.5625C767.228 38.5625 766.811 38.6799 766.455 38.9148C766.103 39.1458 765.83 39.4489 765.637 39.8239C765.448 40.1951 765.353 40.5985 765.353 41.0341V42.0284C765.353 42.6117 765.455 43.108 765.66 43.517C765.868 43.9261 766.158 44.2386 766.529 44.4545C766.9 44.6667 767.334 44.7727 767.83 44.7727C768.152 44.7727 768.446 44.7273 768.711 44.6364C768.976 44.5417 769.205 44.4015 769.399 44.2159C769.592 44.0303 769.739 43.8011 769.842 43.5284L771.45 43.8182C771.321 44.2917 771.09 44.7064 770.757 45.0625C770.427 45.4148 770.012 45.6894 769.512 45.8864C769.016 46.0795 768.45 46.1761 767.813 46.1761ZM776.943 46.1761C776.125 46.1761 775.411 45.9886 774.801 45.6136C774.191 45.2386 773.717 44.714 773.38 44.0398C773.043 43.3655 772.875 42.5777 772.875 41.6761C772.875 40.7708 773.043 39.9792 773.38 39.3011C773.717 38.6231 774.191 38.0966 774.801 37.7216C775.411 37.3466 776.125 37.1591 776.943 37.1591C777.761 37.1591 778.475 37.3466 779.085 37.7216C779.695 38.0966 780.168 38.6231 780.505 39.3011C780.842 39.9792 781.011 40.7708 781.011 41.6761C781.011 42.5777 780.842 43.3655 780.505 44.0398C780.168 44.714 779.695 45.2386 779.085 45.6136C778.475 45.9886 777.761 46.1761 776.943 46.1761ZM776.948 44.75C777.479 44.75 777.918 44.6098 778.267 44.3295C778.615 44.0492 778.873 43.6761 779.039 43.2102C779.21 42.7443 779.295 42.2311 779.295 41.6705C779.295 41.1136 779.21 40.6023 779.039 40.1364C778.873 39.6667 778.615 39.2898 778.267 39.0057C777.918 38.7216 777.479 38.5795 776.948 38.5795C776.414 38.5795 775.971 38.7216 775.619 39.0057C775.27 39.2898 775.011 39.6667 774.84 40.1364C774.674 40.6023 774.59 41.1136 774.59 41.6705C774.59 42.2311 774.674 42.7443 774.84 43.2102C775.011 43.6761 775.27 44.0492 775.619 44.3295C775.971 44.6098 776.414 44.75 776.948 44.75Z" fill="black" fill-opacity="0.8"/>
<rect x="672" y="112" width="176" height="80" rx="6" fill="#FFA629"/>
<path d="M740.434 158H738.57L742.758 146.364H744.786L748.973 158H747.11L743.82 148.477H743.729L740.434 158ZM740.746 153.443H746.792V154.92H740.746V153.443ZM755.87 154.381V149.273H757.574V158H755.904V156.489H755.813C755.612 156.955 755.29 157.343 754.847 157.653C754.408 157.96 753.86 158.114 753.205 158.114C752.645 158.114 752.148 157.991 751.716 157.744C751.288 157.494 750.951 157.125 750.705 156.636C750.463 156.148 750.341 155.544 750.341 154.824V149.273H752.04V154.619C752.04 155.214 752.205 155.687 752.535 156.04C752.864 156.392 753.292 156.568 753.819 156.568C754.137 156.568 754.453 156.489 754.768 156.33C755.086 156.17 755.349 155.93 755.557 155.608C755.77 155.286 755.874 154.877 755.87 154.381ZM762.948 158.17C762.244 158.17 761.615 157.991 761.062 157.631C760.513 157.267 760.081 156.75 759.766 156.08C759.456 155.405 759.3 154.597 759.3 153.653C759.3 152.71 759.458 151.903 759.772 151.233C760.09 150.562 760.526 150.049 761.079 149.693C761.632 149.337 762.259 149.159 762.96 149.159C763.501 149.159 763.937 149.25 764.266 149.432C764.6 149.61 764.857 149.818 765.039 150.057C765.225 150.295 765.369 150.506 765.471 150.688H765.573V146.364H767.272V158H765.613V156.642H765.471C765.369 156.828 765.221 157.04 765.028 157.278C764.838 157.517 764.577 157.725 764.244 157.903C763.91 158.081 763.478 158.17 762.948 158.17ZM763.323 156.722C763.812 156.722 764.225 156.593 764.562 156.335C764.903 156.074 765.16 155.712 765.335 155.25C765.513 154.788 765.602 154.25 765.602 153.636C765.602 153.03 765.514 152.5 765.34 152.045C765.166 151.591 764.91 151.237 764.573 150.983C764.236 150.729 763.819 150.602 763.323 150.602C762.812 150.602 762.386 150.735 762.045 151C761.704 151.265 761.446 151.627 761.272 152.085C761.102 152.544 761.016 153.061 761.016 153.636C761.016 154.22 761.103 154.744 761.278 155.21C761.452 155.676 761.71 156.045 762.05 156.318C762.395 156.587 762.819 156.722 763.323 156.722ZM769.521 158V149.273H771.22V158H769.521ZM770.379 147.926C770.083 147.926 769.829 147.828 769.617 147.631C769.409 147.43 769.305 147.191 769.305 146.915C769.305 146.634 769.409 146.396 769.617 146.199C769.829 145.998 770.083 145.898 770.379 145.898C770.674 145.898 770.926 145.998 771.134 146.199C771.346 146.396 771.453 146.634 771.453 146.915C771.453 147.191 771.346 147.43 771.134 147.631C770.926 147.828 770.674 147.926 770.379 147.926ZM777.005 158.176C776.187 158.176 775.473 157.989 774.863 157.614C774.253 157.239 773.78 156.714 773.443 156.04C773.106 155.366 772.937 154.578 772.937 153.676C772.937 152.771 773.106 151.979 773.443 151.301C773.78 150.623 774.253 150.097 774.863 149.722C775.473 149.347 776.187 149.159 777.005 149.159C777.823 149.159 778.537 149.347 779.147 149.722C779.757 150.097 780.231 150.623 780.568 151.301C780.905 151.979 781.073 152.771 781.073 153.676C781.073 154.578 780.905 155.366 780.568 156.04C780.231 156.714 779.757 157.239 779.147 157.614C778.537 157.989 777.823 158.176 777.005 158.176ZM777.011 156.75C777.541 156.75 777.981 156.61 778.329 156.33C778.678 156.049 778.935 155.676 779.102 155.21C779.272 154.744 779.358 154.231 779.358 153.67C779.358 153.114 779.272 152.602 779.102 152.136C778.935 151.667 778.678 151.29 778.329 151.006C777.981 150.722 777.541 150.58 777.011 150.58C776.477 150.58 776.034 150.722 775.681 151.006C775.333 151.29 775.073 151.667 774.903 152.136C774.736 152.602 774.653 153.114 774.653 153.67C774.653 154.231 774.736 154.744 774.903 155.21C775.073 155.676 775.333 156.049 775.681 156.33C776.034 156.61 776.477 156.75 777.011 156.75Z" fill="black" fill-opacity="0.8"/>
<rect x="672" y="448" width="176" height="80" rx="6" fill="#FFA629"/>
<path d="M742.839 494V482.364H746.987C747.889 482.364 748.637 482.519 749.231 482.83C749.83 483.14 750.277 483.57 750.572 484.119C750.868 484.665 751.015 485.295 751.015 486.011C751.015 486.723 750.866 487.35 750.567 487.892C750.271 488.43 749.824 488.848 749.226 489.148C748.631 489.447 747.883 489.597 746.981 489.597H743.839V488.085H746.822C747.39 488.085 747.853 488.004 748.209 487.841C748.568 487.678 748.832 487.441 748.998 487.131C749.165 486.82 749.248 486.447 749.248 486.011C749.248 485.572 749.163 485.191 748.993 484.869C748.826 484.547 748.563 484.301 748.203 484.131C747.847 483.956 747.379 483.869 746.8 483.869H744.595V494H742.839ZM748.584 488.75L751.459 494H749.459L746.64 488.75H748.584ZM755.379 494.193C754.826 494.193 754.326 494.091 753.879 493.886C753.432 493.678 753.078 493.377 752.817 492.983C752.559 492.589 752.43 492.106 752.43 491.534C752.43 491.042 752.525 490.636 752.714 490.318C752.904 490 753.159 489.748 753.481 489.562C753.803 489.377 754.163 489.237 754.561 489.142C754.959 489.047 755.364 488.975 755.777 488.926C756.3 488.866 756.724 488.816 757.05 488.778C757.375 488.737 757.612 488.67 757.76 488.58C757.908 488.489 757.981 488.341 757.981 488.136V488.097C757.981 487.6 757.841 487.216 757.561 486.943C757.284 486.67 756.872 486.534 756.322 486.534C755.75 486.534 755.3 486.661 754.97 486.915C754.644 487.165 754.419 487.443 754.294 487.75L752.697 487.386C752.887 486.856 753.163 486.428 753.527 486.102C753.894 485.773 754.317 485.534 754.794 485.386C755.271 485.235 755.773 485.159 756.3 485.159C756.648 485.159 757.017 485.201 757.408 485.284C757.802 485.364 758.169 485.511 758.51 485.727C758.855 485.943 759.137 486.252 759.356 486.653C759.576 487.051 759.686 487.568 759.686 488.205V494H758.027V492.807H757.959C757.849 493.027 757.684 493.242 757.464 493.455C757.245 493.667 756.963 493.843 756.618 493.983C756.273 494.123 755.86 494.193 755.379 494.193ZM755.749 492.83C756.218 492.83 756.62 492.737 756.953 492.551C757.29 492.366 757.546 492.123 757.72 491.824C757.898 491.521 757.987 491.197 757.987 490.852V489.727C757.927 489.788 757.809 489.845 757.635 489.898C757.464 489.947 757.269 489.991 757.05 490.028C756.83 490.062 756.616 490.095 756.408 490.125C756.199 490.152 756.025 490.174 755.885 490.193C755.555 490.235 755.254 490.305 754.981 490.403C754.713 490.502 754.497 490.644 754.334 490.83C754.175 491.011 754.095 491.254 754.095 491.557C754.095 491.977 754.25 492.295 754.561 492.511C754.872 492.723 755.267 492.83 755.749 492.83ZM765.449 494.176C764.604 494.176 763.877 493.985 763.267 493.602C762.661 493.216 762.195 492.684 761.869 492.006C761.544 491.328 761.381 490.551 761.381 489.676C761.381 488.79 761.547 488.008 761.881 487.33C762.214 486.648 762.684 486.116 763.29 485.733C763.896 485.35 764.61 485.159 765.432 485.159C766.095 485.159 766.686 485.282 767.205 485.528C767.724 485.771 768.142 486.112 768.46 486.551C768.782 486.991 768.974 487.504 769.034 488.091H767.381C767.29 487.682 767.082 487.33 766.756 487.034C766.434 486.739 766.002 486.591 765.46 486.591C764.987 486.591 764.572 486.716 764.216 486.966C763.864 487.212 763.589 487.564 763.392 488.023C763.195 488.477 763.097 489.015 763.097 489.636C763.097 490.273 763.193 490.822 763.386 491.284C763.58 491.746 763.852 492.104 764.205 492.358C764.561 492.612 764.979 492.739 765.46 492.739C765.782 492.739 766.074 492.68 766.335 492.562C766.6 492.441 766.822 492.269 767 492.045C767.182 491.822 767.309 491.553 767.381 491.239H769.034C768.974 491.803 768.79 492.307 768.483 492.75C768.176 493.193 767.765 493.542 767.25 493.795C766.739 494.049 766.138 494.176 765.449 494.176ZM772.237 491.04L772.226 488.966H772.522L775.999 485.273H778.033L774.067 489.477H773.8L772.237 491.04ZM770.675 494V482.364H772.374V494H770.675ZM776.186 494L773.061 489.852L774.232 488.665L778.272 494H776.186Z" fill="black" fill-opacity="0.8"/>
<rect x="672" y="336" width="176" height="80" rx="6" fill="#FFA629"/>
<path d="M739.403 382L736.176 370.364H738.022L740.289 379.375H740.397L742.755 370.364H744.585L746.943 379.381H747.051L749.312 370.364H751.164L747.931 382H746.164L743.716 373.284H743.625L741.176 382H739.403ZM752.453 382V373.273H754.152V382H752.453ZM753.311 371.926C753.015 371.926 752.762 371.828 752.55 371.631C752.341 371.43 752.237 371.191 752.237 370.915C752.237 370.634 752.341 370.396 752.55 370.199C752.762 369.998 753.015 369.898 753.311 369.898C753.606 369.898 753.858 369.998 754.067 370.199C754.279 370.396 754.385 370.634 754.385 370.915C754.385 371.191 754.279 371.43 754.067 371.631C753.858 371.828 753.606 371.926 753.311 371.926ZM756.261 382V373.273H757.903V374.659H757.994C758.153 374.189 758.434 373.82 758.835 373.551C759.24 373.278 759.699 373.142 760.21 373.142C760.316 373.142 760.441 373.146 760.585 373.153C760.733 373.161 760.848 373.17 760.932 373.182V374.807C760.864 374.788 760.742 374.767 760.568 374.744C760.394 374.718 760.22 374.705 760.045 374.705C759.644 374.705 759.286 374.79 758.972 374.96C758.661 375.127 758.415 375.36 758.233 375.659C758.051 375.955 757.96 376.292 757.96 376.67V382H756.261ZM762.226 382V373.273H763.925V382H762.226ZM763.084 371.926C762.788 371.926 762.535 371.828 762.323 371.631C762.114 371.43 762.01 371.191 762.01 370.915C762.01 370.634 762.114 370.396 762.323 370.199C762.535 369.998 762.788 369.898 763.084 369.898C763.379 369.898 763.631 369.998 763.84 370.199C764.052 370.396 764.158 370.634 764.158 370.915C764.158 371.191 764.052 371.43 763.84 371.631C763.631 371.828 763.379 371.926 763.084 371.926ZM767.733 376.818V382H766.034V373.273H767.665V374.693H767.773C767.974 374.231 768.288 373.86 768.716 373.58C769.148 373.299 769.691 373.159 770.347 373.159C770.941 373.159 771.462 373.284 771.909 373.534C772.356 373.78 772.703 374.148 772.949 374.636C773.195 375.125 773.318 375.729 773.318 376.449V382H771.62V376.653C771.62 376.021 771.455 375.527 771.125 375.17C770.796 374.811 770.343 374.631 769.767 374.631C769.373 374.631 769.023 374.716 768.716 374.886C768.413 375.057 768.173 375.307 767.995 375.636C767.82 375.962 767.733 376.356 767.733 376.818ZM779.08 385.455C778.387 385.455 777.79 385.364 777.29 385.182C776.794 385 776.389 384.759 776.074 384.46C775.76 384.161 775.525 383.833 775.37 383.477L776.83 382.875C776.932 383.042 777.069 383.218 777.239 383.403C777.413 383.593 777.648 383.754 777.944 383.886C778.243 384.019 778.627 384.085 779.097 384.085C779.741 384.085 780.273 383.928 780.694 383.614C781.114 383.303 781.324 382.807 781.324 382.125V380.409H781.216C781.114 380.595 780.966 380.801 780.773 381.028C780.584 381.256 780.322 381.453 779.989 381.619C779.656 381.786 779.222 381.869 778.688 381.869C777.998 381.869 777.377 381.708 776.824 381.386C776.275 381.061 775.839 380.581 775.517 379.949C775.199 379.312 775.04 378.53 775.04 377.602C775.04 376.674 775.197 375.879 775.512 375.216C775.83 374.553 776.265 374.045 776.819 373.693C777.372 373.337 777.998 373.159 778.699 373.159C779.241 373.159 779.678 373.25 780.012 373.432C780.345 373.61 780.605 373.818 780.79 374.057C780.98 374.295 781.125 374.506 781.228 374.688H781.353V373.273H783.017V382.193C783.017 382.943 782.843 383.559 782.495 384.04C782.146 384.521 781.675 384.877 781.08 385.108C780.489 385.339 779.822 385.455 779.08 385.455ZM779.063 380.46C779.551 380.46 779.964 380.347 780.301 380.119C780.642 379.888 780.9 379.559 781.074 379.131C781.252 378.699 781.341 378.182 781.341 377.58C781.341 376.992 781.254 376.475 781.08 376.028C780.906 375.581 780.65 375.233 780.313 374.983C779.976 374.729 779.559 374.602 779.063 374.602C778.551 374.602 778.125 374.735 777.784 375C777.444 375.261 777.186 375.617 777.012 376.068C776.841 376.519 776.756 377.023 776.756 377.58C776.756 378.152 776.843 378.653 777.017 379.085C777.192 379.517 777.449 379.854 777.79 380.097C778.135 380.339 778.559 380.46 779.063 380.46Z" fill="black" fill-opacity="0.8"/>
<rect x="672" y="224" width="176" height="80" rx="6" fill="#FFA629"/>
<path d="M729.778 270H727.914L732.102 258.364H734.13L738.318 270H736.454L733.164 260.477H733.073L729.778 270ZM730.09 265.443H736.136V266.92H730.09V265.443ZM741.385 264.818V270H739.686V261.273H741.316V262.693H741.424C741.625 262.231 741.939 261.86 742.367 261.58C742.799 261.299 743.343 261.159 743.998 261.159C744.593 261.159 745.114 261.284 745.561 261.534C746.008 261.78 746.354 262.148 746.6 262.636C746.847 263.125 746.97 263.729 746.97 264.449V270H745.271V264.653C745.271 264.021 745.106 263.527 744.777 263.17C744.447 262.811 743.994 262.631 743.419 262.631C743.025 262.631 742.674 262.716 742.367 262.886C742.064 263.057 741.824 263.307 741.646 263.636C741.472 263.962 741.385 264.356 741.385 264.818ZM752.748 270.176C751.904 270.176 751.176 269.985 750.566 269.602C749.96 269.216 749.495 268.684 749.169 268.006C748.843 267.328 748.68 266.551 748.68 265.676C748.68 264.79 748.847 264.008 749.18 263.33C749.513 262.648 749.983 262.116 750.589 261.733C751.195 261.35 751.909 261.159 752.731 261.159C753.394 261.159 753.985 261.282 754.504 261.528C755.023 261.771 755.441 262.112 755.76 262.551C756.082 262.991 756.273 263.504 756.334 264.091H754.68C754.589 263.682 754.381 263.33 754.055 263.034C753.733 262.739 753.301 262.591 752.76 262.591C752.286 262.591 751.871 262.716 751.515 262.966C751.163 263.212 750.888 263.564 750.691 264.023C750.495 264.477 750.396 265.015 750.396 265.636C750.396 266.273 750.493 266.822 750.686 267.284C750.879 267.746 751.152 268.104 751.504 268.358C751.86 268.612 752.279 268.739 752.76 268.739C753.082 268.739 753.373 268.68 753.635 268.562C753.9 268.441 754.121 268.269 754.299 268.045C754.481 267.822 754.608 267.553 754.68 267.239H756.334C756.273 267.803 756.089 268.307 755.782 268.75C755.476 269.193 755.065 269.542 754.549 269.795C754.038 270.049 753.438 270.176 752.748 270.176ZM757.974 270V261.273H759.673V270H757.974ZM758.832 259.926C758.537 259.926 758.283 259.828 758.071 259.631C757.863 259.43 757.758 259.191 757.758 258.915C757.758 258.634 757.863 258.396 758.071 258.199C758.283 257.998 758.537 257.898 758.832 257.898C759.128 257.898 759.38 257.998 759.588 258.199C759.8 258.396 759.906 258.634 759.906 258.915C759.906 259.191 759.8 259.43 759.588 259.631C759.38 259.828 759.128 259.926 758.832 259.926ZM763.482 258.364V270H761.783V258.364H763.482ZM767.29 258.364V270H765.591V258.364H767.29ZM771.939 270.193C771.386 270.193 770.886 270.091 770.439 269.886C769.992 269.678 769.638 269.377 769.377 268.983C769.119 268.589 768.99 268.106 768.99 267.534C768.99 267.042 769.085 266.636 769.274 266.318C769.464 266 769.719 265.748 770.041 265.562C770.363 265.377 770.723 265.237 771.121 265.142C771.519 265.047 771.924 264.975 772.337 264.926C772.86 264.866 773.284 264.816 773.61 264.778C773.935 264.737 774.172 264.67 774.32 264.58C774.468 264.489 774.541 264.341 774.541 264.136V264.097C774.541 263.6 774.401 263.216 774.121 262.943C773.844 262.67 773.432 262.534 772.882 262.534C772.31 262.534 771.86 262.661 771.53 262.915C771.204 263.165 770.979 263.443 770.854 263.75L769.257 263.386C769.447 262.856 769.723 262.428 770.087 262.102C770.454 261.773 770.877 261.534 771.354 261.386C771.831 261.235 772.333 261.159 772.86 261.159C773.208 261.159 773.577 261.201 773.968 261.284C774.362 261.364 774.729 261.511 775.07 261.727C775.415 261.943 775.697 262.252 775.916 262.653C776.136 263.051 776.246 263.568 776.246 264.205V270H774.587V268.807H774.519C774.409 269.027 774.244 269.242 774.024 269.455C773.805 269.667 773.523 269.843 773.178 269.983C772.833 270.123 772.42 270.193 771.939 270.193ZM772.309 268.83C772.778 268.83 773.18 268.737 773.513 268.551C773.85 268.366 774.106 268.123 774.28 267.824C774.458 267.521 774.547 267.197 774.547 266.852V265.727C774.487 265.788 774.369 265.845 774.195 265.898C774.024 265.947 773.829 265.991 773.61 266.028C773.39 266.062 773.176 266.095 772.968 266.125C772.759 266.152 772.585 266.174 772.445 266.193C772.115 266.235 771.814 266.305 771.541 266.403C771.273 266.502 771.057 266.644 770.894 266.83C770.735 267.011 770.655 267.254 770.655 267.557C770.655 267.977 770.81 268.295 771.121 268.511C771.432 268.723 771.827 268.83 772.309 268.83ZM778.333 270V261.273H779.975V262.659H780.066C780.225 262.189 780.505 261.82 780.907 261.551C781.312 261.278 781.77 261.142 782.282 261.142C782.388 261.142 782.513 261.146 782.657 261.153C782.804 261.161 782.92 261.17 783.003 261.182V262.807C782.935 262.788 782.814 262.767 782.64 262.744C782.465 262.718 782.291 262.705 782.117 262.705C781.715 262.705 781.357 262.79 781.043 262.96C780.732 263.127 780.486 263.36 780.304 263.659C780.123 263.955 780.032 264.292 780.032 264.67V270H778.333ZM785.637 273.273C785.383 273.273 785.152 273.252 784.944 273.21C784.735 273.172 784.58 273.131 784.478 273.085L784.887 271.693C785.198 271.777 785.474 271.813 785.716 271.801C785.959 271.79 786.173 271.699 786.358 271.528C786.548 271.358 786.715 271.08 786.858 270.693L787.069 270.114L783.876 261.273H785.694L787.904 268.045H787.995L790.205 261.273H792.029L788.432 271.165C788.266 271.619 788.054 272.004 787.796 272.318C787.538 272.636 787.232 272.875 786.876 273.034C786.519 273.193 786.107 273.273 785.637 273.273Z" fill="black" fill-opacity="0.8"/>
<path d="M180 40H220" stroke="#757575" stroke-width="3" stroke-miterlimit="0" stroke-linecap="round" stroke-linejoin="bevel"/>
<path d="M404 40H444" stroke="#757575" stroke-width="3" stroke-miterlimit="0" stroke-linecap="round" stroke-linejoin="bevel"/>
<path d="M628 40H668" stroke="#757575" stroke-width="3" stroke-miterlimit="0" stroke-linecap="round" stroke-linejoin="bevel"/>
<path d="M628 40V40C639.046 40 648 48.9543 648 60V132C648 143.046 656.954 152 668 152V152" stroke="#757575" stroke-width="3" stroke-miterlimit="0" stroke-linecap="round" stroke-linejoin="bevel"/>
<path d="M628 40V40C639.046 40 648 48.9543 648 60V244C648 255.046 656.954 264 668 264V264" stroke="#757575" stroke-width="3" stroke-miterlimit="0" stroke-linecap="round" stroke-linejoin="bevel"/>
<path d="M628 40V40C639.046 40 648 48.9543 648 60V356C648 367.046 656.954 376 668 376V376" stroke="#757575" stroke-width="3" stroke-miterlimit="0" stroke-linecap="round" stroke-linejoin="bevel"/>
<path d="M628 40V40C639.046 40 648 48.9543 648 60V468C648 479.046 656.954 488 668 488V488" stroke="#757575" stroke-width="3" stroke-miterlimit="0" stroke-linecap="round" stroke-linejoin="bevel"/>
<path d="M404 40V40C415.046 40 424 48.9543 424 60V580C424 591.046 432.954 600 444 600V600" stroke="#757575" stroke-width="3" stroke-miterlimit="0" stroke-linecap="round" stroke-linejoin="bevel"/>
<path d="M404 40V40C415.046 40 424 48.9543 424 60V676C424 687.046 432.954 696 444 696V696" stroke="#757575" stroke-width="3" stroke-miterlimit="0" stroke-linecap="round" stroke-linejoin="bevel"/>
<path d="M404 808H444" stroke="#757575" stroke-width="3" stroke-miterlimit="0" stroke-linecap="round" stroke-linejoin="bevel"/>
<path d="M404 808V808C415.046 808 424 816.954 424 828V884C424 895.046 432.954 904 444 904V904" stroke="#757575" stroke-width="3" stroke-miterlimit="0" stroke-linecap="round" stroke-linejoin="bevel"/>
<path d="M404 808V808C415.046 808 424 816.954 424 828V1076C424 1087.05 432.954 1096 444 1096V1096" stroke="#757575" stroke-width="3" stroke-miterlimit="0" stroke-linecap="round" stroke-linejoin="bevel"/>
<path d="M404 808V808C415.046 808 424 816.954 424 828V980C424 991.046 432.954 1000 444 1000V1000" stroke="#757575" stroke-width="3" stroke-miterlimit="0" stroke-linecap="round" stroke-linejoin="bevel"/>
</svg>
