<svg width="1072" height="1136" viewBox="0 0 1072 1136" fill="none" xmlns="http://www.w3.org/2000/svg">
<rect width="176" height="80" rx="6" fill="#1E1E1E"/>
<path d="M66.3222 46V34.3636H68.7825V39.1648H73.7768V34.3636H76.2313V46H73.7768V41.1932H68.7825V46H66.3222ZM81.9815 46.1705C81.0989 46.1705 80.3356 45.983 79.6917 45.608C79.0515 45.2292 78.5572 44.7027 78.2087 44.0284C77.8603 43.3504 77.686 42.5644 77.686 41.6705C77.686 40.7689 77.8603 39.9811 78.2087 39.3068C78.5572 38.6288 79.0515 38.1023 79.6917 37.7273C80.3356 37.3485 81.0989 37.1591 81.9815 37.1591C82.864 37.1591 83.6254 37.3485 84.2656 37.7273C84.9095 38.1023 85.4057 38.6288 85.7542 39.3068C86.1027 39.9811 86.2769 40.7689 86.2769 41.6705C86.2769 42.5644 86.1027 43.3504 85.7542 44.0284C85.4057 44.7027 84.9095 45.2292 84.2656 45.608C83.6254 45.983 82.864 46.1705 81.9815 46.1705ZM81.9928 44.2955C82.3943 44.2955 82.7296 44.1818 82.9985 43.9545C83.2675 43.7235 83.4701 43.4091 83.6065 43.0114C83.7466 42.6136 83.8167 42.161 83.8167 41.6534C83.8167 41.1458 83.7466 40.6932 83.6065 40.2955C83.4701 39.8977 83.2675 39.5833 82.9985 39.3523C82.7296 39.1212 82.3943 39.0057 81.9928 39.0057C81.5875 39.0057 81.2466 39.1212 80.9701 39.3523C80.6974 39.5833 80.4909 39.8977 80.3508 40.2955C80.2144 40.6932 80.1462 41.1458 80.1462 41.6534C80.1462 42.161 80.2144 42.6136 80.3508 43.0114C80.4909 43.4091 80.6974 43.7235 80.9701 43.9545C81.2466 44.1818 81.5875 44.2955 81.9928 44.2955ZM87.6748 46V37.2727H89.9816V38.8125H90.0839C90.2657 38.3011 90.5687 37.8977 90.993 37.6023C91.4172 37.3068 91.9248 37.1591 92.5157 37.1591C93.1142 37.1591 93.6237 37.3087 94.0441 37.608C94.4646 37.9034 94.7449 38.3049 94.885 38.8125H94.9759C95.154 38.3125 95.4759 37.9129 95.9418 37.6136C96.4115 37.3106 96.9665 37.1591 97.6066 37.1591C98.421 37.1591 99.082 37.4186 99.5896 37.9375C100.101 38.4527 100.357 39.1837 100.357 40.1307V46H97.9418V40.608C97.9418 40.1231 97.813 39.7595 97.5555 39.517C97.2979 39.2746 96.9759 39.1534 96.5896 39.1534C96.1502 39.1534 95.8074 39.2936 95.5612 39.5739C95.3149 39.8504 95.1918 40.2159 95.1918 40.6705V46H92.8452V40.5568C92.8452 40.1288 92.7221 39.7879 92.4759 39.5341C92.2335 39.2803 91.9134 39.1534 91.5157 39.1534C91.2468 39.1534 91.0043 39.2216 90.7884 39.358C90.5763 39.4905 90.4077 39.678 90.2827 39.9205C90.1577 40.1591 90.0952 40.4394 90.0952 40.7614V46H87.6748ZM106.07 46.1705C105.172 46.1705 104.399 45.9886 103.752 45.625C103.108 45.2576 102.611 44.7386 102.263 44.0682C101.915 43.3939 101.74 42.5966 101.74 41.6761C101.74 40.7784 101.915 39.9905 102.263 39.3125C102.611 38.6345 103.102 38.1061 103.735 37.7273C104.371 37.3485 105.117 37.1591 105.973 37.1591C106.549 37.1591 107.085 37.2519 107.581 37.4375C108.081 37.6193 108.517 37.8939 108.888 38.2614C109.263 38.6288 109.555 39.0909 109.763 39.6477C109.971 40.2008 110.075 40.8485 110.075 41.5909V42.2557H102.706V40.7557H107.797C107.797 40.4072 107.721 40.0985 107.57 39.8295C107.418 39.5606 107.208 39.3504 106.939 39.1989C106.674 39.0436 106.365 38.9659 106.013 38.9659C105.646 38.9659 105.32 39.0511 105.036 39.2216C104.755 39.3883 104.536 39.6136 104.377 39.8977C104.218 40.178 104.136 40.4905 104.132 40.8352V42.2614C104.132 42.6932 104.212 43.0663 104.371 43.3807C104.534 43.6951 104.763 43.9375 105.058 44.108C105.354 44.2784 105.704 44.3636 106.11 44.3636C106.379 44.3636 106.625 44.3258 106.848 44.25C107.072 44.1742 107.263 44.0606 107.422 43.9091C107.581 43.7576 107.702 43.572 107.786 43.3523L110.024 43.5C109.911 44.0379 109.678 44.5076 109.325 44.9091C108.977 45.3068 108.526 45.6174 107.973 45.8409C107.424 46.0606 106.79 46.1705 106.07 46.1705Z" fill="white"/>
<rect x="224" width="176" height="80" rx="6" fill="#9747FF"/>
<path d="M291.978 38.4375H289.49C289.444 38.1155 289.351 37.8295 289.211 37.5795C289.071 37.3258 288.891 37.1098 288.671 36.9318C288.452 36.7538 288.198 36.6174 287.91 36.5227C287.626 36.428 287.317 36.3807 286.984 36.3807C286.382 36.3807 285.857 36.5303 285.41 36.8295C284.963 37.125 284.617 37.5568 284.37 38.125C284.124 38.6894 284.001 39.375 284.001 40.1818C284.001 41.0114 284.124 41.7083 284.37 42.2727C284.62 42.8371 284.969 43.2633 285.416 43.5511C285.863 43.839 286.38 43.983 286.967 43.983C287.296 43.983 287.601 43.9394 287.882 43.8523C288.166 43.7652 288.418 43.6383 288.637 43.4716C288.857 43.3011 289.039 43.0947 289.183 42.8523C289.331 42.6098 289.433 42.3333 289.49 42.0227L291.978 42.0341C291.914 42.5682 291.753 43.0833 291.495 43.5795C291.242 44.072 290.899 44.5133 290.467 44.9034C290.039 45.2898 289.528 45.5966 288.933 45.8239C288.342 46.0473 287.673 46.1591 286.927 46.1591C285.889 46.1591 284.961 45.9242 284.143 45.4545C283.329 44.9848 282.685 44.3049 282.211 43.4148C281.742 42.5246 281.507 41.447 281.507 40.1818C281.507 38.9129 281.745 37.8333 282.223 36.9432C282.7 36.053 283.348 35.375 284.166 34.9091C284.984 34.4394 285.904 34.2045 286.927 34.2045C287.601 34.2045 288.226 34.2992 288.802 34.4886C289.382 34.678 289.895 34.9545 290.342 35.3182C290.789 35.678 291.153 36.1193 291.433 36.642C291.717 37.1648 291.899 37.7633 291.978 38.4375ZM297.464 46.1705C296.582 46.1705 295.818 45.983 295.174 45.608C294.534 45.2292 294.04 44.7027 293.691 44.0284C293.343 43.3504 293.169 42.5644 293.169 41.6705C293.169 40.7689 293.343 39.9811 293.691 39.3068C294.04 38.6288 294.534 38.1023 295.174 37.7273C295.818 37.3485 296.582 37.1591 297.464 37.1591C298.347 37.1591 299.108 37.3485 299.748 37.7273C300.392 38.1023 300.888 38.6288 301.237 39.3068C301.585 39.9811 301.76 40.7689 301.76 41.6705C301.76 42.5644 301.585 43.3504 301.237 44.0284C300.888 44.7027 300.392 45.2292 299.748 45.608C299.108 45.983 298.347 46.1705 297.464 46.1705ZM297.476 44.2955C297.877 44.2955 298.212 44.1818 298.481 43.9545C298.75 43.7235 298.953 43.4091 299.089 43.0114C299.229 42.6136 299.299 42.161 299.299 41.6534C299.299 41.1458 299.229 40.6932 299.089 40.2955C298.953 39.8977 298.75 39.5833 298.481 39.3523C298.212 39.1212 297.877 39.0057 297.476 39.0057C297.07 39.0057 296.729 39.1212 296.453 39.3523C296.18 39.5833 295.974 39.8977 295.834 40.2955C295.697 40.6932 295.629 41.1458 295.629 41.6534C295.629 42.161 295.697 42.6136 295.834 43.0114C295.974 43.4091 296.18 43.7235 296.453 43.9545C296.729 44.1818 297.07 44.2955 297.476 44.2955ZM305.578 40.9545V46H303.158V37.2727H305.464V38.8125H305.567C305.76 38.3049 306.084 37.9034 306.538 37.608C306.993 37.3087 307.544 37.1591 308.192 37.1591C308.798 37.1591 309.326 37.2917 309.777 37.5568C310.228 37.822 310.578 38.2008 310.828 38.6932C311.078 39.1818 311.203 39.7652 311.203 40.4432V46H308.783V40.875C308.786 40.3409 308.65 39.9242 308.373 39.625C308.097 39.322 307.716 39.1705 307.231 39.1705C306.906 39.1705 306.618 39.2405 306.368 39.3807C306.122 39.5208 305.928 39.7254 305.788 39.9943C305.652 40.2595 305.582 40.5795 305.578 40.9545ZM317.577 37.2727V39.0909H312.321V37.2727H317.577ZM313.514 35.1818H315.935V43.3182C315.935 43.5417 315.969 43.7159 316.037 43.8409C316.105 43.9621 316.2 44.0473 316.321 44.0966C316.446 44.1458 316.59 44.1705 316.753 44.1705C316.866 44.1705 316.98 44.161 317.094 44.142C317.207 44.1193 317.295 44.1023 317.355 44.0909L317.736 45.892C317.615 45.9299 317.444 45.9735 317.224 46.0227C317.005 46.0758 316.738 46.108 316.423 46.1193C315.84 46.142 315.329 46.0644 314.889 45.8864C314.454 45.7083 314.115 45.4318 313.872 45.0568C313.63 44.6818 313.51 44.2083 313.514 43.6364V35.1818ZM322.861 46.1705C321.963 46.1705 321.19 45.9886 320.543 45.625C319.899 45.2576 319.403 44.7386 319.054 44.0682C318.706 43.3939 318.531 42.5966 318.531 41.6761C318.531 40.7784 318.706 39.9905 319.054 39.3125C319.403 38.6345 319.893 38.1061 320.526 37.7273C321.162 37.3485 321.908 37.1591 322.764 37.1591C323.34 37.1591 323.876 37.2519 324.372 37.4375C324.872 37.6193 325.308 37.8939 325.679 38.2614C326.054 38.6288 326.346 39.0909 326.554 39.6477C326.762 40.2008 326.867 40.8485 326.867 41.5909V42.2557H319.497V40.7557H324.588C324.588 40.4072 324.512 40.0985 324.361 39.8295C324.209 39.5606 323.999 39.3504 323.73 39.1989C323.465 39.0436 323.156 38.9659 322.804 38.9659C322.437 38.9659 322.111 39.0511 321.827 39.2216C321.547 39.3883 321.327 39.6136 321.168 39.8977C321.009 40.178 320.927 40.4905 320.923 40.8352V42.2614C320.923 42.6932 321.003 43.0663 321.162 43.3807C321.325 43.6951 321.554 43.9375 321.85 44.108C322.145 44.2784 322.495 44.3636 322.901 44.3636C323.17 44.3636 323.416 44.3258 323.639 44.25C323.863 44.1742 324.054 44.0606 324.213 43.9091C324.372 43.7576 324.494 43.572 324.577 43.3523L326.815 43.5C326.702 44.0379 326.469 44.5076 326.117 44.9091C325.768 45.3068 325.317 45.6174 324.764 45.8409C324.215 46.0606 323.581 46.1705 322.861 46.1705ZM330.691 40.9545V46H328.27V37.2727H330.577V38.8125H330.679C330.872 38.3049 331.196 37.9034 331.651 37.608C332.105 37.3087 332.657 37.1591 333.304 37.1591C333.91 37.1591 334.439 37.2917 334.889 37.5568C335.34 37.822 335.691 38.2008 335.941 38.6932C336.191 39.1818 336.316 39.7652 336.316 40.4432V46H333.895V40.875C333.899 40.3409 333.763 39.9242 333.486 39.625C333.21 39.322 332.829 39.1705 332.344 39.1705C332.018 39.1705 331.73 39.2405 331.48 39.3807C331.234 39.5208 331.041 39.7254 330.901 39.9943C330.764 40.2595 330.694 40.5795 330.691 40.9545ZM342.689 37.2727V39.0909H337.434V37.2727H342.689ZM338.627 35.1818H341.047V43.3182C341.047 43.5417 341.081 43.7159 341.15 43.8409C341.218 43.9621 341.312 44.0473 341.434 44.0966C341.559 44.1458 341.703 44.1705 341.865 44.1705C341.979 44.1705 342.093 44.161 342.206 44.142C342.32 44.1193 342.407 44.1023 342.468 44.0909L342.848 45.892C342.727 45.9299 342.557 45.9735 342.337 46.0227C342.117 46.0758 341.85 46.108 341.536 46.1193C340.953 46.142 340.441 46.0644 340.002 45.8864C339.566 45.7083 339.227 45.4318 338.985 45.0568C338.742 44.6818 338.623 44.2083 338.627 43.6364V35.1818Z" fill="white"/>
<rect x="448" width="176" height="80" rx="6" fill="#F24822"/>
<path d="M494.717 46V34.3636H499.308C500.191 34.3636 500.943 34.5322 501.564 34.8693C502.185 35.2027 502.659 35.6667 502.984 36.2614C503.314 36.8523 503.479 37.5341 503.479 38.3068C503.479 39.0795 503.312 39.7614 502.979 40.3523C502.645 40.9432 502.163 41.4034 501.53 41.733C500.901 42.0625 500.14 42.2273 499.246 42.2273H496.32V40.2557H498.848C499.322 40.2557 499.712 40.1742 500.019 40.0114C500.329 39.8447 500.56 39.6155 500.712 39.3239C500.867 39.0284 500.945 38.6894 500.945 38.3068C500.945 37.9205 500.867 37.5833 500.712 37.2955C500.56 37.0038 500.329 36.7784 500.019 36.6193C499.708 36.4564 499.314 36.375 498.837 36.375H497.178V46H494.717ZM504.855 46V37.2727H507.202V38.7955H507.293C507.452 38.2538 507.719 37.8447 508.094 37.5682C508.469 37.2879 508.901 37.1477 509.389 37.1477C509.511 37.1477 509.641 37.1553 509.781 37.1705C509.922 37.1856 510.045 37.2064 510.151 37.233V39.3807C510.037 39.3466 509.88 39.3163 509.679 39.2898C509.478 39.2633 509.295 39.25 509.128 39.25C508.772 39.25 508.454 39.3277 508.174 39.483C507.897 39.6345 507.677 39.8466 507.514 40.1193C507.355 40.392 507.276 40.7064 507.276 41.0625V46H504.855ZM514.763 46.1705C513.881 46.1705 513.117 45.983 512.473 45.608C511.833 45.2292 511.339 44.7027 510.99 44.0284C510.642 43.3504 510.468 42.5644 510.468 41.6705C510.468 40.7689 510.642 39.9811 510.99 39.3068C511.339 38.6288 511.833 38.1023 512.473 37.7273C513.117 37.3485 513.881 37.1591 514.763 37.1591C515.646 37.1591 516.407 37.3485 517.047 37.7273C517.691 38.1023 518.187 38.6288 518.536 39.3068C518.884 39.9811 519.059 40.7689 519.059 41.6705C519.059 42.5644 518.884 43.3504 518.536 44.0284C518.187 44.7027 517.691 45.2292 517.047 45.608C516.407 45.983 515.646 46.1705 514.763 46.1705ZM514.775 44.2955C515.176 44.2955 515.511 44.1818 515.78 43.9545C516.049 43.7235 516.252 43.4091 516.388 43.0114C516.528 42.6136 516.598 42.161 516.598 41.6534C516.598 41.1458 516.528 40.6932 516.388 40.2955C516.252 39.8977 516.049 39.5833 515.78 39.3523C515.511 39.1212 515.176 39.0057 514.775 39.0057C514.369 39.0057 514.028 39.1212 513.752 39.3523C513.479 39.5833 513.273 39.8977 513.132 40.2955C512.996 40.6932 512.928 41.1458 512.928 41.6534C512.928 42.161 512.996 42.6136 513.132 43.0114C513.273 43.4091 513.479 43.7235 513.752 43.9545C514.028 44.1818 514.369 44.2955 514.775 44.2955ZM523.672 46.142C523.01 46.142 522.409 45.9716 521.871 45.6307C521.337 45.286 520.913 44.7803 520.599 44.1136C520.288 43.4432 520.133 42.6212 520.133 41.6477C520.133 40.6477 520.294 39.8163 520.616 39.1534C520.938 38.4867 521.366 37.9886 521.9 37.6591C522.438 37.3258 523.027 37.1591 523.667 37.1591C524.155 37.1591 524.563 37.2424 524.888 37.4091C525.218 37.572 525.483 37.7765 525.684 38.0227C525.888 38.2652 526.044 38.5038 526.15 38.7386H526.224V34.3636H528.638V46H526.252V44.6023H526.15C526.036 44.8447 525.875 45.0852 525.667 45.3239C525.462 45.5587 525.195 45.7538 524.866 45.9091C524.54 46.0644 524.142 46.142 523.672 46.142ZM524.439 44.2159C524.83 44.2159 525.159 44.1098 525.428 43.8977C525.701 43.6818 525.909 43.3807 526.053 42.9943C526.201 42.608 526.275 42.1553 526.275 41.6364C526.275 41.1174 526.203 40.6667 526.059 40.2841C525.915 39.9015 525.706 39.6061 525.434 39.3977C525.161 39.1894 524.83 39.0852 524.439 39.0852C524.042 39.0852 523.706 39.1932 523.434 39.4091C523.161 39.625 522.955 39.9242 522.814 40.3068C522.674 40.6894 522.604 41.1326 522.604 41.6364C522.604 42.1439 522.674 42.5928 522.814 42.983C522.958 43.3693 523.165 43.6723 523.434 43.892C523.706 44.108 524.042 44.2159 524.439 44.2159ZM536.049 42.2841V37.2727H538.469V46H536.146V44.4148H536.055C535.858 44.9261 535.53 45.3371 535.072 45.6477C534.617 45.9583 534.062 46.1136 533.407 46.1136C532.824 46.1136 532.31 45.9811 531.867 45.7159C531.424 45.4508 531.077 45.0739 530.827 44.5852C530.581 44.0966 530.456 43.5114 530.452 42.8295V37.2727H532.873V42.3977C532.877 42.9129 533.015 43.3201 533.288 43.6193C533.56 43.9186 533.926 44.0682 534.384 44.0682C534.676 44.0682 534.949 44.0019 535.202 43.8693C535.456 43.733 535.661 43.5322 535.816 43.267C535.975 43.0019 536.053 42.6742 536.049 42.2841ZM544.173 46.1705C543.279 46.1705 542.51 45.9811 541.866 45.6023C541.226 45.2197 540.733 44.6894 540.389 44.0114C540.048 43.3333 539.877 42.553 539.877 41.6705C539.877 40.7765 540.05 39.9924 540.394 39.3182C540.743 38.6402 541.237 38.1117 541.877 37.733C542.517 37.3504 543.279 37.1591 544.161 37.1591C544.923 37.1591 545.589 37.2973 546.161 37.5739C546.733 37.8504 547.186 38.2386 547.519 38.7386C547.853 39.2386 548.036 39.8258 548.07 40.5H545.786C545.722 40.0644 545.551 39.714 545.275 39.4489C545.002 39.1799 544.644 39.0455 544.201 39.0455C543.826 39.0455 543.498 39.1477 543.218 39.3523C542.942 39.553 542.726 39.8466 542.57 40.233C542.415 40.6193 542.337 41.0871 542.337 41.6364C542.337 42.1932 542.413 42.6667 542.565 43.0568C542.72 43.447 542.938 43.7443 543.218 43.9489C543.498 44.1534 543.826 44.2557 544.201 44.2557C544.478 44.2557 544.726 44.1989 544.945 44.0852C545.169 43.9716 545.353 43.8068 545.497 43.5909C545.644 43.3712 545.741 43.108 545.786 42.8011H548.07C548.033 43.4678 547.851 44.0549 547.525 44.5625C547.203 45.0663 546.758 45.4602 546.19 45.7443C545.622 46.0284 544.949 46.1705 544.173 46.1705ZM554.086 37.2727V39.0909H548.83V37.2727H554.086ZM550.024 35.1818H552.444V43.3182C552.444 43.5417 552.478 43.7159 552.546 43.8409C552.615 43.9621 552.709 44.0473 552.83 44.0966C552.955 44.1458 553.099 44.1705 553.262 44.1705C553.376 44.1705 553.49 44.161 553.603 44.142C553.717 44.1193 553.804 44.1023 553.865 44.0909L554.245 45.892C554.124 45.9299 553.954 45.9735 553.734 46.0227C553.514 46.0758 553.247 46.108 552.933 46.1193C552.349 46.142 551.838 46.0644 551.399 45.8864C550.963 45.7083 550.624 45.4318 550.382 45.0568C550.139 44.6818 550.02 44.2083 550.024 43.6364V35.1818ZM555.487 46V37.2727H557.907V46H555.487ZM556.703 36.1477C556.343 36.1477 556.034 36.0284 555.777 35.7898C555.523 35.5473 555.396 35.2576 555.396 34.9205C555.396 34.5871 555.523 34.3011 555.777 34.0625C556.034 33.8201 556.343 33.6989 556.703 33.6989C557.063 33.6989 557.369 33.8201 557.623 34.0625C557.881 34.3011 558.01 34.5871 558.01 34.9205C558.01 35.2576 557.881 35.5473 557.623 35.7898C557.369 36.0284 557.063 36.1477 556.703 36.1477ZM563.613 46.1705C562.731 46.1705 561.968 45.983 561.324 45.608C560.683 45.2292 560.189 44.7027 559.841 44.0284C559.492 43.3504 559.318 42.5644 559.318 41.6705C559.318 40.7689 559.492 39.9811 559.841 39.3068C560.189 38.6288 560.683 38.1023 561.324 37.7273C561.968 37.3485 562.731 37.1591 563.613 37.1591C564.496 37.1591 565.257 37.3485 565.897 37.7273C566.541 38.1023 567.038 38.6288 567.386 39.3068C567.735 39.9811 567.909 40.7689 567.909 41.6705C567.909 42.5644 567.735 43.3504 567.386 44.0284C567.038 44.7027 566.541 45.2292 565.897 45.608C565.257 45.983 564.496 46.1705 563.613 46.1705ZM563.625 44.2955C564.026 44.2955 564.362 44.1818 564.63 43.9545C564.899 43.7235 565.102 43.4091 565.238 43.0114C565.379 42.6136 565.449 42.161 565.449 41.6534C565.449 41.1458 565.379 40.6932 565.238 40.2955C565.102 39.8977 564.899 39.5833 564.63 39.3523C564.362 39.1212 564.026 39.0057 563.625 39.0057C563.219 39.0057 562.879 39.1212 562.602 39.3523C562.329 39.5833 562.123 39.8977 561.983 40.2955C561.846 40.6932 561.778 41.1458 561.778 41.6534C561.778 42.161 561.846 42.6136 561.983 43.0114C562.123 43.4091 562.329 43.7235 562.602 43.9545C562.879 44.1818 563.219 44.2955 563.625 44.2955ZM571.727 40.9545V46H569.307V37.2727H571.614V38.8125H571.716C571.909 38.3049 572.233 37.9034 572.687 37.608C573.142 37.3087 573.693 37.1591 574.341 37.1591C574.947 37.1591 575.475 37.2917 575.926 37.5568C576.377 37.822 576.727 38.2008 576.977 38.6932C577.227 39.1818 577.352 39.7652 577.352 40.4432V46H574.932V40.875C574.936 40.3409 574.799 39.9242 574.523 39.625C574.246 39.322 573.865 39.1705 573.381 39.1705C573.055 39.1705 572.767 39.2405 572.517 39.3807C572.271 39.5208 572.078 39.7254 571.937 39.9943C571.801 40.2595 571.731 40.5795 571.727 40.9545Z" fill="white"/>
<rect x="448" y="768" width="176" height="80" rx="6" fill="#0D99FF"/>
<path d="M515.978 806.438H513.49C513.444 806.116 513.351 805.83 513.211 805.58C513.071 805.326 512.891 805.11 512.671 804.932C512.452 804.754 512.198 804.617 511.91 804.523C511.626 804.428 511.317 804.381 510.984 804.381C510.382 804.381 509.857 804.53 509.41 804.83C508.963 805.125 508.617 805.557 508.37 806.125C508.124 806.689 508.001 807.375 508.001 808.182C508.001 809.011 508.124 809.708 508.37 810.273C508.62 810.837 508.969 811.263 509.416 811.551C509.863 811.839 510.38 811.983 510.967 811.983C511.296 811.983 511.601 811.939 511.882 811.852C512.166 811.765 512.418 811.638 512.637 811.472C512.857 811.301 513.039 811.095 513.183 810.852C513.331 810.61 513.433 810.333 513.49 810.023L515.978 810.034C515.914 810.568 515.753 811.083 515.495 811.58C515.242 812.072 514.899 812.513 514.467 812.903C514.039 813.29 513.528 813.597 512.933 813.824C512.342 814.047 511.673 814.159 510.927 814.159C509.889 814.159 508.961 813.924 508.143 813.455C507.329 812.985 506.685 812.305 506.211 811.415C505.742 810.525 505.507 809.447 505.507 808.182C505.507 806.913 505.745 805.833 506.223 804.943C506.7 804.053 507.348 803.375 508.166 802.909C508.984 802.439 509.904 802.205 510.927 802.205C511.601 802.205 512.226 802.299 512.802 802.489C513.382 802.678 513.895 802.955 514.342 803.318C514.789 803.678 515.153 804.119 515.433 804.642C515.717 805.165 515.899 805.763 515.978 806.438ZM521.464 814.17C520.582 814.17 519.818 813.983 519.174 813.608C518.534 813.229 518.04 812.703 517.691 812.028C517.343 811.35 517.169 810.564 517.169 809.67C517.169 808.769 517.343 807.981 517.691 807.307C518.04 806.629 518.534 806.102 519.174 805.727C519.818 805.348 520.582 805.159 521.464 805.159C522.347 805.159 523.108 805.348 523.748 805.727C524.392 806.102 524.888 806.629 525.237 807.307C525.585 807.981 525.76 808.769 525.76 809.67C525.76 810.564 525.585 811.35 525.237 812.028C524.888 812.703 524.392 813.229 523.748 813.608C523.108 813.983 522.347 814.17 521.464 814.17ZM521.476 812.295C521.877 812.295 522.212 812.182 522.481 811.955C522.75 811.723 522.953 811.409 523.089 811.011C523.229 810.614 523.299 810.161 523.299 809.653C523.299 809.146 523.229 808.693 523.089 808.295C522.953 807.898 522.75 807.583 522.481 807.352C522.212 807.121 521.877 807.006 521.476 807.006C521.07 807.006 520.729 807.121 520.453 807.352C520.18 807.583 519.974 807.898 519.834 808.295C519.697 808.693 519.629 809.146 519.629 809.653C519.629 810.161 519.697 810.614 519.834 811.011C519.974 811.409 520.18 811.723 520.453 811.955C520.729 812.182 521.07 812.295 521.476 812.295ZM529.578 808.955V814H527.158V805.273H529.464V806.812H529.567C529.76 806.305 530.084 805.903 530.538 805.608C530.993 805.309 531.544 805.159 532.192 805.159C532.798 805.159 533.326 805.292 533.777 805.557C534.228 805.822 534.578 806.201 534.828 806.693C535.078 807.182 535.203 807.765 535.203 808.443V814H532.783V808.875C532.786 808.341 532.65 807.924 532.373 807.625C532.097 807.322 531.716 807.17 531.231 807.17C530.906 807.17 530.618 807.241 530.368 807.381C530.122 807.521 529.928 807.725 529.788 807.994C529.652 808.259 529.582 808.58 529.578 808.955ZM541.577 805.273V807.091H536.321V805.273H541.577ZM537.514 803.182H539.935V811.318C539.935 811.542 539.969 811.716 540.037 811.841C540.105 811.962 540.2 812.047 540.321 812.097C540.446 812.146 540.59 812.17 540.753 812.17C540.866 812.17 540.98 812.161 541.094 812.142C541.207 812.119 541.295 812.102 541.355 812.091L541.736 813.892C541.615 813.93 541.444 813.973 541.224 814.023C541.005 814.076 540.738 814.108 540.423 814.119C539.84 814.142 539.329 814.064 538.889 813.886C538.454 813.708 538.115 813.432 537.872 813.057C537.63 812.682 537.51 812.208 537.514 811.636V803.182ZM546.861 814.17C545.963 814.17 545.19 813.989 544.543 813.625C543.899 813.258 543.403 812.739 543.054 812.068C542.706 811.394 542.531 810.597 542.531 809.676C542.531 808.778 542.706 807.991 543.054 807.312C543.403 806.634 543.893 806.106 544.526 805.727C545.162 805.348 545.908 805.159 546.764 805.159C547.34 805.159 547.876 805.252 548.372 805.438C548.872 805.619 549.308 805.894 549.679 806.261C550.054 806.629 550.346 807.091 550.554 807.648C550.762 808.201 550.867 808.848 550.867 809.591V810.256H543.497V808.756H548.588C548.588 808.407 548.512 808.098 548.361 807.83C548.209 807.561 547.999 807.35 547.73 807.199C547.465 807.044 547.156 806.966 546.804 806.966C546.437 806.966 546.111 807.051 545.827 807.222C545.547 807.388 545.327 807.614 545.168 807.898C545.009 808.178 544.927 808.491 544.923 808.835V810.261C544.923 810.693 545.003 811.066 545.162 811.381C545.325 811.695 545.554 811.938 545.85 812.108C546.145 812.278 546.495 812.364 546.901 812.364C547.17 812.364 547.416 812.326 547.639 812.25C547.863 812.174 548.054 812.061 548.213 811.909C548.372 811.758 548.494 811.572 548.577 811.352L550.815 811.5C550.702 812.038 550.469 812.508 550.117 812.909C549.768 813.307 549.317 813.617 548.764 813.841C548.215 814.061 547.581 814.17 546.861 814.17ZM554.691 808.955V814H552.27V805.273H554.577V806.812H554.679C554.872 806.305 555.196 805.903 555.651 805.608C556.105 805.309 556.657 805.159 557.304 805.159C557.91 805.159 558.439 805.292 558.889 805.557C559.34 805.822 559.691 806.201 559.941 806.693C560.191 807.182 560.316 807.765 560.316 808.443V814H557.895V808.875C557.899 808.341 557.763 807.924 557.486 807.625C557.21 807.322 556.829 807.17 556.344 807.17C556.018 807.17 555.73 807.241 555.48 807.381C555.234 807.521 555.041 807.725 554.901 807.994C554.764 808.259 554.694 808.58 554.691 808.955ZM566.689 805.273V807.091H561.434V805.273H566.689ZM562.627 803.182H565.047V811.318C565.047 811.542 565.081 811.716 565.15 811.841C565.218 811.962 565.312 812.047 565.434 812.097C565.559 812.146 565.703 812.17 565.865 812.17C565.979 812.17 566.093 812.161 566.206 812.142C566.32 812.119 566.407 812.102 566.468 812.091L566.848 813.892C566.727 813.93 566.557 813.973 566.337 814.023C566.117 814.076 565.85 814.108 565.536 814.119C564.953 814.142 564.441 814.064 564.002 813.886C563.566 813.708 563.227 813.432 562.985 813.057C562.742 812.682 562.623 812.208 562.627 811.636V803.182Z" fill="white"/>
<rect x="672" y="768" width="176" height="80" rx="6" fill="#F24822"/>
<path d="M730.875 814H729.012L733.199 802.364H735.228L739.415 814H737.551L734.262 804.477H734.171L730.875 814ZM731.188 809.443H737.233V810.92H731.188V809.443ZM742.482 808.818V814H740.783V805.273H742.414V806.693H742.522C742.723 806.231 743.037 805.86 743.465 805.58C743.897 805.299 744.44 805.159 745.096 805.159C745.69 805.159 746.211 805.284 746.658 805.534C747.105 805.78 747.452 806.148 747.698 806.636C747.944 807.125 748.067 807.729 748.067 808.449V814H746.368V808.653C746.368 808.021 746.204 807.527 745.874 807.17C745.544 806.811 745.092 806.631 744.516 806.631C744.122 806.631 743.772 806.716 743.465 806.886C743.162 807.057 742.921 807.307 742.743 807.636C742.569 807.962 742.482 808.356 742.482 808.818ZM753.846 814.176C753.001 814.176 752.274 813.985 751.664 813.602C751.058 813.216 750.592 812.684 750.266 812.006C749.94 811.328 749.778 810.551 749.778 809.676C749.778 808.79 749.944 808.008 750.278 807.33C750.611 806.648 751.081 806.116 751.687 805.733C752.293 805.35 753.007 805.159 753.829 805.159C754.492 805.159 755.082 805.282 755.601 805.528C756.12 805.771 756.539 806.112 756.857 806.551C757.179 806.991 757.37 807.504 757.431 808.091H755.778C755.687 807.682 755.478 807.33 755.153 807.034C754.831 806.739 754.399 806.591 753.857 806.591C753.384 806.591 752.969 806.716 752.613 806.966C752.261 807.212 751.986 807.564 751.789 808.023C751.592 808.477 751.493 809.015 751.493 809.636C751.493 810.273 751.59 810.822 751.783 811.284C751.976 811.746 752.249 812.104 752.601 812.358C752.957 812.612 753.376 812.739 753.857 812.739C754.179 812.739 754.471 812.68 754.732 812.562C754.997 812.441 755.219 812.269 755.397 812.045C755.579 811.822 755.706 811.553 755.778 811.239H757.431C757.37 811.803 757.187 812.307 756.88 812.75C756.573 813.193 756.162 813.542 755.647 813.795C755.136 814.049 754.535 814.176 753.846 814.176ZM760.771 808.818V814H759.072V802.364H760.748V806.693H760.856C761.06 806.223 761.373 805.85 761.793 805.574C762.214 805.297 762.763 805.159 763.441 805.159C764.04 805.159 764.562 805.282 765.009 805.528C765.46 805.775 765.808 806.142 766.055 806.631C766.305 807.116 766.43 807.722 766.43 808.449V814H764.731V808.653C764.731 808.013 764.566 807.517 764.237 807.165C763.907 806.809 763.449 806.631 762.862 806.631C762.46 806.631 762.1 806.716 761.782 806.886C761.468 807.057 761.219 807.307 761.038 807.636C760.86 807.962 760.771 808.356 760.771 808.818ZM772.197 814.176C771.379 814.176 770.665 813.989 770.055 813.614C769.445 813.239 768.971 812.714 768.634 812.04C768.297 811.366 768.129 810.578 768.129 809.676C768.129 808.771 768.297 807.979 768.634 807.301C768.971 806.623 769.445 806.097 770.055 805.722C770.665 805.347 771.379 805.159 772.197 805.159C773.015 805.159 773.729 805.347 774.339 805.722C774.949 806.097 775.422 806.623 775.759 807.301C776.096 807.979 776.265 808.771 776.265 809.676C776.265 810.578 776.096 811.366 775.759 812.04C775.422 812.714 774.949 813.239 774.339 813.614C773.729 813.989 773.015 814.176 772.197 814.176ZM772.203 812.75C772.733 812.75 773.172 812.61 773.521 812.33C773.869 812.049 774.127 811.676 774.293 811.21C774.464 810.744 774.549 810.231 774.549 809.67C774.549 809.114 774.464 808.602 774.293 808.136C774.127 807.667 773.869 807.29 773.521 807.006C773.172 806.722 772.733 806.58 772.203 806.58C771.668 806.58 771.225 806.722 770.873 807.006C770.525 807.29 770.265 807.667 770.095 808.136C769.928 808.602 769.845 809.114 769.845 809.67C769.845 810.231 769.928 810.744 770.095 811.21C770.265 811.676 770.525 812.049 770.873 812.33C771.225 812.61 771.668 812.75 772.203 812.75ZM777.985 814V805.273H779.627V806.659H779.718C779.877 806.189 780.158 805.82 780.559 805.551C780.965 805.278 781.423 805.142 781.934 805.142C782.04 805.142 782.165 805.146 782.309 805.153C782.457 805.161 782.572 805.17 782.656 805.182V806.807C782.588 806.788 782.466 806.767 782.292 806.744C782.118 806.718 781.944 806.705 781.769 806.705C781.368 806.705 781.01 806.79 780.696 806.96C780.385 807.127 780.139 807.36 779.957 807.659C779.775 807.955 779.684 808.292 779.684 808.67V814H777.985ZM790.49 807.403L788.95 807.676C788.886 807.479 788.783 807.292 788.643 807.114C788.507 806.936 788.321 806.79 788.086 806.676C787.851 806.562 787.558 806.506 787.206 806.506C786.725 806.506 786.323 806.614 786.001 806.83C785.679 807.042 785.518 807.316 785.518 807.653C785.518 807.945 785.626 808.18 785.842 808.358C786.058 808.536 786.406 808.682 786.887 808.795L788.274 809.114C789.077 809.299 789.675 809.585 790.069 809.972C790.463 810.358 790.66 810.86 790.66 811.477C790.66 812 790.509 812.466 790.206 812.875C789.906 813.28 789.488 813.598 788.95 813.83C788.416 814.061 787.797 814.176 787.092 814.176C786.115 814.176 785.317 813.968 784.7 813.551C784.083 813.131 783.704 812.534 783.564 811.761L785.206 811.511C785.308 811.939 785.518 812.263 785.836 812.483C786.155 812.699 786.569 812.807 787.081 812.807C787.637 812.807 788.083 812.691 788.416 812.46C788.749 812.225 788.916 811.939 788.916 811.602C788.916 811.33 788.814 811.1 788.609 810.915C788.408 810.729 788.1 810.589 787.683 810.494L786.206 810.17C785.391 809.985 784.789 809.689 784.399 809.284C784.012 808.879 783.819 808.366 783.819 807.744C783.819 807.229 783.963 806.778 784.251 806.392C784.539 806.006 784.937 805.705 785.444 805.489C785.952 805.269 786.533 805.159 787.189 805.159C788.132 805.159 788.874 805.364 789.416 805.773C789.958 806.178 790.316 806.722 790.49 807.403Z" fill="white"/>
<rect x="672" y="864" width="176" height="80" rx="6" fill="#F24822"/>
<path d="M700.817 910H698.954L703.141 898.364H705.17L709.357 910H707.493L704.204 900.477H704.113L700.817 910ZM701.13 905.443H707.175V906.92H701.13V905.443ZM712.424 904.818V910H710.725V901.273H712.356V902.693H712.464C712.665 902.231 712.979 901.86 713.407 901.58C713.839 901.299 714.382 901.159 715.038 901.159C715.632 901.159 716.153 901.284 716.6 901.534C717.047 901.78 717.394 902.148 717.64 902.636C717.886 903.125 718.009 903.729 718.009 904.449V910H716.31V904.653C716.31 904.021 716.146 903.527 715.816 903.17C715.487 902.811 715.034 902.631 714.458 902.631C714.064 902.631 713.714 902.716 713.407 902.886C713.104 903.057 712.863 903.307 712.685 903.636C712.511 903.962 712.424 904.356 712.424 904.818ZM721.811 904.818V910H720.112V901.273H721.742V902.693H721.85C722.051 902.231 722.365 901.86 722.793 901.58C723.225 901.299 723.769 901.159 724.424 901.159C725.019 901.159 725.54 901.284 725.987 901.534C726.434 901.78 726.78 902.148 727.026 902.636C727.273 903.125 727.396 903.729 727.396 904.449V910H725.697V904.653C725.697 904.021 725.532 903.527 725.203 903.17C724.873 902.811 724.42 902.631 723.845 902.631C723.451 902.631 723.1 902.716 722.793 902.886C722.49 903.057 722.25 903.307 722.072 903.636C721.898 903.962 721.811 904.356 721.811 904.818ZM733.174 910.176C732.356 910.176 731.642 909.989 731.032 909.614C730.422 909.239 729.949 908.714 729.612 908.04C729.275 907.366 729.106 906.578 729.106 905.676C729.106 904.771 729.275 903.979 729.612 903.301C729.949 902.623 730.422 902.097 731.032 901.722C731.642 901.347 732.356 901.159 733.174 901.159C733.992 901.159 734.707 901.347 735.316 901.722C735.926 902.097 736.4 902.623 736.737 903.301C737.074 903.979 737.242 904.771 737.242 905.676C737.242 906.578 737.074 907.366 736.737 908.04C736.4 908.714 735.926 909.239 735.316 909.614C734.707 909.989 733.992 910.176 733.174 910.176ZM733.18 908.75C733.71 908.75 734.15 908.61 734.498 908.33C734.847 908.049 735.104 907.676 735.271 907.21C735.441 906.744 735.527 906.231 735.527 905.67C735.527 905.114 735.441 904.602 735.271 904.136C735.104 903.667 734.847 903.29 734.498 903.006C734.15 902.722 733.71 902.58 733.18 902.58C732.646 902.58 732.203 902.722 731.85 903.006C731.502 903.29 731.242 903.667 731.072 904.136C730.905 904.602 730.822 905.114 730.822 905.67C730.822 906.231 730.905 906.744 731.072 907.21C731.242 907.676 731.502 908.049 731.85 908.33C732.203 908.61 732.646 908.75 733.18 908.75ZM744.491 906.381V901.273H746.196V910H744.525V908.489H744.434C744.234 908.955 743.912 909.343 743.468 909.653C743.029 909.96 742.482 910.114 741.826 910.114C741.266 910.114 740.77 909.991 740.338 909.744C739.91 909.494 739.573 909.125 739.326 908.636C739.084 908.148 738.963 907.544 738.963 906.824V901.273H740.662V906.619C740.662 907.214 740.826 907.687 741.156 908.04C741.486 908.392 741.914 908.568 742.44 908.568C742.758 908.568 743.075 908.489 743.389 908.33C743.707 908.17 743.97 907.93 744.179 907.608C744.391 907.286 744.495 906.877 744.491 906.381ZM750.001 904.818V910H748.302V901.273H749.933V902.693H750.041C750.242 902.231 750.556 901.86 750.984 901.58C751.416 901.299 751.96 901.159 752.615 901.159C753.21 901.159 753.73 901.284 754.177 901.534C754.624 901.78 754.971 902.148 755.217 902.636C755.463 903.125 755.587 903.729 755.587 904.449V910H753.888V904.653C753.888 904.021 753.723 903.527 753.393 903.17C753.064 902.811 752.611 902.631 752.035 902.631C751.641 902.631 751.291 902.716 750.984 902.886C750.681 903.057 750.441 903.307 750.263 903.636C750.088 903.962 750.001 904.356 750.001 904.818ZM761.365 910.176C760.52 910.176 759.793 909.985 759.183 909.602C758.577 909.216 758.111 908.684 757.786 908.006C757.46 907.328 757.297 906.551 757.297 905.676C757.297 904.79 757.464 904.008 757.797 903.33C758.13 902.648 758.6 902.116 759.206 901.733C759.812 901.35 760.526 901.159 761.348 901.159C762.011 901.159 762.602 901.282 763.121 901.528C763.64 901.771 764.058 902.112 764.376 902.551C764.698 902.991 764.89 903.504 764.95 904.091H763.297C763.206 903.682 762.998 903.33 762.672 903.034C762.35 902.739 761.918 902.591 761.376 902.591C760.903 902.591 760.488 902.716 760.132 902.966C759.78 903.212 759.505 903.564 759.308 904.023C759.111 904.477 759.013 905.015 759.013 905.636C759.013 906.273 759.109 906.822 759.303 907.284C759.496 907.746 759.768 908.104 760.121 908.358C760.477 908.612 760.895 908.739 761.376 908.739C761.698 908.739 761.99 908.68 762.251 908.562C762.517 908.441 762.738 908.269 762.916 908.045C763.098 907.822 763.225 907.553 763.297 907.239H764.95C764.89 907.803 764.706 908.307 764.399 908.75C764.092 909.193 763.681 909.542 763.166 909.795C762.655 910.049 762.054 910.176 761.365 910.176ZM770.352 910.176C769.493 910.176 768.752 909.992 768.131 909.625C767.513 909.254 767.036 908.733 766.699 908.062C766.366 907.388 766.199 906.598 766.199 905.693C766.199 904.799 766.366 904.011 766.699 903.33C767.036 902.648 767.506 902.116 768.108 901.733C768.714 901.35 769.422 901.159 770.233 901.159C770.726 901.159 771.203 901.241 771.665 901.403C772.127 901.566 772.542 901.822 772.909 902.17C773.277 902.519 773.566 902.972 773.779 903.528C773.991 904.081 774.097 904.754 774.097 905.545V906.148H767.159V904.875H772.432C772.432 904.428 772.341 904.032 772.159 903.688C771.977 903.339 771.722 903.064 771.392 902.864C771.066 902.663 770.684 902.562 770.244 902.562C769.767 902.562 769.351 902.68 768.994 902.915C768.642 903.146 768.369 903.449 768.176 903.824C767.987 904.195 767.892 904.598 767.892 905.034V906.028C767.892 906.612 767.994 907.108 768.199 907.517C768.407 907.926 768.697 908.239 769.068 908.455C769.44 908.667 769.873 908.773 770.369 908.773C770.691 908.773 770.985 908.727 771.25 908.636C771.515 908.542 771.744 908.402 771.938 908.216C772.131 908.03 772.279 907.801 772.381 907.528L773.989 907.818C773.86 908.292 773.629 908.706 773.296 909.062C772.966 909.415 772.551 909.689 772.051 909.886C771.555 910.08 770.989 910.176 770.352 910.176ZM775.806 910V901.273H777.436V902.693H777.544C777.726 902.212 778.023 901.837 778.436 901.568C778.849 901.295 779.344 901.159 779.919 901.159C780.503 901.159 780.991 901.295 781.385 901.568C781.783 901.841 782.077 902.216 782.266 902.693H782.357C782.565 902.227 782.897 901.856 783.351 901.58C783.806 901.299 784.347 901.159 784.976 901.159C785.768 901.159 786.414 901.407 786.914 901.903C787.417 902.4 787.669 903.148 787.669 904.148V910H785.97V904.307C785.97 903.716 785.809 903.288 785.487 903.023C785.166 902.758 784.781 902.625 784.334 902.625C783.781 902.625 783.351 902.795 783.044 903.136C782.737 903.473 782.584 903.907 782.584 904.438V910H780.891V904.199C780.891 903.725 780.743 903.345 780.448 903.057C780.152 902.769 779.768 902.625 779.294 902.625C778.972 902.625 778.675 902.71 778.402 902.881C778.133 903.047 777.916 903.28 777.749 903.58C777.586 903.879 777.505 904.225 777.505 904.619V910H775.806ZM793.532 910.176C792.672 910.176 791.931 909.992 791.31 909.625C790.693 909.254 790.215 908.733 789.878 908.062C789.545 907.388 789.378 906.598 789.378 905.693C789.378 904.799 789.545 904.011 789.878 903.33C790.215 902.648 790.685 902.116 791.287 901.733C791.893 901.35 792.602 901.159 793.412 901.159C793.905 901.159 794.382 901.241 794.844 901.403C795.306 901.566 795.721 901.822 796.088 902.17C796.456 902.519 796.746 902.972 796.958 903.528C797.17 904.081 797.276 904.754 797.276 905.545V906.148H790.338V904.875H795.611C795.611 904.428 795.52 904.032 795.338 903.688C795.157 903.339 794.901 903.064 794.571 902.864C794.246 902.663 793.863 902.562 793.424 902.562C792.946 902.562 792.53 902.68 792.174 902.915C791.821 903.146 791.549 903.449 791.356 903.824C791.166 904.195 791.071 904.598 791.071 905.034V906.028C791.071 906.612 791.174 907.108 791.378 907.517C791.587 907.926 791.876 908.239 792.248 908.455C792.619 908.667 793.052 908.773 793.549 908.773C793.871 908.773 794.164 908.727 794.429 908.636C794.695 908.542 794.924 908.402 795.117 908.216C795.31 908.03 795.458 907.801 795.56 907.528L797.168 907.818C797.039 908.292 796.808 908.706 796.475 909.062C796.145 909.415 795.731 909.689 795.231 909.886C794.734 910.08 794.168 910.176 793.532 910.176ZM800.684 904.818V910H798.985V901.273H800.616V902.693H800.724C800.924 902.231 801.239 901.86 801.667 901.58C802.099 901.299 802.642 901.159 803.297 901.159C803.892 901.159 804.413 901.284 804.86 901.534C805.307 901.78 805.653 902.148 805.9 902.636C806.146 903.125 806.269 903.729 806.269 904.449V910H804.57V904.653C804.57 904.021 804.405 903.527 804.076 903.17C803.746 902.811 803.294 902.631 802.718 902.631C802.324 902.631 801.974 902.716 801.667 902.886C801.364 903.057 801.123 903.307 800.945 903.636C800.771 903.962 800.684 904.356 800.684 904.818ZM812.445 901.273V902.636H807.678V901.273H812.445ZM808.957 899.182H810.656V907.438C810.656 907.767 810.705 908.015 810.803 908.182C810.902 908.345 811.029 908.456 811.184 908.517C811.343 908.574 811.515 908.602 811.701 908.602C811.837 908.602 811.957 908.593 812.059 908.574C812.161 908.555 812.241 908.54 812.298 908.528L812.604 909.932C812.506 909.97 812.366 910.008 812.184 910.045C812.002 910.087 811.775 910.11 811.502 910.114C811.055 910.121 810.638 910.042 810.252 909.875C809.866 909.708 809.553 909.451 809.315 909.102C809.076 908.754 808.957 908.316 808.957 907.79V899.182ZM820.548 903.403L819.008 903.676C818.944 903.479 818.841 903.292 818.701 903.114C818.565 902.936 818.379 902.79 818.144 902.676C817.909 902.562 817.616 902.506 817.264 902.506C816.783 902.506 816.381 902.614 816.059 902.83C815.737 903.042 815.576 903.316 815.576 903.653C815.576 903.945 815.684 904.18 815.9 904.358C816.116 904.536 816.464 904.682 816.945 904.795L818.332 905.114C819.135 905.299 819.733 905.585 820.127 905.972C820.521 906.358 820.718 906.86 820.718 907.477C820.718 908 820.567 908.466 820.264 908.875C819.964 909.28 819.546 909.598 819.008 909.83C818.474 910.061 817.855 910.176 817.15 910.176C816.173 910.176 815.375 909.968 814.758 909.551C814.14 909.131 813.762 908.534 813.622 907.761L815.264 907.511C815.366 907.939 815.576 908.263 815.894 908.483C816.212 908.699 816.627 908.807 817.139 908.807C817.695 908.807 818.14 908.691 818.474 908.46C818.807 908.225 818.974 907.939 818.974 907.602C818.974 907.33 818.872 907.1 818.667 906.915C818.466 906.729 818.158 906.589 817.741 906.494L816.264 906.17C815.449 905.985 814.847 905.689 814.457 905.284C814.07 904.879 813.877 904.366 813.877 903.744C813.877 903.229 814.021 902.778 814.309 902.392C814.597 902.006 814.995 901.705 815.502 901.489C816.01 901.269 816.591 901.159 817.247 901.159C818.19 901.159 818.932 901.364 819.474 901.773C820.015 902.178 820.373 902.722 820.548 903.403Z" fill="white"/>
<rect x="672" y="1056" width="176" height="80" rx="6" fill="#14AE5C"/>
<path d="M729.718 1093.42C729.657 1092.88 729.407 1092.47 728.968 1092.17C728.528 1091.87 727.975 1091.72 727.308 1091.72C726.831 1091.72 726.418 1091.8 726.07 1091.95C725.721 1092.1 725.451 1092.3 725.257 1092.56C725.068 1092.82 724.973 1093.11 724.973 1093.44C724.973 1093.72 725.038 1093.96 725.166 1094.16C725.299 1094.36 725.471 1094.53 725.683 1094.66C725.899 1094.8 726.13 1094.91 726.377 1095C726.623 1095.09 726.86 1095.16 727.087 1095.22L728.223 1095.51C728.594 1095.6 728.975 1095.73 729.365 1095.88C729.755 1096.04 730.117 1096.24 730.451 1096.49C730.784 1096.75 731.053 1097.06 731.257 1097.44C731.466 1097.81 731.57 1098.26 731.57 1098.78C731.57 1099.44 731.399 1100.03 731.058 1100.54C730.721 1101.05 730.231 1101.45 729.587 1101.75C728.947 1102.05 728.172 1102.19 727.263 1102.19C726.392 1102.19 725.638 1102.05 725.002 1101.78C724.365 1101.5 723.867 1101.11 723.507 1100.6C723.147 1100.09 722.949 1099.48 722.911 1098.78H724.672C724.706 1099.2 724.843 1099.55 725.081 1099.84C725.324 1100.11 725.632 1100.32 726.007 1100.45C726.386 1100.59 726.801 1100.65 727.252 1100.65C727.748 1100.65 728.189 1100.58 728.576 1100.42C728.966 1100.26 729.272 1100.04 729.496 1099.76C729.719 1099.48 729.831 1099.15 729.831 1098.77C729.831 1098.42 729.733 1098.14 729.536 1097.92C729.343 1097.7 729.079 1097.52 728.746 1097.38C728.416 1097.23 728.043 1097.1 727.627 1096.99L726.252 1096.62C725.32 1096.37 724.581 1095.99 724.036 1095.5C723.494 1095.01 723.223 1094.36 723.223 1093.55C723.223 1092.87 723.405 1092.29 723.769 1091.79C724.132 1091.29 724.625 1090.9 725.246 1090.62C725.867 1090.34 726.568 1090.2 727.348 1090.2C728.136 1090.2 728.831 1090.34 729.433 1090.62C730.04 1090.9 730.517 1091.28 730.865 1091.76C731.214 1092.24 731.396 1092.8 731.411 1093.42H729.718ZM737.117 1102.18C736.257 1102.18 735.516 1101.99 734.895 1101.62C734.278 1101.25 733.801 1100.73 733.463 1100.06C733.13 1099.39 732.963 1098.6 732.963 1097.69C732.963 1096.8 733.13 1096.01 733.463 1095.33C733.801 1094.65 734.27 1094.12 734.873 1093.73C735.479 1093.35 736.187 1093.16 736.998 1093.16C737.49 1093.16 737.967 1093.24 738.429 1093.4C738.891 1093.57 739.306 1093.82 739.674 1094.17C740.041 1094.52 740.331 1094.97 740.543 1095.53C740.755 1096.08 740.861 1096.75 740.861 1097.55V1098.15H733.924V1096.88H739.196C739.196 1096.43 739.105 1096.03 738.924 1095.69C738.742 1095.34 738.486 1095.06 738.157 1094.86C737.831 1094.66 737.448 1094.56 737.009 1094.56C736.532 1094.56 736.115 1094.68 735.759 1094.91C735.407 1095.15 735.134 1095.45 734.941 1095.82C734.751 1096.2 734.657 1096.6 734.657 1097.03V1098.03C734.657 1098.61 734.759 1099.11 734.963 1099.52C735.172 1099.93 735.462 1100.24 735.833 1100.45C736.204 1100.67 736.638 1100.77 737.134 1100.77C737.456 1100.77 737.749 1100.73 738.015 1100.64C738.28 1100.54 738.509 1100.4 738.702 1100.22C738.895 1100.03 739.043 1099.8 739.145 1099.53L740.753 1099.82C740.624 1100.29 740.393 1100.71 740.06 1101.06C739.73 1101.41 739.316 1101.69 738.816 1101.89C738.32 1102.08 737.753 1102.18 737.117 1102.18ZM746.229 1105.45C745.536 1105.45 744.939 1105.36 744.439 1105.18C743.943 1105 743.538 1104.76 743.224 1104.46C742.909 1104.16 742.674 1103.83 742.519 1103.48L743.979 1102.88C744.081 1103.04 744.218 1103.22 744.388 1103.4C744.563 1103.59 744.797 1103.75 745.093 1103.89C745.392 1104.02 745.777 1104.09 746.246 1104.09C746.89 1104.09 747.422 1103.93 747.843 1103.61C748.263 1103.3 748.474 1102.81 748.474 1102.12V1100.41H748.366C748.263 1100.59 748.116 1100.8 747.922 1101.03C747.733 1101.26 747.472 1101.45 747.138 1101.62C746.805 1101.79 746.371 1101.87 745.837 1101.87C745.148 1101.87 744.527 1101.71 743.974 1101.39C743.424 1101.06 742.989 1100.58 742.667 1099.95C742.349 1099.31 742.189 1098.53 742.189 1097.6C742.189 1096.67 742.347 1095.88 742.661 1095.22C742.979 1094.55 743.415 1094.05 743.968 1093.69C744.521 1093.34 745.148 1093.16 745.849 1093.16C746.39 1093.16 746.828 1093.25 747.161 1093.43C747.494 1093.61 747.754 1093.82 747.939 1094.06C748.129 1094.3 748.275 1094.51 748.377 1094.69H748.502V1093.27H750.167V1102.19C750.167 1102.94 749.992 1103.56 749.644 1104.04C749.295 1104.52 748.824 1104.88 748.229 1105.11C747.638 1105.34 746.972 1105.45 746.229 1105.45ZM746.212 1100.46C746.701 1100.46 747.114 1100.35 747.451 1100.12C747.792 1099.89 748.049 1099.56 748.224 1099.13C748.402 1098.7 748.491 1098.18 748.491 1097.58C748.491 1096.99 748.403 1096.48 748.229 1096.03C748.055 1095.58 747.799 1095.23 747.462 1094.98C747.125 1094.73 746.708 1094.6 746.212 1094.6C745.701 1094.6 745.275 1094.73 744.934 1095C744.593 1095.26 744.335 1095.62 744.161 1096.07C743.991 1096.52 743.905 1097.02 743.905 1097.58C743.905 1098.15 743.992 1098.65 744.167 1099.09C744.341 1099.52 744.599 1099.85 744.939 1100.1C745.284 1100.34 745.708 1100.46 746.212 1100.46ZM752.269 1102V1093.27H753.9V1094.69H754.008C754.19 1094.21 754.487 1093.84 754.9 1093.57C755.313 1093.3 755.807 1093.16 756.383 1093.16C756.966 1093.16 757.455 1093.3 757.849 1093.57C758.246 1093.84 758.54 1094.22 758.729 1094.69H758.82C759.029 1094.23 759.36 1093.86 759.815 1093.58C760.269 1093.3 760.811 1093.16 761.44 1093.16C762.231 1093.16 762.877 1093.41 763.377 1093.9C763.881 1094.4 764.133 1095.15 764.133 1096.15V1102H762.434V1096.31C762.434 1095.72 762.273 1095.29 761.951 1095.02C761.629 1094.76 761.244 1094.62 760.798 1094.62C760.244 1094.62 759.815 1094.8 759.508 1095.14C759.201 1095.47 759.048 1095.91 759.048 1096.44V1102H757.354V1096.2C757.354 1095.73 757.207 1095.34 756.911 1095.06C756.616 1094.77 756.231 1094.62 755.758 1094.62C755.436 1094.62 755.138 1094.71 754.866 1094.88C754.597 1095.05 754.379 1095.28 754.212 1095.58C754.049 1095.88 753.968 1096.23 753.968 1096.62V1102H752.269ZM769.995 1102.18C769.135 1102.18 768.395 1101.99 767.774 1101.62C767.156 1101.25 766.679 1100.73 766.342 1100.06C766.008 1099.39 765.842 1098.6 765.842 1097.69C765.842 1096.8 766.008 1096.01 766.342 1095.33C766.679 1094.65 767.149 1094.12 767.751 1093.73C768.357 1093.35 769.065 1093.16 769.876 1093.16C770.368 1093.16 770.845 1093.24 771.308 1093.4C771.77 1093.57 772.184 1093.82 772.552 1094.17C772.919 1094.52 773.209 1094.97 773.421 1095.53C773.633 1096.08 773.739 1096.75 773.739 1097.55V1098.15H766.802V1096.88H772.075C772.075 1096.43 771.984 1096.03 771.802 1095.69C771.62 1095.34 771.364 1095.06 771.035 1094.86C770.709 1094.66 770.327 1094.56 769.887 1094.56C769.41 1094.56 768.993 1094.68 768.637 1094.91C768.285 1095.15 768.012 1095.45 767.819 1095.82C767.63 1096.2 767.535 1096.6 767.535 1097.03V1098.03C767.535 1098.61 767.637 1099.11 767.842 1099.52C768.05 1099.93 768.34 1100.24 768.711 1100.45C769.082 1100.67 769.516 1100.77 770.012 1100.77C770.334 1100.77 770.628 1100.73 770.893 1100.64C771.158 1100.54 771.387 1100.4 771.58 1100.22C771.774 1100.03 771.921 1099.8 772.024 1099.53L773.631 1099.82C773.503 1100.29 773.272 1100.71 772.938 1101.06C772.609 1101.41 772.194 1101.69 771.694 1101.89C771.198 1102.08 770.631 1102.18 769.995 1102.18ZM777.147 1096.82V1102H775.448V1093.27H777.079V1094.69H777.187C777.388 1094.23 777.702 1093.86 778.13 1093.58C778.562 1093.3 779.106 1093.16 779.761 1093.16C780.356 1093.16 780.876 1093.28 781.323 1093.53C781.77 1093.78 782.117 1094.15 782.363 1094.64C782.609 1095.12 782.732 1095.73 782.732 1096.45V1102H781.034V1096.65C781.034 1096.02 780.869 1095.53 780.539 1095.17C780.21 1094.81 779.757 1094.63 779.181 1094.63C778.787 1094.63 778.437 1094.72 778.13 1094.89C777.827 1095.06 777.587 1095.31 777.409 1095.64C777.234 1095.96 777.147 1096.36 777.147 1096.82ZM788.909 1093.27V1094.64H784.142V1093.27H788.909ZM785.42 1091.18H787.119V1099.44C787.119 1099.77 787.168 1100.02 787.267 1100.18C787.365 1100.34 787.492 1100.46 787.647 1100.52C787.806 1100.57 787.979 1100.6 788.164 1100.6C788.301 1100.6 788.42 1100.59 788.522 1100.57C788.625 1100.55 788.704 1100.54 788.761 1100.53L789.068 1101.93C788.969 1101.97 788.829 1102.01 788.647 1102.05C788.466 1102.09 788.238 1102.11 787.966 1102.11C787.519 1102.12 787.102 1102.04 786.716 1101.88C786.329 1101.71 786.017 1101.45 785.778 1101.1C785.539 1100.75 785.42 1100.32 785.42 1099.79V1091.18ZM797.011 1095.4L795.471 1095.68C795.407 1095.48 795.305 1095.29 795.165 1095.11C795.028 1094.94 794.843 1094.79 794.608 1094.68C794.373 1094.56 794.079 1094.51 793.727 1094.51C793.246 1094.51 792.844 1094.61 792.522 1094.83C792.201 1095.04 792.04 1095.32 792.04 1095.65C792.04 1095.95 792.147 1096.18 792.363 1096.36C792.579 1096.54 792.928 1096.68 793.409 1096.8L794.795 1097.11C795.598 1097.3 796.197 1097.59 796.591 1097.97C796.985 1098.36 797.182 1098.86 797.182 1099.48C797.182 1100 797.03 1100.47 796.727 1100.88C796.428 1101.28 796.009 1101.6 795.471 1101.83C794.937 1102.06 794.318 1102.18 793.613 1102.18C792.636 1102.18 791.839 1101.97 791.221 1101.55C790.604 1101.13 790.225 1100.53 790.085 1099.76L791.727 1099.51C791.829 1099.94 792.04 1100.26 792.358 1100.48C792.676 1100.7 793.091 1100.81 793.602 1100.81C794.159 1100.81 794.604 1100.69 794.937 1100.46C795.271 1100.23 795.437 1099.94 795.437 1099.6C795.437 1099.33 795.335 1099.1 795.13 1098.91C794.93 1098.73 794.621 1098.59 794.204 1098.49L792.727 1098.17C791.913 1097.98 791.31 1097.69 790.92 1097.28C790.534 1096.88 790.341 1096.37 790.341 1095.74C790.341 1095.23 790.485 1094.78 790.772 1094.39C791.06 1094.01 791.458 1093.7 791.966 1093.49C792.473 1093.27 793.055 1093.16 793.71 1093.16C794.653 1093.16 795.396 1093.36 795.937 1093.77C796.479 1094.18 796.837 1094.72 797.011 1095.4Z" fill="white"/>
<rect x="672" y="960" width="176" height="80" rx="6" fill="#F24822"/>
<path d="M742.635 997.42C742.575 996.883 742.325 996.466 741.885 996.17C741.446 995.871 740.893 995.722 740.226 995.722C739.749 995.722 739.336 995.797 738.988 995.949C738.639 996.097 738.368 996.301 738.175 996.562C737.986 996.82 737.891 997.114 737.891 997.443C737.891 997.72 737.955 997.958 738.084 998.159C738.217 998.36 738.389 998.528 738.601 998.665C738.817 998.797 739.048 998.909 739.294 999C739.541 999.087 739.777 999.159 740.005 999.216L741.141 999.511C741.512 999.602 741.893 999.725 742.283 999.881C742.673 1000.04 743.035 1000.24 743.368 1000.49C743.702 1000.75 743.971 1001.06 744.175 1001.44C744.383 1001.81 744.488 1002.26 744.488 1002.78C744.488 1003.44 744.317 1004.03 743.976 1004.54C743.639 1005.05 743.149 1005.45 742.505 1005.75C741.864 1006.05 741.09 1006.19 740.181 1006.19C739.31 1006.19 738.556 1006.05 737.919 1005.78C737.283 1005.5 736.785 1005.11 736.425 1004.6C736.065 1004.09 735.866 1003.48 735.828 1002.78H737.59C737.624 1003.2 737.76 1003.55 737.999 1003.84C738.241 1004.11 738.55 1004.32 738.925 1004.45C739.304 1004.59 739.719 1004.65 740.169 1004.65C740.666 1004.65 741.107 1004.58 741.493 1004.42C741.883 1004.26 742.19 1004.04 742.414 1003.76C742.637 1003.48 742.749 1003.15 742.749 1002.77C742.749 1002.42 742.65 1002.14 742.453 1001.92C742.26 1001.7 741.997 1001.52 741.664 1001.38C741.334 1001.23 740.961 1001.1 740.544 1000.99L739.169 1000.62C738.238 1000.37 737.499 999.992 736.953 999.5C736.412 999.008 736.141 998.356 736.141 997.545C736.141 996.875 736.323 996.29 736.686 995.79C737.05 995.29 737.543 994.902 738.164 994.625C738.785 994.345 739.486 994.205 740.266 994.205C741.054 994.205 741.749 994.343 742.351 994.619C742.957 994.896 743.435 995.277 743.783 995.761C744.132 996.242 744.313 996.795 744.328 997.42H742.635ZM746.273 1009.27V997.273H747.932V998.688H748.074C748.173 998.506 748.315 998.295 748.501 998.057C748.686 997.818 748.944 997.61 749.273 997.432C749.603 997.25 750.038 997.159 750.58 997.159C751.285 997.159 751.913 997.337 752.466 997.693C753.019 998.049 753.453 998.562 753.768 999.233C754.086 999.903 754.245 1000.71 754.245 1001.65C754.245 1002.6 754.088 1003.41 753.773 1004.08C753.459 1004.75 753.027 1005.27 752.478 1005.63C751.929 1005.99 751.302 1006.17 750.597 1006.17C750.067 1006.17 749.633 1006.08 749.296 1005.9C748.963 1005.73 748.701 1005.52 748.512 1005.28C748.322 1005.04 748.177 1004.83 748.074 1004.64H747.972V1009.27H746.273ZM747.938 1001.64C747.938 1002.25 748.027 1002.79 748.205 1003.25C748.383 1003.71 748.641 1004.07 748.978 1004.34C749.315 1004.59 749.728 1004.72 750.216 1004.72C750.724 1004.72 751.148 1004.59 751.489 1004.32C751.83 1004.05 752.088 1003.68 752.262 1003.21C752.44 1002.74 752.529 1002.22 752.529 1001.64C752.529 1001.06 752.442 1000.54 752.268 1000.09C752.097 999.627 751.84 999.265 751.495 999C751.154 998.735 750.728 998.602 750.216 998.602C749.724 998.602 749.307 998.729 748.966 998.983C748.629 999.237 748.374 999.591 748.199 1000.05C748.025 1000.5 747.938 1001.03 747.938 1001.64ZM759.648 1006.18C758.83 1006.18 758.116 1005.99 757.506 1005.61C756.896 1005.24 756.423 1004.71 756.086 1004.04C755.749 1003.37 755.58 1002.58 755.58 1001.68C755.58 1000.77 755.749 999.979 756.086 999.301C756.423 998.623 756.896 998.097 757.506 997.722C758.116 997.347 758.83 997.159 759.648 997.159C760.467 997.159 761.181 997.347 761.79 997.722C762.4 998.097 762.874 998.623 763.211 999.301C763.548 999.979 763.717 1000.77 763.717 1001.68C763.717 1002.58 763.548 1003.37 763.211 1004.04C762.874 1004.71 762.4 1005.24 761.79 1005.61C761.181 1005.99 760.467 1006.18 759.648 1006.18ZM759.654 1004.75C760.184 1004.75 760.624 1004.61 760.972 1004.33C761.321 1004.05 761.578 1003.68 761.745 1003.21C761.915 1002.74 762.001 1002.23 762.001 1001.67C762.001 1001.11 761.915 1000.6 761.745 1000.14C761.578 999.667 761.321 999.29 760.972 999.006C760.624 998.722 760.184 998.58 759.654 998.58C759.12 998.58 758.677 998.722 758.325 999.006C757.976 999.29 757.717 999.667 757.546 1000.14C757.379 1000.6 757.296 1001.11 757.296 1001.67C757.296 1002.23 757.379 1002.74 757.546 1003.21C757.717 1003.68 757.976 1004.05 758.325 1004.33C758.677 1004.61 759.12 1004.75 759.654 1004.75ZM765.437 1006V997.273H767.079V998.659H767.17C767.329 998.189 767.609 997.82 768.011 997.551C768.416 997.278 768.874 997.142 769.386 997.142C769.492 997.142 769.617 997.146 769.761 997.153C769.908 997.161 770.024 997.17 770.107 997.182V998.807C770.039 998.788 769.918 998.767 769.744 998.744C769.569 998.718 769.395 998.705 769.221 998.705C768.819 998.705 768.461 998.79 768.147 998.96C767.836 999.127 767.59 999.36 767.408 999.659C767.227 999.955 767.136 1000.29 767.136 1000.67V1006H765.437ZM775.991 997.273V998.636H771.224V997.273H775.991ZM772.502 995.182H774.201V1003.44C774.201 1003.77 774.25 1004.02 774.349 1004.18C774.447 1004.34 774.574 1004.46 774.73 1004.52C774.889 1004.57 775.061 1004.6 775.247 1004.6C775.383 1004.6 775.502 1004.59 775.605 1004.57C775.707 1004.55 775.786 1004.54 775.843 1004.53L776.15 1005.93C776.052 1005.97 775.911 1006.01 775.73 1006.05C775.548 1006.09 775.321 1006.11 775.048 1006.11C774.601 1006.12 774.184 1006.04 773.798 1005.88C773.411 1005.71 773.099 1005.45 772.86 1005.1C772.622 1004.75 772.502 1004.32 772.502 1003.79V995.182ZM784.093 999.403L782.554 999.676C782.489 999.479 782.387 999.292 782.247 999.114C782.11 998.936 781.925 998.79 781.69 998.676C781.455 998.562 781.162 998.506 780.809 998.506C780.328 998.506 779.927 998.614 779.605 998.83C779.283 999.042 779.122 999.316 779.122 999.653C779.122 999.945 779.23 1000.18 779.446 1000.36C779.662 1000.54 780.01 1000.68 780.491 1000.8L781.877 1001.11C782.68 1001.3 783.279 1001.59 783.673 1001.97C784.067 1002.36 784.264 1002.86 784.264 1003.48C784.264 1004 784.112 1004.47 783.809 1004.88C783.51 1005.28 783.091 1005.6 782.554 1005.83C782.02 1006.06 781.4 1006.18 780.696 1006.18C779.718 1006.18 778.921 1005.97 778.304 1005.55C777.686 1005.13 777.307 1004.53 777.167 1003.76L778.809 1003.51C778.912 1003.94 779.122 1004.26 779.44 1004.48C779.758 1004.7 780.173 1004.81 780.684 1004.81C781.241 1004.81 781.686 1004.69 782.02 1004.46C782.353 1004.23 782.52 1003.94 782.52 1003.6C782.52 1003.33 782.417 1003.1 782.213 1002.91C782.012 1002.73 781.703 1002.59 781.287 1002.49L779.809 1002.17C778.995 1001.98 778.393 1001.69 778.002 1001.28C777.616 1000.88 777.423 1000.37 777.423 999.744C777.423 999.229 777.567 998.778 777.855 998.392C778.143 998.006 778.54 997.705 779.048 997.489C779.555 997.269 780.137 997.159 780.792 997.159C781.735 997.159 782.478 997.364 783.02 997.773C783.561 998.178 783.919 998.722 784.093 999.403Z" fill="white"/>
<rect x="672" width="176" height="80" rx="6" fill="#F24822"/>
<path d="M723.565 46V34.3636H726.025V39.1648H731.019V34.3636H733.474V46H731.019V41.1932H726.025V46H723.565ZM737.77 46.1648C737.213 46.1648 736.717 46.0682 736.281 45.875C735.845 45.678 735.501 45.3883 735.247 45.0057C734.997 44.6193 734.872 44.1383 734.872 43.5625C734.872 43.0777 734.961 42.6705 735.139 42.3409C735.317 42.0114 735.559 41.7462 735.866 41.5455C736.173 41.3447 736.521 41.1932 736.912 41.0909C737.306 40.9886 737.718 40.9167 738.15 40.875C738.658 40.822 739.067 40.7727 739.378 40.7273C739.688 40.678 739.913 40.6061 740.054 40.5114C740.194 40.4167 740.264 40.2765 740.264 40.0909V40.0568C740.264 39.697 740.15 39.4186 739.923 39.2216C739.699 39.0246 739.381 38.9261 738.968 38.9261C738.533 38.9261 738.186 39.0227 737.929 39.2159C737.671 39.4053 737.501 39.6439 737.417 39.9318L735.179 39.75C735.292 39.2197 735.516 38.7614 735.849 38.375C736.182 37.9848 736.612 37.6856 737.139 37.4773C737.669 37.2652 738.283 37.1591 738.98 37.1591C739.465 37.1591 739.929 37.2159 740.372 37.3295C740.819 37.4432 741.215 37.6193 741.559 37.858C741.908 38.0966 742.182 38.4034 742.383 38.7784C742.584 39.1496 742.684 39.5947 742.684 40.1136V46H740.389V44.7898H740.321C740.181 45.0625 739.993 45.303 739.758 45.5114C739.523 45.7159 739.241 45.8769 738.912 45.9943C738.582 46.108 738.201 46.1648 737.77 46.1648ZM738.463 44.4943C738.819 44.4943 739.133 44.4242 739.406 44.2841C739.679 44.1402 739.893 43.947 740.048 43.7045C740.203 43.4621 740.281 43.1875 740.281 42.8807V41.9545C740.205 42.0038 740.101 42.0492 739.968 42.0909C739.84 42.1288 739.694 42.1648 739.531 42.1989C739.368 42.2292 739.205 42.2576 739.042 42.2841C738.879 42.3068 738.732 42.3277 738.599 42.3466C738.315 42.3883 738.067 42.4545 737.855 42.5455C737.643 42.6364 737.478 42.7595 737.36 42.9148C737.243 43.0663 737.184 43.2557 737.184 43.483C737.184 43.8125 737.304 44.0644 737.542 44.2386C737.785 44.4091 738.092 44.4943 738.463 44.4943ZM744.386 46V37.2727H746.733V38.7955H746.824C746.983 38.2538 747.25 37.8447 747.625 37.5682C748 37.2879 748.432 37.1477 748.92 37.1477C749.041 37.1477 749.172 37.1553 749.312 37.1705C749.452 37.1856 749.576 37.2064 749.682 37.233V39.3807C749.568 39.3466 749.411 39.3163 749.21 39.2898C749.009 39.2633 748.826 39.25 748.659 39.25C748.303 39.25 747.985 39.3277 747.704 39.483C747.428 39.6345 747.208 39.8466 747.045 40.1193C746.886 40.392 746.807 40.7064 746.807 41.0625V46H744.386ZM753.567 46.142C752.904 46.142 752.303 45.9716 751.766 45.6307C751.231 45.286 750.807 44.7803 750.493 44.1136C750.182 43.4432 750.027 42.6212 750.027 41.6477C750.027 40.6477 750.188 39.8163 750.51 39.1534C750.832 38.4867 751.26 37.9886 751.794 37.6591C752.332 37.3258 752.921 37.1591 753.561 37.1591C754.05 37.1591 754.457 37.2424 754.783 37.4091C755.112 37.572 755.377 37.7765 755.578 38.0227C755.783 38.2652 755.938 38.5038 756.044 38.7386H756.118V34.3636H758.533V46H756.146V44.6023H756.044C755.93 44.8447 755.769 45.0852 755.561 45.3239C755.356 45.5587 755.089 45.7538 754.76 45.9091C754.434 46.0644 754.036 46.142 753.567 46.142ZM754.334 44.2159C754.724 44.2159 755.053 44.1098 755.322 43.8977C755.595 43.6818 755.803 43.3807 755.947 42.9943C756.095 42.608 756.169 42.1553 756.169 41.6364C756.169 41.1174 756.097 40.6667 755.953 40.2841C755.809 39.9015 755.601 39.6061 755.328 39.3977C755.055 39.1894 754.724 39.0852 754.334 39.0852C753.936 39.0852 753.601 39.1932 753.328 39.4091C753.055 39.625 752.849 39.9242 752.709 40.3068C752.569 40.6894 752.499 41.1326 752.499 41.6364C752.499 42.1439 752.569 42.5928 752.709 42.983C752.853 43.3693 753.059 43.6723 753.328 43.892C753.601 44.108 753.936 44.2159 754.334 44.2159ZM762.068 46L759.693 37.2727H762.142L763.494 43.1364H763.574L764.983 37.2727H767.386L768.818 43.1023H768.892L770.222 37.2727H772.665L770.296 46H767.733L766.233 40.5114H766.125L764.625 46H762.068ZM776.269 46.1648C775.712 46.1648 775.216 46.0682 774.78 45.875C774.344 45.678 774 45.3883 773.746 45.0057C773.496 44.6193 773.371 44.1383 773.371 43.5625C773.371 43.0777 773.46 42.6705 773.638 42.3409C773.816 42.0114 774.058 41.7462 774.365 41.5455C774.672 41.3447 775.021 41.1932 775.411 41.0909C775.805 40.9886 776.218 40.9167 776.649 40.875C777.157 40.822 777.566 40.7727 777.877 40.7273C778.187 40.678 778.413 40.6061 778.553 40.5114C778.693 40.4167 778.763 40.2765 778.763 40.0909V40.0568C778.763 39.697 778.649 39.4186 778.422 39.2216C778.199 39.0246 777.88 38.9261 777.468 38.9261C777.032 38.9261 776.685 39.0227 776.428 39.2159C776.17 39.4053 776 39.6439 775.916 39.9318L773.678 39.75C773.791 39.2197 774.015 38.7614 774.348 38.375C774.682 37.9848 775.111 37.6856 775.638 37.4773C776.168 37.2652 776.782 37.1591 777.479 37.1591C777.964 37.1591 778.428 37.2159 778.871 37.3295C779.318 37.4432 779.714 37.6193 780.058 37.858C780.407 38.0966 780.682 38.4034 780.882 38.7784C781.083 39.1496 781.183 39.5947 781.183 40.1136V46H778.888V44.7898H778.82C778.68 45.0625 778.492 45.303 778.257 45.5114C778.022 45.7159 777.74 45.8769 777.411 45.9943C777.081 46.108 776.7 46.1648 776.269 46.1648ZM776.962 44.4943C777.318 44.4943 777.632 44.4242 777.905 44.2841C778.178 44.1402 778.392 43.947 778.547 43.7045C778.702 43.4621 778.78 43.1875 778.78 42.8807V41.9545C778.704 42.0038 778.6 42.0492 778.468 42.0909C778.339 42.1288 778.193 42.1648 778.03 42.1989C777.867 42.2292 777.704 42.2576 777.541 42.2841C777.379 42.3068 777.231 42.3277 777.098 42.3466C776.814 42.3883 776.566 42.4545 776.354 42.5455C776.142 42.6364 775.977 42.7595 775.86 42.9148C775.742 43.0663 775.683 43.2557 775.683 43.483C775.683 43.8125 775.803 44.0644 776.041 44.2386C776.284 44.4091 776.591 44.4943 776.962 44.4943ZM782.885 46V37.2727H785.232V38.7955H785.323C785.482 38.2538 785.749 37.8447 786.124 37.5682C786.499 37.2879 786.931 37.1477 787.419 37.1477C787.541 37.1477 787.671 37.1553 787.811 37.1705C787.952 37.1856 788.075 37.2064 788.181 37.233V39.3807C788.067 39.3466 787.91 39.3163 787.709 39.2898C787.508 39.2633 787.325 39.25 787.158 39.25C786.802 39.25 786.484 39.3277 786.203 39.483C785.927 39.6345 785.707 39.8466 785.544 40.1193C785.385 40.392 785.306 40.7064 785.306 41.0625V46H782.885ZM792.827 46.1705C791.929 46.1705 791.157 45.9886 790.509 45.625C789.865 45.2576 789.369 44.7386 789.02 44.0682C788.672 43.3939 788.498 42.5966 788.498 41.6761C788.498 40.7784 788.672 39.9905 789.02 39.3125C789.369 38.6345 789.859 38.1061 790.492 37.7273C791.128 37.3485 791.875 37.1591 792.731 37.1591C793.306 37.1591 793.842 37.2519 794.339 37.4375C794.839 37.6193 795.274 37.8939 795.645 38.2614C796.02 38.6288 796.312 39.0909 796.52 39.6477C796.729 40.2008 796.833 40.8485 796.833 41.5909V42.2557H789.464V40.7557H794.554C794.554 40.4072 794.479 40.0985 794.327 39.8295C794.176 39.5606 793.965 39.3504 793.697 39.1989C793.431 39.0436 793.123 38.9659 792.77 38.9659C792.403 38.9659 792.077 39.0511 791.793 39.2216C791.513 39.3883 791.293 39.6136 791.134 39.8977C790.975 40.178 790.893 40.4905 790.89 40.8352V42.2614C790.89 42.6932 790.969 43.0663 791.128 43.3807C791.291 43.6951 791.52 43.9375 791.816 44.108C792.111 44.2784 792.462 44.3636 792.867 44.3636C793.136 44.3636 793.382 44.3258 793.606 44.25C793.829 44.1742 794.02 44.0606 794.179 43.9091C794.339 43.7576 794.46 43.572 794.543 43.3523L796.782 43.5C796.668 44.0379 796.435 44.5076 796.083 44.9091C795.734 45.3068 795.284 45.6174 794.731 45.8409C794.181 46.0606 793.547 46.1705 792.827 46.1705Z" fill="white"/>
<rect x="672" y="560" width="176" height="80" rx="6" fill="#FFCD29"/>
<path d="M739.824 606V594.364H744.415C745.294 594.364 746.044 594.521 746.665 594.835C747.29 595.146 747.766 595.587 748.091 596.159C748.421 596.727 748.586 597.396 748.586 598.165C748.586 598.937 748.419 599.602 748.086 600.159C747.752 600.712 747.269 601.136 746.637 601.432C746.008 601.727 745.247 601.875 744.353 601.875H741.279V599.898H743.955C744.425 599.898 744.815 599.833 745.125 599.705C745.436 599.576 745.667 599.383 745.819 599.125C745.974 598.867 746.052 598.547 746.052 598.165C746.052 597.778 745.974 597.453 745.819 597.188C745.667 596.922 745.434 596.722 745.12 596.585C744.809 596.445 744.417 596.375 743.944 596.375H742.285V606H739.824ZM746.108 600.705L749 606H746.285L743.455 600.705H746.108ZM753.905 606.17C753.023 606.17 752.26 605.983 751.616 605.608C750.975 605.229 750.481 604.703 750.133 604.028C749.784 603.35 749.61 602.564 749.61 601.67C749.61 600.769 749.784 599.981 750.133 599.307C750.481 598.629 750.975 598.102 751.616 597.727C752.26 597.348 753.023 597.159 753.905 597.159C754.788 597.159 755.549 597.348 756.189 597.727C756.833 598.102 757.33 598.629 757.678 599.307C758.027 599.981 758.201 600.769 758.201 601.67C758.201 602.564 758.027 603.35 757.678 604.028C757.33 604.703 756.833 605.229 756.189 605.608C755.549 605.983 754.788 606.17 753.905 606.17ZM753.917 604.295C754.318 604.295 754.654 604.182 754.922 603.955C755.191 603.723 755.394 603.409 755.53 603.011C755.671 602.614 755.741 602.161 755.741 601.653C755.741 601.146 755.671 600.693 755.53 600.295C755.394 599.898 755.191 599.583 754.922 599.352C754.654 599.121 754.318 599.006 753.917 599.006C753.511 599.006 753.171 599.121 752.894 599.352C752.621 599.583 752.415 599.898 752.275 600.295C752.138 600.693 752.07 601.146 752.07 601.653C752.07 602.161 752.138 602.614 752.275 603.011C752.415 603.409 752.621 603.723 752.894 603.955C753.171 604.182 753.511 604.295 753.917 604.295ZM762.019 594.364V606H759.599V594.364H762.019ZM767.759 606.17C766.862 606.17 766.089 605.989 765.441 605.625C764.797 605.258 764.301 604.739 763.953 604.068C763.604 603.394 763.43 602.597 763.43 601.676C763.43 600.778 763.604 599.991 763.953 599.312C764.301 598.634 764.792 598.106 765.424 597.727C766.061 597.348 766.807 597.159 767.663 597.159C768.239 597.159 768.775 597.252 769.271 597.438C769.771 597.619 770.206 597.894 770.578 598.261C770.953 598.629 771.244 599.091 771.453 599.648C771.661 600.201 771.765 600.848 771.765 601.591V602.256H764.396V600.756H769.487C769.487 600.407 769.411 600.098 769.259 599.83C769.108 599.561 768.898 599.35 768.629 599.199C768.364 599.044 768.055 598.966 767.703 598.966C767.335 598.966 767.009 599.051 766.725 599.222C766.445 599.388 766.225 599.614 766.066 599.898C765.907 600.178 765.826 600.491 765.822 600.835V602.261C765.822 602.693 765.901 603.066 766.061 603.381C766.223 603.695 766.453 603.938 766.748 604.108C767.043 604.278 767.394 604.364 767.799 604.364C768.068 604.364 768.314 604.326 768.538 604.25C768.761 604.174 768.953 604.061 769.112 603.909C769.271 603.758 769.392 603.572 769.475 603.352L771.714 603.5C771.6 604.038 771.367 604.508 771.015 604.909C770.667 605.307 770.216 605.617 769.663 605.841C769.114 606.061 768.479 606.17 767.759 606.17ZM780.43 599.761L778.214 599.898C778.176 599.708 778.095 599.538 777.97 599.386C777.845 599.231 777.68 599.108 777.475 599.017C777.275 598.922 777.034 598.875 776.754 598.875C776.379 598.875 776.063 598.955 775.805 599.114C775.547 599.269 775.419 599.477 775.419 599.739C775.419 599.947 775.502 600.123 775.669 600.267C775.835 600.411 776.121 600.527 776.527 600.614L778.106 600.932C778.955 601.106 779.587 601.386 780.004 601.773C780.42 602.159 780.629 602.667 780.629 603.295C780.629 603.867 780.46 604.369 780.123 604.801C779.79 605.233 779.331 605.57 778.748 605.812C778.169 606.051 777.5 606.17 776.742 606.17C775.587 606.17 774.667 605.93 773.981 605.449C773.299 604.964 772.9 604.305 772.782 603.472L775.163 603.347C775.235 603.699 775.409 603.968 775.686 604.153C775.962 604.335 776.316 604.426 776.748 604.426C777.172 604.426 777.513 604.345 777.771 604.182C778.032 604.015 778.165 603.801 778.169 603.54C778.165 603.32 778.072 603.14 777.89 603C777.708 602.856 777.428 602.746 777.049 602.67L775.538 602.369C774.686 602.199 774.051 601.903 773.635 601.483C773.222 601.062 773.015 600.527 773.015 599.875C773.015 599.314 773.167 598.831 773.47 598.426C773.777 598.021 774.206 597.708 774.76 597.489C775.316 597.269 775.968 597.159 776.714 597.159C777.816 597.159 778.684 597.392 779.316 597.858C779.953 598.324 780.324 598.958 780.43 599.761Z" fill="black" fill-opacity="0.8"/>
<rect x="672" y="656" width="176" height="80" rx="6" fill="#14AE5C"/>
<path d="M741.566 694.125C741.486 693.848 741.374 693.604 741.23 693.392C741.087 693.176 740.91 692.994 740.702 692.847C740.498 692.695 740.263 692.58 739.998 692.5C739.736 692.42 739.446 692.381 739.128 692.381C738.534 692.381 738.011 692.528 737.56 692.824C737.113 693.119 736.765 693.549 736.515 694.114C736.265 694.674 736.14 695.36 736.14 696.17C736.14 696.981 736.263 697.67 736.509 698.239C736.755 698.807 737.104 699.241 737.554 699.54C738.005 699.835 738.537 699.983 739.151 699.983C739.708 699.983 740.183 699.884 740.577 699.688C740.975 699.487 741.278 699.205 741.486 698.841C741.698 698.477 741.804 698.047 741.804 697.551L742.304 697.625H739.304V695.773H744.174V697.239C744.174 698.261 743.958 699.14 743.526 699.875C743.094 700.606 742.499 701.17 741.742 701.568C740.984 701.962 740.117 702.159 739.14 702.159C738.049 702.159 737.09 701.919 736.265 701.438C735.439 700.953 734.795 700.265 734.333 699.375C733.874 698.481 733.645 697.42 733.645 696.193C733.645 695.25 733.782 694.409 734.054 693.67C734.331 692.928 734.717 692.299 735.213 691.784C735.71 691.269 736.287 690.877 736.946 690.608C737.605 690.339 738.32 690.205 739.088 690.205C739.748 690.205 740.361 690.301 740.929 690.494C741.498 690.684 742.001 690.953 742.441 691.301C742.884 691.65 743.246 692.064 743.526 692.545C743.806 693.023 743.986 693.549 744.066 694.125H741.566ZM751.397 698.284V693.273H753.817V702H751.493V700.415H751.402C751.206 700.926 750.878 701.337 750.42 701.648C749.965 701.958 749.41 702.114 748.755 702.114C748.171 702.114 747.658 701.981 747.215 701.716C746.772 701.451 746.425 701.074 746.175 700.585C745.929 700.097 745.804 699.511 745.8 698.83V693.273H748.221V698.398C748.224 698.913 748.363 699.32 748.635 699.619C748.908 699.919 749.274 700.068 749.732 700.068C750.024 700.068 750.296 700.002 750.55 699.869C750.804 699.733 751.009 699.532 751.164 699.267C751.323 699.002 751.401 698.674 751.397 698.284ZM755.577 702V693.273H757.998V702H755.577ZM756.793 692.148C756.433 692.148 756.125 692.028 755.867 691.79C755.613 691.547 755.486 691.258 755.486 690.92C755.486 690.587 755.613 690.301 755.867 690.062C756.125 689.82 756.433 689.699 756.793 689.699C757.153 689.699 757.46 689.82 757.714 690.062C757.971 690.301 758.1 690.587 758.1 690.92C758.1 691.258 757.971 691.547 757.714 691.79C757.46 692.028 757.153 692.148 756.793 692.148ZM762.977 702.142C762.314 702.142 761.713 701.972 761.175 701.631C760.641 701.286 760.217 700.78 759.903 700.114C759.592 699.443 759.437 698.621 759.437 697.648C759.437 696.648 759.598 695.816 759.92 695.153C760.242 694.487 760.67 693.989 761.204 693.659C761.742 693.326 762.331 693.159 762.971 693.159C763.46 693.159 763.867 693.242 764.193 693.409C764.522 693.572 764.787 693.777 764.988 694.023C765.193 694.265 765.348 694.504 765.454 694.739H765.528V690.364H767.943V702H765.556V700.602H765.454C765.34 700.845 765.179 701.085 764.971 701.324C764.766 701.559 764.499 701.754 764.17 701.909C763.844 702.064 763.446 702.142 762.977 702.142ZM763.744 700.216C764.134 700.216 764.463 700.11 764.732 699.898C765.005 699.682 765.213 699.381 765.357 698.994C765.505 698.608 765.579 698.155 765.579 697.636C765.579 697.117 765.507 696.667 765.363 696.284C765.219 695.902 765.011 695.606 764.738 695.398C764.465 695.189 764.134 695.085 763.744 695.085C763.346 695.085 763.011 695.193 762.738 695.409C762.465 695.625 762.259 695.924 762.119 696.307C761.979 696.689 761.908 697.133 761.908 697.636C761.908 698.144 761.979 698.593 762.119 698.983C762.263 699.369 762.469 699.672 762.738 699.892C763.011 700.108 763.346 700.216 763.744 700.216ZM773.734 702.17C772.836 702.17 772.063 701.989 771.416 701.625C770.772 701.258 770.276 700.739 769.927 700.068C769.579 699.394 769.404 698.597 769.404 697.676C769.404 696.778 769.579 695.991 769.927 695.312C770.276 694.634 770.766 694.106 771.399 693.727C772.035 693.348 772.781 693.159 773.637 693.159C774.213 693.159 774.749 693.252 775.245 693.438C775.745 693.619 776.181 693.894 776.552 694.261C776.927 694.629 777.219 695.091 777.427 695.648C777.635 696.201 777.74 696.848 777.74 697.591V698.256H770.37V696.756H775.461C775.461 696.407 775.385 696.098 775.234 695.83C775.082 695.561 774.872 695.35 774.603 695.199C774.338 695.044 774.029 694.966 773.677 694.966C773.31 694.966 772.984 695.051 772.7 695.222C772.419 695.388 772.2 695.614 772.041 695.898C771.882 696.178 771.8 696.491 771.796 696.835V698.261C771.796 698.693 771.876 699.066 772.035 699.381C772.198 699.695 772.427 699.938 772.723 700.108C773.018 700.278 773.368 700.364 773.774 700.364C774.043 700.364 774.289 700.326 774.512 700.25C774.736 700.174 774.927 700.061 775.086 699.909C775.245 699.758 775.366 699.572 775.45 699.352L777.688 699.5C777.575 700.038 777.342 700.508 776.99 700.909C776.641 701.307 776.19 701.617 775.637 701.841C775.088 702.061 774.454 702.17 773.734 702.17ZM786.404 695.761L784.189 695.898C784.151 695.708 784.069 695.538 783.944 695.386C783.819 695.231 783.654 695.108 783.45 695.017C783.249 694.922 783.009 694.875 782.728 694.875C782.353 694.875 782.037 694.955 781.779 695.114C781.522 695.269 781.393 695.477 781.393 695.739C781.393 695.947 781.476 696.123 781.643 696.267C781.81 696.411 782.096 696.527 782.501 696.614L784.081 696.932C784.929 697.106 785.562 697.386 785.978 697.773C786.395 698.159 786.603 698.667 786.603 699.295C786.603 699.867 786.435 700.369 786.098 700.801C785.764 701.233 785.306 701.57 784.723 701.812C784.143 702.051 783.475 702.17 782.717 702.17C781.562 702.17 780.641 701.93 779.956 701.449C779.274 700.964 778.874 700.305 778.757 699.472L781.137 699.347C781.209 699.699 781.384 699.968 781.66 700.153C781.937 700.335 782.291 700.426 782.723 700.426C783.147 700.426 783.488 700.345 783.745 700.182C784.007 700.015 784.139 699.801 784.143 699.54C784.139 699.32 784.047 699.14 783.865 699C783.683 698.856 783.403 698.746 783.024 698.67L781.512 698.369C780.66 698.199 780.026 697.903 779.609 697.483C779.196 697.062 778.99 696.527 778.99 695.875C778.99 695.314 779.141 694.831 779.444 694.426C779.751 694.021 780.181 693.708 780.734 693.489C781.291 693.269 781.942 693.159 782.689 693.159C783.791 693.159 784.658 693.392 785.291 693.858C785.927 694.324 786.298 694.958 786.404 695.761Z" fill="white"/>
<rect x="896" width="176" height="80" rx="6" fill="#FFA629"/>
<path d="M964.53 34.3636L967.769 43.8409H967.9L971.138 34.3636H973.036L968.848 46H966.82L962.633 34.3636H964.53ZM974.404 46V37.2727H976.103V46H974.404ZM975.262 35.9261C974.966 35.9261 974.713 35.8277 974.501 35.6307C974.292 35.4299 974.188 35.1913 974.188 34.9148C974.188 34.6345 974.292 34.3958 974.501 34.1989C974.713 33.9981 974.966 33.8977 975.262 33.8977C975.557 33.8977 975.809 33.9981 976.018 34.1989C976.23 34.3958 976.336 34.6345 976.336 34.9148C976.336 35.1913 976.23 35.4299 976.018 35.6307C975.809 35.8277 975.557 35.9261 975.262 35.9261ZM981.479 46.1705C980.775 46.1705 980.146 45.9905 979.593 45.6307C979.044 45.267 978.612 44.75 978.298 44.0795C977.987 43.4053 977.832 42.5966 977.832 41.6534C977.832 40.7102 977.989 39.9034 978.303 39.233C978.621 38.5625 979.057 38.0492 979.61 37.6932C980.163 37.3371 980.79 37.1591 981.491 37.1591C982.032 37.1591 982.468 37.25 982.798 37.4318C983.131 37.6098 983.388 37.8182 983.57 38.0568C983.756 38.2955 983.9 38.5057 984.002 38.6875H984.104V34.3636H985.803V46H984.144V44.642H984.002C983.9 44.8277 983.752 45.0398 983.559 45.2784C983.37 45.517 983.108 45.7254 982.775 45.9034C982.442 46.0814 982.01 46.1705 981.479 46.1705ZM981.854 44.7216C982.343 44.7216 982.756 44.5928 983.093 44.3352C983.434 44.0739 983.692 43.7121 983.866 43.25C984.044 42.7879 984.133 42.25 984.133 41.6364C984.133 41.0303 984.046 40.5 983.871 40.0455C983.697 39.5909 983.442 39.2367 983.104 38.983C982.767 38.7292 982.351 38.6023 981.854 38.6023C981.343 38.6023 980.917 38.7348 980.576 39C980.235 39.2652 979.978 39.6269 979.803 40.0852C979.633 40.5436 979.548 41.0606 979.548 41.6364C979.548 42.2197 979.635 42.7443 979.809 43.2102C979.983 43.6761 980.241 44.0455 980.582 44.3182C980.926 44.5871 981.351 44.7216 981.854 44.7216ZM991.813 46.1761C990.953 46.1761 990.213 45.9924 989.592 45.625C988.974 45.2538 988.497 44.733 988.16 44.0625C987.827 43.3883 987.66 42.5985 987.66 41.6932C987.66 40.7992 987.827 40.0114 988.16 39.3295C988.497 38.6477 988.967 38.1155 989.569 37.733C990.175 37.3504 990.883 37.1591 991.694 37.1591C992.186 37.1591 992.664 37.2405 993.126 37.4034C993.588 37.5663 994.003 37.822 994.37 38.1705C994.738 38.5189 995.027 38.9716 995.239 39.5284C995.452 40.0814 995.558 40.7538 995.558 41.5455V42.1477H988.62V40.875H993.893C993.893 40.428 993.802 40.0322 993.62 39.6875C993.438 39.339 993.183 39.0644 992.853 38.8636C992.527 38.6629 992.145 38.5625 991.705 38.5625C991.228 38.5625 990.811 38.6799 990.455 38.9148C990.103 39.1458 989.83 39.4489 989.637 39.8239C989.448 40.1951 989.353 40.5985 989.353 41.0341V42.0284C989.353 42.6117 989.455 43.108 989.66 43.517C989.868 43.9261 990.158 44.2386 990.529 44.4545C990.9 44.6667 991.334 44.7727 991.83 44.7727C992.152 44.7727 992.446 44.7273 992.711 44.6364C992.976 44.5417 993.205 44.4015 993.399 44.2159C993.592 44.0303 993.739 43.8011 993.842 43.5284L995.45 43.8182C995.321 44.2917 995.09 44.7064 994.757 45.0625C994.427 45.4148 994.012 45.6894 993.512 45.8864C993.016 46.0795 992.45 46.1761 991.813 46.1761ZM1000.94 46.1761C1000.12 46.1761 999.411 45.9886 998.801 45.6136C998.191 45.2386 997.717 44.714 997.38 44.0398C997.043 43.3655 996.875 42.5777 996.875 41.6761C996.875 40.7708 997.043 39.9792 997.38 39.3011C997.717 38.6231 998.191 38.0966 998.801 37.7216C999.411 37.3466 1000.12 37.1591 1000.94 37.1591C1001.76 37.1591 1002.47 37.3466 1003.08 37.7216C1003.69 38.0966 1004.17 38.6231 1004.51 39.3011C1004.84 39.9792 1005.01 40.7708 1005.01 41.6761C1005.01 42.5777 1004.84 43.3655 1004.51 44.0398C1004.17 44.714 1003.69 45.2386 1003.08 45.6136C1002.47 45.9886 1001.76 46.1761 1000.94 46.1761ZM1000.95 44.75C1001.48 44.75 1001.92 44.6098 1002.27 44.3295C1002.62 44.0492 1002.87 43.6761 1003.04 43.2102C1003.21 42.7443 1003.3 42.2311 1003.3 41.6705C1003.3 41.1136 1003.21 40.6023 1003.04 40.1364C1002.87 39.6667 1002.62 39.2898 1002.27 39.0057C1001.92 38.7216 1001.48 38.5795 1000.95 38.5795C1000.41 38.5795 999.971 38.7216 999.619 39.0057C999.27 39.2898 999.011 39.6667 998.84 40.1364C998.674 40.6023 998.59 41.1136 998.59 41.6705C998.59 42.2311 998.674 42.7443 998.84 43.2102C999.011 43.6761 999.27 44.0492 999.619 44.3295C999.971 44.6098 1000.41 44.75 1000.95 44.75Z" fill="black" fill-opacity="0.8"/>
<rect x="896" y="112" width="176" height="80" rx="6" fill="#FFA629"/>
<path d="M964.434 158H962.57L966.758 146.364H968.786L972.973 158H971.11L967.82 148.477H967.729L964.434 158ZM964.746 153.443H970.792V154.92H964.746V153.443ZM979.87 154.381V149.273H981.574V158H979.904V156.489H979.813C979.612 156.955 979.29 157.343 978.847 157.653C978.408 157.96 977.86 158.114 977.205 158.114C976.645 158.114 976.148 157.991 975.716 157.744C975.288 157.494 974.951 157.125 974.705 156.636C974.463 156.148 974.341 155.544 974.341 154.824V149.273H976.04V154.619C976.04 155.214 976.205 155.687 976.535 156.04C976.864 156.392 977.292 156.568 977.819 156.568C978.137 156.568 978.453 156.489 978.768 156.33C979.086 156.17 979.349 155.93 979.557 155.608C979.77 155.286 979.874 154.877 979.87 154.381ZM986.948 158.17C986.244 158.17 985.615 157.991 985.062 157.631C984.513 157.267 984.081 156.75 983.766 156.08C983.456 155.405 983.3 154.597 983.3 153.653C983.3 152.71 983.458 151.903 983.772 151.233C984.09 150.562 984.526 150.049 985.079 149.693C985.632 149.337 986.259 149.159 986.96 149.159C987.501 149.159 987.937 149.25 988.266 149.432C988.6 149.61 988.857 149.818 989.039 150.057C989.225 150.295 989.369 150.506 989.471 150.688H989.573V146.364H991.272V158H989.613V156.642H989.471C989.369 156.828 989.221 157.04 989.028 157.278C988.838 157.517 988.577 157.725 988.244 157.903C987.91 158.081 987.478 158.17 986.948 158.17ZM987.323 156.722C987.812 156.722 988.225 156.593 988.562 156.335C988.903 156.074 989.16 155.712 989.335 155.25C989.513 154.788 989.602 154.25 989.602 153.636C989.602 153.03 989.514 152.5 989.34 152.045C989.166 151.591 988.91 151.237 988.573 150.983C988.236 150.729 987.819 150.602 987.323 150.602C986.812 150.602 986.386 150.735 986.045 151C985.704 151.265 985.446 151.627 985.272 152.085C985.102 152.544 985.016 153.061 985.016 153.636C985.016 154.22 985.103 154.744 985.278 155.21C985.452 155.676 985.71 156.045 986.05 156.318C986.395 156.587 986.819 156.722 987.323 156.722ZM993.521 158V149.273H995.22V158H993.521ZM994.379 147.926C994.083 147.926 993.829 147.828 993.617 147.631C993.409 147.43 993.305 147.191 993.305 146.915C993.305 146.634 993.409 146.396 993.617 146.199C993.829 145.998 994.083 145.898 994.379 145.898C994.674 145.898 994.926 145.998 995.134 146.199C995.346 146.396 995.453 146.634 995.453 146.915C995.453 147.191 995.346 147.43 995.134 147.631C994.926 147.828 994.674 147.926 994.379 147.926ZM1001.01 158.176C1000.19 158.176 999.473 157.989 998.863 157.614C998.253 157.239 997.78 156.714 997.443 156.04C997.106 155.366 996.937 154.578 996.937 153.676C996.937 152.771 997.106 151.979 997.443 151.301C997.78 150.623 998.253 150.097 998.863 149.722C999.473 149.347 1000.19 149.159 1001.01 149.159C1001.82 149.159 1002.54 149.347 1003.15 149.722C1003.76 150.097 1004.23 150.623 1004.57 151.301C1004.9 151.979 1005.07 152.771 1005.07 153.676C1005.07 154.578 1004.9 155.366 1004.57 156.04C1004.23 156.714 1003.76 157.239 1003.15 157.614C1002.54 157.989 1001.82 158.176 1001.01 158.176ZM1001.01 156.75C1001.54 156.75 1001.98 156.61 1002.33 156.33C1002.68 156.049 1002.94 155.676 1003.1 155.21C1003.27 154.744 1003.36 154.231 1003.36 153.67C1003.36 153.114 1003.27 152.602 1003.1 152.136C1002.94 151.667 1002.68 151.29 1002.33 151.006C1001.98 150.722 1001.54 150.58 1001.01 150.58C1000.48 150.58 1000.03 150.722 999.681 151.006C999.333 151.29 999.073 151.667 998.903 152.136C998.736 152.602 998.653 153.114 998.653 153.67C998.653 154.231 998.736 154.744 998.903 155.21C999.073 155.676 999.333 156.049 999.681 156.33C1000.03 156.61 1000.48 156.75 1001.01 156.75Z" fill="black" fill-opacity="0.8"/>
<rect x="896" y="448" width="176" height="80" rx="6" fill="#FFA629"/>
<path d="M966.839 494V482.364H970.987C971.889 482.364 972.637 482.519 973.231 482.83C973.83 483.14 974.277 483.57 974.572 484.119C974.868 484.665 975.015 485.295 975.015 486.011C975.015 486.723 974.866 487.35 974.567 487.892C974.271 488.43 973.824 488.848 973.226 489.148C972.631 489.447 971.883 489.597 970.981 489.597H967.839V488.085H970.822C971.39 488.085 971.853 488.004 972.209 487.841C972.568 487.678 972.832 487.441 972.998 487.131C973.165 486.82 973.248 486.447 973.248 486.011C973.248 485.572 973.163 485.191 972.993 484.869C972.826 484.547 972.563 484.301 972.203 484.131C971.847 483.956 971.379 483.869 970.8 483.869H968.595V494H966.839ZM972.584 488.75L975.459 494H973.459L970.64 488.75H972.584ZM979.379 494.193C978.826 494.193 978.326 494.091 977.879 493.886C977.432 493.678 977.078 493.377 976.817 492.983C976.559 492.589 976.43 492.106 976.43 491.534C976.43 491.042 976.525 490.636 976.714 490.318C976.904 490 977.159 489.748 977.481 489.562C977.803 489.377 978.163 489.237 978.561 489.142C978.959 489.047 979.364 488.975 979.777 488.926C980.3 488.866 980.724 488.816 981.05 488.778C981.375 488.737 981.612 488.67 981.76 488.58C981.908 488.489 981.981 488.341 981.981 488.136V488.097C981.981 487.6 981.841 487.216 981.561 486.943C981.284 486.67 980.872 486.534 980.322 486.534C979.75 486.534 979.3 486.661 978.97 486.915C978.644 487.165 978.419 487.443 978.294 487.75L976.697 487.386C976.887 486.856 977.163 486.428 977.527 486.102C977.894 485.773 978.317 485.534 978.794 485.386C979.271 485.235 979.773 485.159 980.3 485.159C980.648 485.159 981.017 485.201 981.408 485.284C981.802 485.364 982.169 485.511 982.51 485.727C982.855 485.943 983.137 486.252 983.356 486.653C983.576 487.051 983.686 487.568 983.686 488.205V494H982.027V492.807H981.959C981.849 493.027 981.684 493.242 981.464 493.455C981.245 493.667 980.963 493.843 980.618 493.983C980.273 494.123 979.86 494.193 979.379 494.193ZM979.749 492.83C980.218 492.83 980.62 492.737 980.953 492.551C981.29 492.366 981.546 492.123 981.72 491.824C981.898 491.521 981.987 491.197 981.987 490.852V489.727C981.927 489.788 981.809 489.845 981.635 489.898C981.464 489.947 981.269 489.991 981.05 490.028C980.83 490.062 980.616 490.095 980.408 490.125C980.199 490.152 980.025 490.174 979.885 490.193C979.555 490.235 979.254 490.305 978.981 490.403C978.713 490.502 978.497 490.644 978.334 490.83C978.175 491.011 978.095 491.254 978.095 491.557C978.095 491.977 978.25 492.295 978.561 492.511C978.872 492.723 979.267 492.83 979.749 492.83ZM989.449 494.176C988.604 494.176 987.877 493.985 987.267 493.602C986.661 493.216 986.195 492.684 985.869 492.006C985.544 491.328 985.381 490.551 985.381 489.676C985.381 488.79 985.547 488.008 985.881 487.33C986.214 486.648 986.684 486.116 987.29 485.733C987.896 485.35 988.61 485.159 989.432 485.159C990.095 485.159 990.686 485.282 991.205 485.528C991.724 485.771 992.142 486.112 992.46 486.551C992.782 486.991 992.974 487.504 993.034 488.091H991.381C991.29 487.682 991.082 487.33 990.756 487.034C990.434 486.739 990.002 486.591 989.46 486.591C988.987 486.591 988.572 486.716 988.216 486.966C987.864 487.212 987.589 487.564 987.392 488.023C987.195 488.477 987.097 489.015 987.097 489.636C987.097 490.273 987.193 490.822 987.386 491.284C987.58 491.746 987.852 492.104 988.205 492.358C988.561 492.612 988.979 492.739 989.46 492.739C989.782 492.739 990.074 492.68 990.335 492.562C990.6 492.441 990.822 492.269 991 492.045C991.182 491.822 991.309 491.553 991.381 491.239H993.034C992.974 491.803 992.79 492.307 992.483 492.75C992.176 493.193 991.765 493.542 991.25 493.795C990.739 494.049 990.138 494.176 989.449 494.176ZM996.237 491.04L996.226 488.966H996.522L999.999 485.273H1002.03L998.067 489.477H997.8L996.237 491.04ZM994.675 494V482.364H996.374V494H994.675ZM1000.19 494L997.061 489.852L998.232 488.665L1002.27 494H1000.19Z" fill="black" fill-opacity="0.8"/>
<rect x="896" y="336" width="176" height="80" rx="6" fill="#FFA629"/>
<path d="M963.403 382L960.176 370.364H962.022L964.289 379.375H964.397L966.755 370.364H968.585L970.943 379.381H971.051L973.312 370.364H975.164L971.931 382H970.164L967.716 373.284H967.625L965.176 382H963.403ZM976.453 382V373.273H978.152V382H976.453ZM977.311 371.926C977.015 371.926 976.762 371.828 976.55 371.631C976.341 371.43 976.237 371.191 976.237 370.915C976.237 370.634 976.341 370.396 976.55 370.199C976.762 369.998 977.015 369.898 977.311 369.898C977.606 369.898 977.858 369.998 978.067 370.199C978.279 370.396 978.385 370.634 978.385 370.915C978.385 371.191 978.279 371.43 978.067 371.631C977.858 371.828 977.606 371.926 977.311 371.926ZM980.261 382V373.273H981.903V374.659H981.994C982.153 374.189 982.434 373.82 982.835 373.551C983.24 373.278 983.699 373.142 984.21 373.142C984.316 373.142 984.441 373.146 984.585 373.153C984.733 373.161 984.848 373.17 984.932 373.182V374.807C984.864 374.788 984.742 374.767 984.568 374.744C984.394 374.718 984.22 374.705 984.045 374.705C983.644 374.705 983.286 374.79 982.972 374.96C982.661 375.127 982.415 375.36 982.233 375.659C982.051 375.955 981.96 376.292 981.96 376.67V382H980.261ZM986.226 382V373.273H987.925V382H986.226ZM987.084 371.926C986.788 371.926 986.535 371.828 986.323 371.631C986.114 371.43 986.01 371.191 986.01 370.915C986.01 370.634 986.114 370.396 986.323 370.199C986.535 369.998 986.788 369.898 987.084 369.898C987.379 369.898 987.631 369.998 987.84 370.199C988.052 370.396 988.158 370.634 988.158 370.915C988.158 371.191 988.052 371.43 987.84 371.631C987.631 371.828 987.379 371.926 987.084 371.926ZM991.733 376.818V382H990.034V373.273H991.665V374.693H991.773C991.974 374.231 992.288 373.86 992.716 373.58C993.148 373.299 993.691 373.159 994.347 373.159C994.941 373.159 995.462 373.284 995.909 373.534C996.356 373.78 996.703 374.148 996.949 374.636C997.195 375.125 997.318 375.729 997.318 376.449V382H995.62V376.653C995.62 376.021 995.455 375.527 995.125 375.17C994.796 374.811 994.343 374.631 993.767 374.631C993.373 374.631 993.023 374.716 992.716 374.886C992.413 375.057 992.173 375.307 991.995 375.636C991.82 375.962 991.733 376.356 991.733 376.818ZM1003.08 385.455C1002.39 385.455 1001.79 385.364 1001.29 385.182C1000.79 385 1000.39 384.759 1000.07 384.46C999.76 384.161 999.525 383.833 999.37 383.477L1000.83 382.875C1000.93 383.042 1001.07 383.218 1001.24 383.403C1001.41 383.593 1001.65 383.754 1001.94 383.886C1002.24 384.019 1002.63 384.085 1003.1 384.085C1003.74 384.085 1004.27 383.928 1004.69 383.614C1005.11 383.303 1005.32 382.807 1005.32 382.125V380.409H1005.22C1005.11 380.595 1004.97 380.801 1004.77 381.028C1004.58 381.256 1004.32 381.453 1003.99 381.619C1003.66 381.786 1003.22 381.869 1002.69 381.869C1002 381.869 1001.38 381.708 1000.82 381.386C1000.27 381.061 999.839 380.581 999.517 379.949C999.199 379.312 999.04 378.53 999.04 377.602C999.04 376.674 999.197 375.879 999.512 375.216C999.83 374.553 1000.27 374.045 1000.82 373.693C1001.37 373.337 1002 373.159 1002.7 373.159C1003.24 373.159 1003.68 373.25 1004.01 373.432C1004.35 373.61 1004.6 373.818 1004.79 374.057C1004.98 374.295 1005.13 374.506 1005.23 374.688H1005.35V373.273H1007.02V382.193C1007.02 382.943 1006.84 383.559 1006.49 384.04C1006.15 384.521 1005.67 384.877 1005.08 385.108C1004.49 385.339 1003.82 385.455 1003.08 385.455ZM1003.06 380.46C1003.55 380.46 1003.96 380.347 1004.3 380.119C1004.64 379.888 1004.9 379.559 1005.07 379.131C1005.25 378.699 1005.34 378.182 1005.34 377.58C1005.34 376.992 1005.25 376.475 1005.08 376.028C1004.91 375.581 1004.65 375.233 1004.31 374.983C1003.98 374.729 1003.56 374.602 1003.06 374.602C1002.55 374.602 1002.13 374.735 1001.78 375C1001.44 375.261 1001.19 375.617 1001.01 376.068C1000.84 376.519 1000.76 377.023 1000.76 377.58C1000.76 378.152 1000.84 378.653 1001.02 379.085C1001.19 379.517 1001.45 379.854 1001.79 380.097C1002.13 380.339 1002.56 380.46 1003.06 380.46Z" fill="black" fill-opacity="0.8"/>
<rect x="896" y="224" width="176" height="80" rx="6" fill="#FFA629"/>
<path d="M953.778 270H951.914L956.102 258.364H958.13L962.318 270H960.454L957.164 260.477H957.073L953.778 270ZM954.09 265.443H960.136V266.92H954.09V265.443ZM965.385 264.818V270H963.686V261.273H965.316V262.693H965.424C965.625 262.231 965.939 261.86 966.367 261.58C966.799 261.299 967.343 261.159 967.998 261.159C968.593 261.159 969.114 261.284 969.561 261.534C970.008 261.78 970.354 262.148 970.6 262.636C970.847 263.125 970.97 263.729 970.97 264.449V270H969.271V264.653C969.271 264.021 969.106 263.527 968.777 263.17C968.447 262.811 967.994 262.631 967.419 262.631C967.025 262.631 966.674 262.716 966.367 262.886C966.064 263.057 965.824 263.307 965.646 263.636C965.472 263.962 965.385 264.356 965.385 264.818ZM976.748 270.176C975.904 270.176 975.176 269.985 974.566 269.602C973.96 269.216 973.495 268.684 973.169 268.006C972.843 267.328 972.68 266.551 972.68 265.676C972.68 264.79 972.847 264.008 973.18 263.33C973.513 262.648 973.983 262.116 974.589 261.733C975.195 261.35 975.909 261.159 976.731 261.159C977.394 261.159 977.985 261.282 978.504 261.528C979.023 261.771 979.441 262.112 979.76 262.551C980.082 262.991 980.273 263.504 980.334 264.091H978.68C978.589 263.682 978.381 263.33 978.055 263.034C977.733 262.739 977.301 262.591 976.76 262.591C976.286 262.591 975.871 262.716 975.515 262.966C975.163 263.212 974.888 263.564 974.691 264.023C974.495 264.477 974.396 265.015 974.396 265.636C974.396 266.273 974.493 266.822 974.686 267.284C974.879 267.746 975.152 268.104 975.504 268.358C975.86 268.612 976.279 268.739 976.76 268.739C977.082 268.739 977.373 268.68 977.635 268.562C977.9 268.441 978.121 268.269 978.299 268.045C978.481 267.822 978.608 267.553 978.68 267.239H980.334C980.273 267.803 980.089 268.307 979.782 268.75C979.476 269.193 979.065 269.542 978.549 269.795C978.038 270.049 977.438 270.176 976.748 270.176ZM981.974 270V261.273H983.673V270H981.974ZM982.832 259.926C982.537 259.926 982.283 259.828 982.071 259.631C981.863 259.43 981.758 259.191 981.758 258.915C981.758 258.634 981.863 258.396 982.071 258.199C982.283 257.998 982.537 257.898 982.832 257.898C983.128 257.898 983.38 257.998 983.588 258.199C983.8 258.396 983.906 258.634 983.906 258.915C983.906 259.191 983.8 259.43 983.588 259.631C983.38 259.828 983.128 259.926 982.832 259.926ZM987.482 258.364V270H985.783V258.364H987.482ZM991.29 258.364V270H989.591V258.364H991.29ZM995.939 270.193C995.386 270.193 994.886 270.091 994.439 269.886C993.992 269.678 993.638 269.377 993.377 268.983C993.119 268.589 992.99 268.106 992.99 267.534C992.99 267.042 993.085 266.636 993.274 266.318C993.464 266 993.719 265.748 994.041 265.562C994.363 265.377 994.723 265.237 995.121 265.142C995.519 265.047 995.924 264.975 996.337 264.926C996.86 264.866 997.284 264.816 997.61 264.778C997.935 264.737 998.172 264.67 998.32 264.58C998.468 264.489 998.541 264.341 998.541 264.136V264.097C998.541 263.6 998.401 263.216 998.121 262.943C997.844 262.67 997.432 262.534 996.882 262.534C996.31 262.534 995.86 262.661 995.53 262.915C995.204 263.165 994.979 263.443 994.854 263.75L993.257 263.386C993.447 262.856 993.723 262.428 994.087 262.102C994.454 261.773 994.877 261.534 995.354 261.386C995.831 261.235 996.333 261.159 996.86 261.159C997.208 261.159 997.577 261.201 997.968 261.284C998.362 261.364 998.729 261.511 999.07 261.727C999.415 261.943 999.697 262.252 999.916 262.653C1000.14 263.051 1000.25 263.568 1000.25 264.205V270H998.587V268.807H998.519C998.409 269.027 998.244 269.242 998.024 269.455C997.805 269.667 997.523 269.843 997.178 269.983C996.833 270.123 996.42 270.193 995.939 270.193ZM996.309 268.83C996.778 268.83 997.18 268.737 997.513 268.551C997.85 268.366 998.106 268.123 998.28 267.824C998.458 267.521 998.547 267.197 998.547 266.852V265.727C998.487 265.788 998.369 265.845 998.195 265.898C998.024 265.947 997.829 265.991 997.61 266.028C997.39 266.062 997.176 266.095 996.968 266.125C996.759 266.152 996.585 266.174 996.445 266.193C996.115 266.235 995.814 266.305 995.541 266.403C995.273 266.502 995.057 266.644 994.894 266.83C994.735 267.011 994.655 267.254 994.655 267.557C994.655 267.977 994.81 268.295 995.121 268.511C995.432 268.723 995.827 268.83 996.309 268.83ZM1002.33 270V261.273H1003.97V262.659H1004.07C1004.22 262.189 1004.51 261.82 1004.91 261.551C1005.31 261.278 1005.77 261.142 1006.28 261.142C1006.39 261.142 1006.51 261.146 1006.66 261.153C1006.8 261.161 1006.92 261.17 1007 261.182V262.807C1006.94 262.788 1006.81 262.767 1006.64 262.744C1006.47 262.718 1006.29 262.705 1006.12 262.705C1005.72 262.705 1005.36 262.79 1005.04 262.96C1004.73 263.127 1004.49 263.36 1004.3 263.659C1004.12 263.955 1004.03 264.292 1004.03 264.67V270H1002.33ZM1009.64 273.273C1009.38 273.273 1009.15 273.252 1008.94 273.21C1008.74 273.172 1008.58 273.131 1008.48 273.085L1008.89 271.693C1009.2 271.777 1009.47 271.813 1009.72 271.801C1009.96 271.79 1010.17 271.699 1010.36 271.528C1010.55 271.358 1010.71 271.08 1010.86 270.693L1011.07 270.114L1007.88 261.273H1009.69L1011.9 268.045H1011.99L1014.21 261.273H1016.03L1012.43 271.165C1012.27 271.619 1012.05 272.004 1011.8 272.318C1011.54 272.636 1011.23 272.875 1010.88 273.034C1010.52 273.193 1010.11 273.273 1009.64 273.273Z" fill="black" fill-opacity="0.8"/>
<path d="M180 40H220" stroke="#757575" stroke-width="3" stroke-miterlimit="0" stroke-linecap="round" stroke-linejoin="bevel"/>
<path d="M404 40H444" stroke="#757575" stroke-width="3" stroke-miterlimit="0" stroke-linecap="round" stroke-linejoin="bevel"/>
<path d="M628 40H668" stroke="#757575" stroke-width="3" stroke-miterlimit="0" stroke-linecap="round" stroke-linejoin="bevel"/>
<path d="M852 40H892" stroke="#757575" stroke-width="3" stroke-miterlimit="0" stroke-linecap="round" stroke-linejoin="bevel"/>
<path d="M852 40V40C863.046 40 872 48.9543 872 60V132C872 143.046 880.954 152 892 152V152" stroke="#757575" stroke-width="3" stroke-miterlimit="0" stroke-linecap="round" stroke-linejoin="bevel"/>
<path d="M852 40V40C863.046 40 872 48.9543 872 60V244C872 255.046 880.954 264 892 264V264" stroke="#757575" stroke-width="3" stroke-miterlimit="0" stroke-linecap="round" stroke-linejoin="bevel"/>
<path d="M852 40V40C863.046 40 872 48.9543 872 60V356C872 367.046 880.954 376 892 376V376" stroke="#757575" stroke-width="3" stroke-miterlimit="0" stroke-linecap="round" stroke-linejoin="bevel"/>
<path d="M852 40V40C863.046 40 872 48.9543 872 60V468C872 479.046 880.954 488 892 488V488" stroke="#757575" stroke-width="3" stroke-miterlimit="0" stroke-linecap="round" stroke-linejoin="bevel"/>
<path d="M628 40V40C639.046 40 648 48.9543 648 60V580C648 591.046 656.954 600 668 600V600" stroke="#757575" stroke-width="3" stroke-miterlimit="0" stroke-linecap="round" stroke-linejoin="bevel"/>
<path d="M628 40V40C639.046 40 648 48.9543 648 60V676C648 687.046 656.954 696 668 696V696" stroke="#757575" stroke-width="3" stroke-miterlimit="0" stroke-linecap="round" stroke-linejoin="bevel"/>
<path d="M404 40V40C415.046 40 424 48.9543 424 60V788C424 799.046 432.954 808 444 808V808" stroke="#757575" stroke-width="3" stroke-miterlimit="0" stroke-linecap="round" stroke-linejoin="bevel"/>
<path d="M628 808H668" stroke="#757575" stroke-width="3" stroke-miterlimit="0" stroke-linecap="round" stroke-linejoin="bevel"/>
<path d="M628 808V808C639.046 808 648 816.954 648 828V884C648 895.046 656.954 904 668 904V904" stroke="#757575" stroke-width="3" stroke-miterlimit="0" stroke-linecap="round" stroke-linejoin="bevel"/>
<path d="M628 808V808C639.046 808 648 816.954 648 828V1076C648 1087.05 656.954 1096 668 1096V1096" stroke="#757575" stroke-width="3" stroke-miterlimit="0" stroke-linecap="round" stroke-linejoin="bevel"/>
<path d="M628 808V808C639.046 808 648 816.954 648 828V980C648 991.046 656.954 1000 668 1000V1000" stroke="#757575" stroke-width="3" stroke-miterlimit="0" stroke-linecap="round" stroke-linejoin="bevel"/>
</svg>
